<svg xmlns="http://www.w3.org/2000/svg" xmlns:xlink="http://www.w3.org/1999/xlink" viewBox="0 0 1920 740"><defs><style>.cls-1{fill:none;}.cls-2{fill:#fff;}.cls-3{clip-path:url(#clip-path);}.cls-4{fill:#8ecbf8;}.cls-5{opacity:0.44;}.cls-6{fill:#2f7bc1;}.cls-7{fill:#79a7ec;}.cls-8{fill:#205286;}.cls-9{fill:#173d60;opacity:0.36;}.cls-10{fill:#0a416b;}.cls-11{fill:#568bc4;}.cls-12{fill:#1b466d;}.cls-13{fill:#95befd;}.cls-14{fill:#b3d2ff;}.cls-15{fill:#6d8ab5;}.cls-16{fill:#e1efff;}.cls-17{fill:#9e8b5e;}.cls-18{fill:#6b615d;}.cls-19{fill:#4878a3;}.cls-20{fill:#af9c97;}.cls-21{fill:#c1aca4;}.cls-22{fill:#73a4f7;}.cls-23{fill:#83abdb;}.cls-24{fill:#c3dcff;}.cls-25{fill:#8dc1ff;}.cls-26{fill:#438bd1;}.cls-27{fill:#225d89;}.cls-28{fill:#b5d6e9;}.cls-29{fill:#e5a393;}.cls-30{fill:#a55f2b;}.cls-31{fill:#aae8f7;}.cls-32{fill:#3fd1e0;}.cls-33{fill:#d4eff4;}.cls-34{fill:#1a1a1a;}.cls-35{fill:#a86b39;}.cls-36{fill:#aa7749;}.cls-37{fill:#333;}.cls-38{fill:#9e3e3e;}.cls-39{fill:#8e633f;}.cls-40{fill:#4d4d4d;}.cls-41{fill:gray;}.cls-42{fill:#79d3e2;}.cls-43{fill:#62adb5;}.cls-44{fill:#b3b3b3;}.cls-45{fill:#ffb5a1;}.cls-46{fill:#2b1714;}.cls-47{fill:#ffdf7b;}.cls-48{fill:#ffcc3b;}.cls-49{fill:#f2f2f2;}.cls-50{fill:#666;opacity:0.18;}.cls-51{fill:#ec9f41;}.cls-52{fill:#f77c99;}.cls-53{fill:#f4608a;}</style><clipPath id="clip-path"><rect class="cls-1" x="1" y="-4" width="1920" height="739"/></clipPath></defs><title>layout</title><g id="Layer_3" data-name="Layer 3"><rect class="cls-2" x="-2" y="-4" width="1925" height="8464"/></g><g id="Layer_1" data-name="Layer 1"><g class="cls-3"><rect class="cls-4" x="0.39" y="-5.52" width="1920.61" height="527.65"/><ellipse class="cls-2" cx="1162.61" cy="103.16" rx="5.99" ry="6.07"/><ellipse class="cls-2" cx="1216.5" cy="147.64" rx="5.99" ry="6.07"/><ellipse class="cls-2" cx="1133.67" cy="166.85" rx="5.99" ry="6.07"/><ellipse class="cls-2" cx="1221.48" cy="230.54" rx="5.99" ry="6.07"/><ellipse class="cls-2" cx="1329.26" cy="160.78" rx="5.99" ry="6.07"/><ellipse class="cls-2" cx="1281.36" cy="61.71" rx="5.99" ry="6.07"/><ellipse class="cls-2" cx="1050.84" cy="62.72" rx="5.99" ry="6.07"/><ellipse class="cls-2" cx="1192.55" cy="21.27" rx="5.99" ry="6.07"/><ellipse class="cls-2" cx="1392.13" cy="76.88" rx="5.99" ry="6.07"/><ellipse class="cls-2" cx="1304.31" cy="239.64" rx="5.99" ry="6.07"/><ellipse class="cls-2" cx="1152.63" cy="304.34" rx="5.99" ry="6.07"/><ellipse class="cls-2" cx="1809.26" cy="61.71" rx="5.99" ry="6.07"/><ellipse class="cls-2" cx="1863.15" cy="106.19" rx="5.99" ry="6.07"/><ellipse class="cls-2" cx="1780.32" cy="125.4" rx="5.99" ry="6.07"/><ellipse class="cls-2" cx="1868.14" cy="189.09" rx="5.99" ry="6.07"/><ellipse class="cls-2" cx="1697.49" cy="21.27" rx="5.99" ry="6.07"/><ellipse class="cls-2" cx="1799.28" cy="262.89" rx="5.99" ry="6.07"/><ellipse class="cls-2" cx="1787.31" cy="425.65" rx="5.99" ry="6.07"/><ellipse class="cls-2" cx="1841.2" cy="470.13" rx="5.99" ry="6.07"/><ellipse class="cls-2" cx="1758.37" cy="489.34" rx="5.99" ry="6.07"/><ellipse class="cls-2" cx="1846.18" cy="553.03" rx="5.99" ry="6.07"/><ellipse class="cls-2" cx="1906.06" cy="384.2" rx="5.99" ry="6.07"/><ellipse class="cls-2" cx="1675.54" cy="385.21" rx="5.99" ry="6.07"/><ellipse class="cls-2" cx="1817.25" cy="343.76" rx="5.99" ry="6.07"/><ellipse class="cls-2" cx="1777.33" cy="626.83" rx="5.99" ry="6.07"/><ellipse class="cls-2" cx="431.13" cy="101.14" rx="5.99" ry="6.07"/><ellipse class="cls-2" cx="485.02" cy="145.62" rx="5.99" ry="6.07"/><ellipse class="cls-2" cx="402.19" cy="164.83" rx="5.99" ry="6.07"/><ellipse class="cls-2" cx="490.01" cy="228.52" rx="5.99" ry="6.07"/><ellipse class="cls-2" cx="597.78" cy="158.76" rx="5.99" ry="6.07"/><ellipse class="cls-2" cx="549.88" cy="59.69" rx="5.99" ry="6.07"/><ellipse class="cls-2" cx="319.36" cy="60.7" rx="5.99" ry="6.07"/><ellipse class="cls-2" cx="461.07" cy="19.25" rx="5.99" ry="6.07"/><ellipse class="cls-2" cx="660.65" cy="74.85" rx="5.99" ry="6.07"/><ellipse class="cls-2" cx="572.83" cy="237.62" rx="5.99" ry="6.07"/><ellipse class="cls-2" cx="421.15" cy="302.32" rx="5.99" ry="6.07"/><ellipse class="cls-2" cx="21.98" cy="89.01" rx="5.99" ry="6.07"/><ellipse class="cls-2" cx="75.87" cy="133.49" rx="5.99" ry="6.07"/><ellipse class="cls-2" cx="80.86" cy="216.39" rx="5.99" ry="6.07"/><ellipse class="cls-2" cx="188.63" cy="146.63" rx="5.99" ry="6.07"/><ellipse class="cls-2" cx="140.73" cy="47.56" rx="5.99" ry="6.07"/><ellipse class="cls-2" cx="51.92" cy="7.12" rx="5.99" ry="6.07"/><ellipse class="cls-2" cx="251.5" cy="62.72" rx="5.99" ry="6.07"/><ellipse class="cls-2" cx="163.69" cy="225.48" rx="5.99" ry="6.07"/><ellipse class="cls-2" cx="12" cy="290.18" rx="5.99" ry="6.07"/><ellipse class="cls-2" cx="-1.97" cy="470.13" rx="5.99" ry="6.07"/><ellipse class="cls-2" cx="3.02" cy="553.03" rx="5.99" ry="6.07"/><ellipse class="cls-2" cx="110.8" cy="483.27" rx="5.99" ry="6.07"/><ellipse class="cls-2" cx="62.9" cy="384.2" rx="5.99" ry="6.07"/><ellipse class="cls-2" cx="173.67" cy="399.37" rx="5.99" ry="6.07"/><ellipse class="cls-2" cx="85.85" cy="562.13" rx="5.99" ry="6.07"/><ellipse class="cls-2" cx="825.31" cy="20.26" rx="5.99" ry="6.07"/><ellipse class="cls-2" cx="742.48" cy="39.47" rx="5.99" ry="6.07"/><ellipse class="cls-2" cx="830.3" cy="103.16" rx="5.99" ry="6.07"/><ellipse class="cls-2" cx="938.07" cy="33.4" rx="5.99" ry="6.07"/><ellipse class="cls-2" cx="913.13" cy="112.26" rx="5.99" ry="6.07"/><ellipse class="cls-2" cx="761.44" cy="176.96" rx="5.99" ry="6.07"/><g class="cls-5"><rect class="cls-6" x="1159.07" y="381.17" width="24.77" height="153.42" rx="12.38" ry="12.38"/><rect class="cls-6" x="1208.47" y="381.17" width="24.77" height="153.42" rx="12.38" ry="12.38"/><rect class="cls-6" x="1257.87" y="381.17" width="24.77" height="153.42" rx="12.38" ry="12.38"/><rect class="cls-6" x="1307.27" y="381.17" width="24.77" height="153.42" rx="12.38" ry="12.38"/><rect class="cls-6" x="1356.66" y="381.17" width="24.77" height="153.42" rx="12.38" ry="12.38"/><rect class="cls-6" x="1406.06" y="381.17" width="24.77" height="153.42" rx="12.38" ry="12.38"/><rect class="cls-6" x="1455.46" y="381.17" width="24.77" height="153.42" rx="12.38" ry="12.38"/><rect class="cls-6" x="1504.85" y="381.17" width="24.77" height="153.42" rx="12.38" ry="12.38"/><rect class="cls-6" x="1554.25" y="381.17" width="24.77" height="153.42" rx="12.38" ry="12.38"/><rect class="cls-6" x="1603.65" y="381.17" width="24.77" height="153.42" rx="12.38" ry="12.38"/><rect class="cls-6" x="1653.04" y="381.17" width="24.77" height="153.42" rx="12.38" ry="12.38"/><rect class="cls-6" x="1702.44" y="381.17" width="24.77" height="153.42" rx="12.38" ry="12.38"/><rect class="cls-6" x="1751.84" y="381.17" width="24.77" height="153.42" rx="12.38" ry="12.38"/><rect class="cls-6" x="1801.24" y="381.17" width="24.77" height="153.42" rx="12.38" ry="12.38"/><rect class="cls-6" x="1850.63" y="381.17" width="24.77" height="153.42" rx="12.38" ry="12.38"/></g><rect class="cls-6" x="1130.65" y="419.93" width="767.55" height="20.81" rx="8.47" ry="8.47"/><rect class="cls-6" x="1131.49" y="466.85" width="767.55" height="20.81" rx="8.47" ry="8.47"/><ellipse class="cls-7" cx="196.01" cy="220.41" rx="139.71" ry="140.51"/><path class="cls-8" d="M152.2,519.3l36.44-359.7a1.23,1.23,0,1,1,2.46,0L220.25,521a1.33,1.33,0,0,1-1.26,1.52l-65.6-1.64A1.34,1.34,0,0,1,152.2,519.3Z"/><path class="cls-8" d="M185.17,249.51l56.68-73c1.32-1.7,3.92.09,3,2L199,270.36a1.73,1.73,0,0,1-3.08,0L185,251.59A1.87,1.87,0,0,1,185.17,249.51Z"/><path class="cls-8" d="M192.42,275l99.36-50.63a1.25,1.25,0,0,1,1.31,2.1l-95.75,75.65a1.23,1.23,0,0,1-2-.81l-3.61-25A1.26,1.26,0,0,1,192.42,275Z"/><path class="cls-8" d="M260.47,248.79l30.31,3a1.25,1.25,0,0,1,0,2.49l-47.22,6.12"/><path class="cls-8" d="M184.88,251.52l-41.14-79.46a1.24,1.24,0,0,0-2.25,1l41.36,110.57"/><path class="cls-8" d="M153.83,196.14l18.67-41.06a1.24,1.24,0,0,1,2.33.8l-12.89,57.35"/><path class="cls-8" d="M179.48,291.86,130.79,248.8l-22.25-19.68a1.24,1.24,0,0,0-1.74,1.77l71.33,82.17"/><path class="cls-8" d="M140.33,262.46l-3-25.16a1.23,1.23,0,0,1,2.37-.63l16.14,39.46"/><path class="cls-8" d="M226.13,204.77l6.81-52.42c.48-3.72,3-3,3,.86l.3,32.64"/><ellipse class="cls-7" cx="1570.79" cy="191.14" rx="151.82" ry="152.68"/><path class="cls-8" d="M1523.19,515.93l39.6-390.87a1.33,1.33,0,1,1,2.67,0l31.68,392.66a1.45,1.45,0,0,1-1.37,1.65l-71.28-1.78A1.46,1.46,0,0,1,1523.19,515.93Z"/><path class="cls-8" d="M1559,222.76l61.6-79.28c1.44-1.85,4.26.09,3.21,2.2L1574,245.42a1.88,1.88,0,0,1-3.35,0L1558.87,225A2,2,0,0,1,1559,222.76Z"/><path class="cls-8" d="M1566.89,250.51l108-55a1.36,1.36,0,0,1,1.43,2.29l-104,82.2a1.34,1.34,0,0,1-2.15-.88l-3.93-27.18A1.36,1.36,0,0,1,1566.89,250.51Z"/><path class="cls-8" d="M1640.83,222l32.93,3.28a1.36,1.36,0,0,1,0,2.7l-51.31,6.65"/><path class="cls-8" d="M1558.69,224.95,1514,138.61a1.34,1.34,0,0,0-2.44,1.11l44.94,120.15"/><path class="cls-8" d="M1525,164.77l20.28-44.62a1.34,1.34,0,0,1,2.53.87l-14,62.32"/><path class="cls-8" d="M1552.83,268.78,1499.92,222l-24.18-21.38a1.35,1.35,0,0,0-1.89,1.92l77.51,89.29"/><path class="cls-8" d="M1510.29,236.84,1507,209.5a1.34,1.34,0,0,1,2.57-.68l17.53,42.88"/><path class="cls-8" d="M1603.52,174.15l7.4-57c.53-4,3.23-3.27,3.27.93l.33,35.47"/><polygon class="cls-8" points="700.38 154.35 672.43 326.54 231.24 326.54 238.08 302.93 239.19 299.1 244.35 281.34 245.46 277.52 250.6 259.76 251.71 255.94 256.86 238.18 257.97 234.35 263.12 216.6 264.23 212.77 269.38 195.02 270.49 191.19 275.11 175.28 275.64 173.43 276.75 169.61 281.17 154.35 700.38 154.35"/><path class="cls-9" d="M582.81,154.36,362.72,326.69l295.66-5L695.8,154.12S582.84,154.33,582.81,154.36Z"/><polygon class="cls-10" points="810.12 99.3 818.61 105.14 814.6 93.09 810.12 99.3"/><polygon class="cls-8" points="835.67 70.2 836.78 230.83 872.2 337.71 871.57 72.45 835.67 70.2"/><polygon class="cls-11" points="874.63 72.47 834.98 72.45 834.98 53.17 874.63 53.95 874.63 72.47"/><polygon class="cls-11" points="834.98 53.17 809.2 87.19 809.63 99.62 835.93 72.01 834.98 53.17"/><polygon class="cls-12" points="814.6 93.09 815.85 165.96 836.78 230.83 835.93 72.01 814.6 93.09"/><polygon class="cls-13" points="581.02 527.19 957.46 525.16 952.44 273.29 767.06 128.21 576.33 268.55 581.02 527.19"/><path class="cls-14" d="M763.26,459.67l45.51.31V338.13A8.12,8.12,0,0,0,800.7,330H763.86Z"/><path class="cls-15" d="M809.44,460.07l-.06-121.78a10.11,10.11,0,0,0-10-10.17H763.86V338h28.06a7.47,7.47,0,0,1,7.43,7.52v114.6Z"/><polygon class="cls-16" points="799.55 414.85 763.69 363.71 763.67 373.29 799.27 424.61 799.55 414.85"/><polygon class="cls-16" points="799.4 432.03 763.64 381.24 763.21 402.69 799.46 450.09 799.4 432.03"/><rect class="cls-13" x="763.3" y="392.6" width="45.81" height="5.57"/><rect class="cls-13" x="763.3" y="405.91" width="45.81" height="5.57"/><rect class="cls-13" x="763.3" y="379.61" width="45.81" height="5.57"/><polygon class="cls-12" points="679.76 169.61 679.76 173.43 275.64 173.43 276.75 169.61 679.76 169.61"/><polygon class="cls-12" points="675.87 191.19 675.87 195.02 269.38 195.02 270.49 191.19 675.87 191.19"/><polygon class="cls-12" points="671.97 212.77 671.97 216.6 263.12 216.6 264.23 212.77 671.97 212.77"/><polygon class="cls-12" points="668.08 234.35 668.08 238.18 256.86 238.18 257.97 234.35 668.08 234.35"/><polygon class="cls-12" points="664.19 255.94 664.19 259.76 250.6 259.76 251.71 255.94 664.19 255.94"/><polygon class="cls-12" points="660.29 277.52 660.29 281.34 244.35 281.34 245.46 277.52 660.29 277.52"/><polygon class="cls-12" points="656.4 299.1 656.4 302.93 238.08 302.93 239.19 299.1 656.4 299.1"/><rect class="cls-7" x="233.53" y="331.44" width="338.73" height="194.37" transform="translate(805.78 857.25) rotate(-180)"/><polygon class="cls-1" points="838.78 473.29 864.25 509.9 859.31 509.9 833.58 473.29 838.78 473.29"/><polygon class="cls-7" points="766.85 132.48 950.07 274.09 571.42 274.09 766.85 132.48"/><polygon class="cls-17" points="813.4 191.17 749.04 141.85 766.84 128.76 849.16 191.73 813.4 191.17"/><rect class="cls-18" x="576.32" y="462" width="23.65" height="65.2" transform="translate(1176.29 989.2) rotate(-180)"/><rect class="cls-18" x="697.88" y="464.82" width="20.35" height="61.82" transform="translate(1416.12 991.46) rotate(-180)"/><path class="cls-19" d="M953.4,272.12,767.52,128.9l-17,13.86-1.46-.91-77.15,56,12.38,10,66.05-49.53a15.42,15.42,0,0,1,18.72.14L953.28,301Z"/><rect class="cls-20" x="599.97" y="479.74" width="109.47" height="18.31" transform="translate(1309.4 977.78) rotate(-180)"/><rect class="cls-21" x="599.97" y="461.77" width="97.91" height="18.31" transform="translate(1297.85 941.84) rotate(-180)"/><rect class="cls-21" x="599.69" y="497.36" width="98.74" height="18.31" transform="translate(1298.13 1013.03) rotate(-180)"/><rect class="cls-20" x="599.14" y="509.27" width="99.29" height="18.31" transform="translate(1297.58 1036.84) rotate(-180)"/><path class="cls-22" d="M526.71,281.82l226.1-170.53a10.29,10.29,0,0,1,12.53.08l228,176.73a10.62,10.62,0,0,1,2,14.73h0a10.31,10.31,0,0,1-14.56,2L767.36,140.91a10.29,10.29,0,0,0-12.41-.12l-215.15,159a10.31,10.31,0,0,1-14.37-2.09l-.75-1A10.62,10.62,0,0,1,526.71,281.82Z"/><path class="cls-6" d="M768.19,455.34H810a4.76,4.76,0,0,1,4.76,4.76v1.15A4.76,4.76,0,0,1,810,466H768.19a0,0,0,0,1,0,0V455.34A0,0,0,0,1,768.19,455.34Z"/><path class="cls-14" d="M831.86,459.67l45.51.31V338.13a8.12,8.12,0,0,0-8.07-8.17H832.47Z"/><path class="cls-15" d="M878,460.07,878,338.29a10.11,10.11,0,0,0-10-10.17H832.46V338h28.06a7.47,7.47,0,0,1,7.43,7.52v114.6Z"/><polygon class="cls-16" points="868.16 414.85 832.29 363.71 832.28 373.29 867.88 424.61 868.16 414.85"/><polygon class="cls-16" points="868 432.03 832.25 381.24 831.82 402.69 868.07 450.09 868 432.03"/><rect class="cls-13" x="831.9" y="392.6" width="45.81" height="5.57"/><rect class="cls-13" x="831.9" y="405.91" width="45.81" height="5.57"/><rect class="cls-13" x="831.9" y="379.61" width="45.81" height="5.57"/><path class="cls-6" d="M828.93,455.34h49.29a5.15,5.15,0,0,1,5.15,5.15v.38a5.15,5.15,0,0,1-5.15,5.15H828.93a0,0,0,0,1,0,0V455.34A0,0,0,0,1,828.93,455.34Z"/><path class="cls-14" d="M899.38,455.81l45.51.31V334.27a8.12,8.12,0,0,0-8.07-8.17H900Z"/><path class="cls-15" d="M945.56,456.21l-.06-121.78a10.11,10.11,0,0,0-10-10.17H900v9.84H928a7.47,7.47,0,0,1,7.43,7.52v114.6Z"/><polygon class="cls-16" points="935.67 410.99 899.81 359.85 899.79 369.43 935.39 420.75 935.67 410.99"/><polygon class="cls-16" points="935.52 428.17 899.76 377.38 899.33 398.83 935.58 446.23 935.52 428.17"/><rect class="cls-13" x="899.42" y="388.74" width="45.81" height="5.57"/><rect class="cls-13" x="899.42" y="402.04" width="45.81" height="5.57"/><rect class="cls-13" x="899.42" y="375.74" width="45.81" height="5.57"/><path class="cls-6" d="M897.53,451.47h48.26a5.09,5.09,0,0,1,5.09,5.09v.49a5.09,5.09,0,0,1-5.09,5.09H897.53a0,0,0,0,1,0,0V451.47a0,0,0,0,1,0,0Z"/><rect class="cls-6" x="224.36" y="320.64" width="353.14" height="13.17" rx="6.49" ry="6.49" transform="translate(801.87 654.45) rotate(180)"/><rect class="cls-23" x="886.56" y="475.44" width="23.71" height="10.03"/><rect class="cls-23" x="902.32" y="486.69" width="23.71" height="10.03"/><rect class="cls-23" x="875.75" y="486.69" width="23.71" height="10.03"/><rect class="cls-23" x="860.47" y="475.55" width="23.71" height="10.03"/><rect class="cls-23" x="887.05" y="498.44" width="23.71" height="10.03"/><rect class="cls-23" x="914.17" y="474.98" width="23.71" height="10.03"/><rect class="cls-14" x="279.91" y="370.48" width="99.92" height="106.43"/><path class="cls-15" d="M379.53,370.48H279.91v13.31h77.44a9.26,9.26,0,0,1,9.2,9.32v83.81h13.29V370.48Z"/><rect class="cls-7" x="267.43" y="416.27" width="117.29" height="14.85"/><rect class="cls-7" x="325.16" y="365.84" width="11.61" height="125"/><rect class="cls-14" x="407.32" y="368.28" width="99.92" height="106.43"/><path class="cls-15" d="M506.94,368.27H407.32v13.31h77.44a9.26,9.26,0,0,1,9.2,9.32v83.81h13.29V368.27Z"/><rect class="cls-7" x="394.84" y="414.07" width="117.29" height="14.85"/><rect class="cls-7" x="452.57" y="363.63" width="11.61" height="125"/><path class="cls-6" d="M217.54,457.89H562.48a0,0,0,0,1,0,0v72.4a0,0,0,0,1,0,0H228.91a11.36,11.36,0,0,1-11.36-11.36v-61a0,0,0,0,1,0,0Z"/><rect class="cls-24" x="542.93" y="271.31" width="225.41" height="258.98"/><path class="cls-25" d="M735.62,524.57v5.88a5.08,5.08,0,0,1-5,5.11H585.5a5.08,5.08,0,0,1-5-5.11v-5.88a5.08,5.08,0,0,1,5-5.11H730.58A5.08,5.08,0,0,1,735.62,524.57Z"/><path class="cls-26" d="M735.62,524.57H580.46a5.08,5.08,0,0,1,5-5.11H730.58A5.08,5.08,0,0,1,735.62,524.57Z"/><path class="cls-25" d="M720.81,508.09V514c0,2.82-1.83,5.11-4.08,5.11H599.35c-2.25,0-4.08-2.28-4.08-5.11v-5.88c0-2.82,1.83-5.11,4.08-5.11H716.73C719,503,720.81,505.27,720.81,508.09Z"/><path class="cls-26" d="M720.81,508.09H595.27c0-2.82,1.83-5.11,4.08-5.11H716.73C719,503,720.81,505.27,720.81,508.09Z"/><path class="cls-25" d="M704.43,492.08V498c0,2.82-1.35,5.11-3,5.11H614.66c-1.66,0-3-2.28-3-5.11v-5.88c0-2.82,1.35-5.11,3-5.11h86.75C703.07,487,704.43,489.26,704.43,492.08Z"/><path class="cls-26" d="M704.43,492.08H611.65c0-2.82,1.35-5.11,3-5.11h86.75C703.07,487,704.43,489.26,704.43,492.08Z"/><rect class="cls-14" x="615.62" y="335.03" width="82.01" height="148.39"/><polygon class="cls-16" points="640.06 419.68 614.64 380.84 619.82 376.62 645.24 415.46 640.06 419.68"/><polygon class="cls-16" points="653.81 418.66 616.24 361.16 616.38 349.85 658.99 414.44 653.81 418.66"/><polygon class="cls-16" points="680.84 417.38 655.41 378.54 660.59 374.32 686.02 413.16 680.84 417.38"/><polygon class="cls-16" points="694.58 416.36 657.01 358.86 657.31 346.44 699.76 412.14 694.58 416.36"/><rect class="cls-6" x="655.63" y="333.49" width="5.5" height="82.12"/><path class="cls-6" d="M613.39,331.51V486.94H701.7V331.51Zm82,7v73.66H619.69V338.54Z"/><ellipse class="cls-22" cx="687.4" cy="425.49" rx="5.8" ry="6.47"/><path class="cls-27" d="M651.36,338.48v.07H619.69v4.15h29.49a2.31,2.31,0,0,1,2.18,2.43v67.08h4.24V338.48Z"/><path class="cls-27" d="M691.21,338.48v.07h-30v4.15h27.94a2.27,2.27,0,0,1,2.06,2.43v67.08h4V338.48Z"/><polygon class="cls-25" points="749.7 310.3 561.55 310.3 657.15 215.61 749.7 310.3"/><path class="cls-19" d="M543.08,329.32l106.69-88.63a12.3,12.3,0,0,1,15.71,0L768,325.15l-.92-45.95-108.74-77L542.62,313.08Z"/><path class="cls-11" d="M530.64,323.76c-5.69,0-11.31-3-15-8.63-6.25-9.57-4.61-23.2,3.67-30.43L648.77,171.62a17.44,17.44,0,0,1,23.8.28L793.09,281.72c8.15,7.42,9.55,21.08,3.13,30.51s-18.23,11-26.38,3.62l-97.75-89.07a17.44,17.44,0,0,0-23.8-.28L541.94,319.37A17.1,17.1,0,0,1,530.64,323.76Z"/><rect class="cls-25" x="581.31" y="336.62" width="23.71" height="10.03"/><rect class="cls-25" x="478.95" y="345.08" width="23.71" height="10.03"/><rect class="cls-25" x="719.24" y="322.65" width="23.71" height="10.03"/><rect class="cls-25" x="706.9" y="336.62" width="23.71" height="10.03"/><rect class="cls-25" x="736.67" y="336.99" width="23.71" height="10.03"/><rect class="cls-25" x="715.61" y="349.86" width="23.71" height="10.03"/><rect class="cls-25" x="735.22" y="364.57" width="23.71" height="10.03"/><rect class="cls-25" x="714.53" y="382.59" width="23.71" height="10.03"/><rect class="cls-25" x="729.77" y="406.49" width="23.71" height="10.03"/><rect class="cls-25" x="712.71" y="426.71" width="23.71" height="10.03"/><rect class="cls-25" x="566.06" y="485.55" width="23.71" height="10.03"/><rect class="cls-25" x="554.12" y="355.8" width="23.71" height="10.03"/><rect class="cls-25" x="576.63" y="372.35" width="23.71" height="10.03"/><rect class="cls-25" x="554.49" y="384.49" width="23.71" height="10.03"/><rect class="cls-10" x="839.73" y="105.11" width="19.06" height="7.17"/><rect class="cls-10" x="847.62" y="114.62" width="19.06" height="7.17"/><ellipse class="cls-2" cx="1485.9" cy="227.51" rx="5.99" ry="6.07"/><ellipse class="cls-2" cx="1539.79" cy="271.99" rx="5.99" ry="6.07"/><ellipse class="cls-2" cx="1456.96" cy="291.2" rx="5.99" ry="6.07"/><ellipse class="cls-2" cx="1544.78" cy="354.89" rx="5.99" ry="6.07"/><ellipse class="cls-2" cx="1652.56" cy="285.13" rx="5.99" ry="6.07"/><ellipse class="cls-2" cx="1604.66" cy="186.06" rx="5.99" ry="6.07"/><ellipse class="cls-2" cx="1374.14" cy="187.07" rx="5.99" ry="6.07"/><ellipse class="cls-2" cx="1515.84" cy="145.62" rx="5.99" ry="6.07"/><ellipse class="cls-2" cx="1715.43" cy="201.22" rx="5.99" ry="6.07"/><ellipse class="cls-2" cx="1627.61" cy="363.98" rx="5.99" ry="6.07"/><ellipse class="cls-2" cx="1475.92" cy="428.68" rx="5.99" ry="6.07"/><path class="cls-2" d="M2010.67,527.63a8,8,0,0,0-2.32-2.71c-5.66-2-13.11-1.32-19.63-3-11.64-3-17.82-10.39-26.14-17.25a33.71,33.71,0,0,0-8.36-5c-11.53-2.68-21-1.25-33.29.36-8.11,1.06-17,2.06-24.93-.26s-14.39-6.1-21.33-9.9a65,65,0,0,0-14.5-5.89h-1.13c-15.87,6.53-31.21,19.36-49.91,15.68-17.12-3.37-33.47-21-52.4-15.42a37.57,37.57,0,0,0-11.55,6.15c-4.61,5.58-8.61,11.88-14.61,16.21-14.89,10.76-36.34,6.48-54.22,6.58-11.69.07-22.21-.52-33.32-3.86-4.42-1.33-9-3-13.62-4.27a57.46,57.46,0,0,1-5.84-1.42,42.82,42.82,0,0,0-10-.9c-15.9.63-34.89,6-48.82-2.68-7.24-1.11-13.82-2.24-18.58-2.67-20.17-1.78-29.9-14-51-10.67-7.36,1.17-11.78,4.7-20.31,4.62-10.56-.1-18.76-3.06-29.41-3.65-21.77-1.2-36.06,11.82-56.49,12.16-17.1.28-33.27-5.93-49.32-8.71-21.05-3.65-30.25-1-48.18,6.65-12.06,5.12-21.34,13.57-36.46,13-17.57-.65-34.23-9.79-53.84-8.54-12.9.82-31,2.23-43.67,4.83-8.84,1.81-11.26,8.17-18.57,11.09-5.12,2-11.73.51-17.83,1.13-15.66,1.6-26.53,14.3-7.28,19.45,9.35,2.5,17.66-.76,25.44-4.27.76.16,1.51.35,2.25.57,9.31,2.87,12,13.38,20.06,18.38,20.59,12.84,33.7-8.76,53-11,14.27-1.68,30.32-2,44.48-2.43,20-.64,27.31,16.26,43.92,17.72,14.09,1.25,20.59-14.08,39.06-8.33,16.37,5.1,15.76,20.42,32.58,23.43,19.41,3.47,21.84-13.25,39.08-10.94,8.16,1.09,12.37,4.75,21.55,6.08,9.61,1.39,19.89-1,29,3.65,6.66,3.38,11.22,11.23,17.87,15.3,8.49,5.2,19.63,8.2,29.23,11.73,18.86,6.94,31.44,6.34,50.92.64,18.42-5.4,31-16.76,43.67-29.82,11.76-12.17,24.62-14.58,43.6-16.08,20.74-1.64,24.77.28,36.26,13,6.66,7.36,12.72,15.46,24.64,15,12.31-.51,11.3-8.4,20.67-13.21,21-10.82,65.19-2.2,85.86,7.11,24,10.83,51.34,46.11,75.34,18,9.66-11.32,8.24-27.5,20.74-36.18,12.29-8.53,22.57.55,36.4,4.94,15.22,4.83,40.6,6.17,53.49-5.3C2008.67,551.43,2014.64,536,2010.67,527.63Z"/><path class="cls-28" d="M2010.67,527.63a8,8,0,0,0-2.32-2.71c-5.66-2-13.11-1.32-19.63-3a37,37,0,0,1-8.25-3.25,14.18,14.18,0,0,1-5.35,4.7c-3.07,1.46-8.73-1.28-11.5.11-5,2.51-6.75,5.49-5.4,10.78-17.93.85-32.73-4.37-49.27-5.35-21.36-1.25-15.27,14.77-27.17,19.65-11.7,4.8-20.86-3.18-31.84,5.33-8.18,6.35-3.3,9.38-16.46,7.68-4.4-.57-8.95-3.13-13.23-5.16-12.11-5.75-21.22-17-36.1-19.91-19.22-3.75-34,5.64-49.08,12.9-11.19,5.37-24.4,8.51-35.42,1.68-6.48-4-9.05-11-17.12-13.41-4.36-1.28-12.45-.22-16.9-.77-13.09-1.64-23.75-1.35-37.41-.24-6.32.52-13.28-1.11-19.5-.05-9.07,1.55-6.42,2.13-12.71,7.41-9.45,7.94-19.85,6.77-29,15.39-7.69,7.28-12.33,15.42-27.23,9.82-7.16-2.69-3.35-7.56-13-7.65-5.69,0-7.7,5.12-13,6.35-13.09,3-23.27-5.66-30-12.78-9.76-10.37-16.28-18.09-35-15-13.35,2.17-22.62,7.54-37.44,3.83-5.28-1.32-11.46-6.43-16.12-7.11-7.14-1-9.16,2.24-14,2.88-5.05.67-13.67,1.2-18.26-.9-5.3-2.43-5.67-9.22-10-12-10.74-7-23.14-2.76-32.5,1.38-7.34,3.25-5.39,4.7-14.95,5.21-6.11.33-13-.69-19.24-1.08-13.11-.83-18.37-4.31-29.9-7.84-15.62-4.79-26.08,3.06-41.6,2.42-14.23-.59-22.69-4.53-36.37-.24-6.87,2.15-8.76,4.75-17,4.58-7.9-.16-7.14-2.38-13.22-4.37-13.33-4.36-19.62.17-33.45,1.11a31.57,31.57,0,0,1-10.15-.69c-2.66,4.12-.78,8.81,9.18,11.48,9.35,2.5,17.66-.76,25.44-4.27.76.16,1.51.35,2.25.57,9.31,2.87,12,13.38,20.06,18.38,20.59,12.84,33.7-8.76,53-11,14.27-1.68,30.32-2,44.48-2.43,20-.64,27.31,16.26,43.92,17.72,14.09,1.25,20.59-14.08,39.06-8.33,16.37,5.1,15.76,20.42,32.58,23.43,19.41,3.47,21.84-13.25,39.08-10.94,8.16,1.09,12.37,4.75,21.55,6.08,9.61,1.39,19.89-1,29,3.65,6.66,3.38,11.22,11.23,17.87,15.3,8.49,5.2,19.63,8.2,29.23,11.73,18.86,6.94,31.44,6.34,50.92.64,18.42-5.4,31-16.76,43.67-29.82,11.76-12.17,24.62-14.58,43.6-16.08,20.74-1.64,24.77.28,36.26,13,6.66,7.36,12.72,15.46,24.64,15,12.31-.51,11.3-8.4,20.67-13.21,21-10.82,65.19-2.2,85.86,7.11,24,10.83,51.34,46.11,75.34,18,9.66-11.32,8.24-27.5,20.74-36.18,12.29-8.53,22.57.55,36.4,4.94,15.22,4.83,40.6,6.17,53.49-5.3C2008.67,551.43,2014.64,536,2010.67,527.63Z"/><path class="cls-2" d="M380.55,516.28a6.31,6.31,0,0,0-1.83-2.14c-4.48-1.61-10.37-1-15.52-2.39-9.2-2.41-14.09-8.22-20.66-13.64a26.65,26.65,0,0,0-6.61-4c-9.12-2.11-16.63-1-26.32.29-6.41.84-13.41,1.63-19.71-.21s-11.38-4.82-16.86-7.83a51.38,51.38,0,0,0-11.46-4.65h-.89c-12.54,5.16-24.68,15.3-39.46,12.39-13.54-2.67-26.46-16.64-41.43-12.19a29.7,29.7,0,0,0-9.13,4.86c-3.64,4.41-6.81,9.39-11.55,12.81-11.77,8.51-28.73,5.12-42.86,5.2-9.24.05-17.56-.41-26.34-3.05-3.49-1.05-7.1-2.34-10.77-3.38a45.43,45.43,0,0,1-4.62-1.12,33.86,33.86,0,0,0-7.94-.71C54,497,39,501.24,28,494.41c-5.72-.88-10.93-1.77-14.69-2.11C-2.64,490.9-10.34,481.21-27,483.86c-5.82.93-9.31,3.72-16.06,3.65-8.35-.08-14.83-2.42-23.25-2.88-17.21-.95-28.51,9.35-44.66,9.61-13.52.22-26.3-4.69-39-6.89-16.64-2.89-23.92-.76-38.09,5.26-9.53,4-16.87,10.73-28.83,10.28-13.89-.52-27.06-7.74-42.57-6.75-10.2.65-24.48,1.76-34.52,3.82-7,1.43-8.9,6.46-14.68,8.77-4,1.62-9.27.4-14.09.89-12.38,1.26-21,11.31-5.75,15.38,7.39,2,14-.6,20.12-3.38.6.13,1.2.27,1.78.45,7.36,2.27,9.52,10.58,15.86,14.53,16.28,10.15,26.64-6.93,41.92-8.72,11.28-1.32,24-1.56,35.17-1.92,15.84-.51,21.59,12.85,34.72,14,11.14,1,16.28-11.13,30.88-6.58,12.94,4,12.46,16.15,25.75,18.52,15.34,2.75,17.26-10.47,30.9-8.65,6.46.86,9.78,3.75,17,4.81,7.6,1.1,15.72-.77,22.93,2.88,5.26,2.67,8.87,8.88,14.13,12.09,6.71,4.11,15.52,6.48,23.11,9.27,14.91,5.48,24.86,5,40.25.5,14.56-4.27,24.54-13.25,34.52-23.58C69.86,539.63,80,537.73,95,536.54c16.4-1.29,19.58.22,28.66,10.27,5.26,5.82,10.05,12.23,19.48,11.84,9.74-.4,8.93-6.64,16.34-10.44,16.64-8.55,51.54-1.74,67.88,5.62C246.4,562.38,268,590.28,287,568c7.63-9,6.51-21.74,16.4-28.6,9.71-6.74,17.85.43,28.78,3.9,12,3.82,32.1,4.88,42.29-4.19C379,535.09,383.68,522.9,380.55,516.28Z"/><path class="cls-28" d="M380.55,516.28a6.31,6.31,0,0,0-1.83-2.14c-4.48-1.61-10.37-1-15.52-2.39a29.22,29.22,0,0,1-6.52-2.57,11.21,11.21,0,0,1-4.23,3.71c-2.43,1.15-6.9-1-9.1.09-3.95,2-5.34,4.34-4.27,8.52-14.18.67-25.88-3.46-39-4.23-16.89-1-12.07,11.68-21.48,15.53-9.25,3.79-16.49-2.52-25.17,4.21-6.47,5-2.61,7.42-13,6.07-3.48-.45-7.07-2.48-10.46-4.08-9.57-4.55-16.78-13.45-28.54-15.74-15.2-3-26.84,4.46-38.8,10.2-8.84,4.24-19.29,6.72-28,1.33-5.12-3.17-7.16-8.73-13.54-10.6-3.45-1-9.84-.17-13.36-.61-10.35-1.29-18.78-1.07-29.58-.19-5,.41-10.5-.88-15.42,0-7.17,1.23-5.08,1.69-10.05,5.86-7.47,6.28-15.69,5.35-22.89,12.16-6.08,5.76-9.75,12.19-21.53,7.77-5.66-2.13-2.65-6-10.28-6-4.5,0-6.09,4-10.31,5C-22.64,550.5-30.69,543.63-36,538c-7.71-8.2-12.87-14.3-27.67-11.89-10.56,1.72-17.89,6-29.6,3-4.17-1-9.06-5.09-12.74-5.62-5.64-.82-7.24,1.77-11.08,2.28-4,.53-10.81.95-14.44-.71-4.19-1.92-4.48-7.29-7.92-9.52-8.49-5.53-18.29-2.19-25.69,1.09-5.81,2.57-4.26,3.71-11.82,4.12-4.83.26-10.27-.55-15.21-.86-10.37-.66-14.53-3.41-23.64-6.2-12.35-3.79-20.62,2.42-32.89,1.91-11.25-.47-17.94-3.58-28.75-.19-5.43,1.7-6.93,3.75-13.42,3.62-6.24-.13-5.65-1.88-10.45-3.45-10.54-3.44-15.51.13-26.45.88a25,25,0,0,1-8-.54c-2.1,3.26-.62,7,7.26,9.07,7.39,2,14-.6,20.12-3.38.6.13,1.2.27,1.78.45,7.36,2.27,9.52,10.58,15.86,14.53,16.28,10.15,26.64-6.93,41.92-8.72,11.28-1.32,24-1.56,35.17-1.92,15.84-.51,21.59,12.85,34.72,14,11.14,1,16.28-11.13,30.88-6.58,12.94,4,12.46,16.15,25.75,18.52,15.34,2.75,17.26-10.47,30.9-8.65,6.46.86,9.78,3.75,17,4.81,7.6,1.1,15.72-.77,22.93,2.88,5.26,2.67,8.87,8.88,14.13,12.09,6.71,4.11,15.52,6.48,23.11,9.27,14.91,5.48,24.86,5,40.25.5,14.56-4.27,24.54-13.25,34.52-23.58C69.86,539.63,80,537.73,95,536.54c16.4-1.29,19.58.22,28.66,10.27,5.26,5.82,10.05,12.23,19.48,11.84,9.74-.4,8.93-6.64,16.34-10.44,16.64-8.55,51.54-1.74,67.88,5.62C246.4,562.38,268,590.28,287,568c7.63-9,6.51-21.74,16.4-28.6,9.71-6.74,17.85.43,28.78,3.9,12,3.82,32.1,4.88,42.29-4.19C379,535.09,383.68,522.9,380.55,516.28Z"/><rect class="cls-29" x="1108.58" y="404.15" width="23.48" height="37.62" transform="translate(2240.63 845.92) rotate(-180)"/><rect class="cls-29" x="983.87" y="402.51" width="23.48" height="37.62"/><rect class="cls-30" x="790" y="414.53" width="24" height="41.45"/><rect class="cls-30" x="921" y="412.51" width="24" height="41.45"/><path class="cls-31" d="M920.67,478.88V667.59H874.32V543a7.24,7.24,0,0,0-2.09-5.11,7,7,0,0,0-5-2.12,7.17,7.17,0,0,0-7.13,7.23V666.69H813.71V478.88Z"/><rect class="cls-32" x="813.71" y="480.85" width="106.95" height="7.88"/><path class="cls-32" d="M860.06,657.4v5.35H813.71V619.44a38,38,0,0,1,35.13,10.51A39,39,0,0,1,860.06,657.4Z"/><path class="cls-31" d="M944.72,410.74c-.24-43.19-34.66-78.12-77.08-78.12s-76.84,34.94-77.08,78.12h23.16v70.86h107V410.74Z"/><path class="cls-33" d="M867.64,338.52c40.48,0,73.63,31.8,76.81,72.22h.27c-.24-43.19-34.66-78.12-77.08-78.12s-76.84,34.94-77.08,78.12h.27C794,370.32,827.16,338.52,867.64,338.52Z"/><rect class="cls-30" x="852.07" y="311.09" width="29.41" height="40.69" rx="14.71" ry="14.71"/><ellipse class="cls-34" cx="828.42" cy="267.15" rx="31.64" ry="32.05"/><ellipse class="cls-34" cx="845.35" cy="296.95" rx="31.64" ry="32.05"/><ellipse class="cls-35" cx="822.63" cy="280.24" rx="11.59" ry="11.74"/><ellipse class="cls-34" cx="889.03" cy="296.95" rx="31.64" ry="32.05"/><ellipse class="cls-34" cx="918.44" cy="276.18" rx="19.16" ry="19.41"/><ellipse class="cls-35" cx="911.75" cy="280.24" rx="11.59" ry="11.74"/><path class="cls-36" d="M911.49,243.22v40.49a45.44,45.44,0,0,1-13.09,32A44.28,44.28,0,0,1,866.78,329c-24.69,0-44.71-20.28-44.71-45.29V243.22Z"/><path class="cls-35" d="M866.78,323.58h0c-24.69,0-44.71-20.28-44.71-45.29v5.42c0,25,20,45.29,44.71,45.29h0c24.69,0,44.71-20.28,44.71-45.29v-5.42C911.49,303.3,891.47,323.58,866.78,323.58Z"/><ellipse class="cls-37" cx="844.46" cy="273.47" rx="5.79" ry="5.87"/><ellipse class="cls-37" cx="885.46" cy="273.47" rx="5.79" ry="5.87"/><path class="cls-38" d="M877.36,288.56v10.77c0,.24,0,.47,0,.72a12,12,0,0,1-24.06,0c0-.24,0-.47,0-.72V288.56Z"/><rect class="cls-2" x="853.27" y="288.56" width="24.09" height="7.18"/><path class="cls-39" d="M911.49,241.42v24.74a22.89,22.89,0,0,1-3.86-5.92,22.74,22.74,0,0,1-9.24,2,23.08,23.08,0,0,1-19.48-10.77A31.28,31.28,0,0,1,848.62,254a31.49,31.49,0,0,1-26.44,14.46h-.11V241.42Z"/><path class="cls-37" d="M940.2,225.8A23.55,23.55,0,0,0,924,187.3c-2-22.31-20.5-39.79-43-39.79a43,43,0,0,0-34.45,17.35,31.21,31.21,0,0,0-11-2,31.85,31.85,0,0,0-31.64,32.05,32.49,32.49,0,0,0,1,8.15,32.13,32.13,0,0,0,15.45,60,31.51,31.51,0,0,0,26.45-14.46A31.28,31.28,0,0,0,877.12,246a23.08,23.08,0,0,0,19.48,10.77,22.83,22.83,0,0,0,9.24-1.95A23.13,23.13,0,0,0,950.08,245,23.53,23.53,0,0,0,940.2,225.8Z"/><path class="cls-40" d="M794.1,232.84a32.11,32.11,0,0,1,16.19-28,32.49,32.49,0,0,1-1-8.15,31.85,31.85,0,0,1,31.64-32.05,31.21,31.21,0,0,1,11,2,42.84,42.84,0,0,1,43.17-16.44,42.83,42.83,0,0,0-49.41,14.64,31.21,31.21,0,0,0-11-2A31.85,31.85,0,0,0,803,194.92a32.49,32.49,0,0,0,1,8.15A32.18,32.18,0,0,0,814,262.59,32.06,32.06,0,0,1,794.1,232.84Z"/><path class="cls-40" d="M929.34,188.61c0,.17,0,.33.06.5.54,0,1.07.1,1.6.17Q930.18,188.91,929.34,188.61Z"/><path class="cls-40" d="M853.2,250.85c-.34-.14-.68-.27-1-.42l-.14.2C852.43,250.71,852.82,250.78,853.2,250.85Z"/><path class="cls-41" d="M819,190.44l-.23-.06a2.43,2.43,0,0,1-1.56-3c6.1-19.47,22.07-14.87,22.23-14.83a2.43,2.43,0,0,1,1.61,3,2.39,2.39,0,0,1-3,1.63c-1.2-.35-11.74-2.94-16.31,11.64A2.39,2.39,0,0,1,819,190.44Z"/><ellipse class="cls-41" cx="816.39" cy="198.98" rx="3.57" ry="3.61"/><polygon class="cls-32" points="813.71 383.17 813.71 422.9 809.14 422.9 813.71 383.17"/><polygon class="cls-32" points="920.67 383.17 920.67 422.9 925.24 422.9 920.67 383.17"/><rect class="cls-32" x="920.67" y="405.75" width="28.52" height="17.16"/><rect class="cls-32" x="786.08" y="405.75" width="27.63" height="17.16"/><path class="cls-42" d="M821.73,629.4h0a38.33,38.33,0,0,1,38.33,38.33v5.89a0,0,0,0,1,0,0H783.41a0,0,0,0,1,0,0v-5.89a38.33,38.33,0,0,1,38.33-38.33Z"/><path class="cls-32" d="M873.78,656.42v5.35h46.35V618.45A38,38,0,0,0,885,629,39,39,0,0,0,873.78,656.42Z"/><path class="cls-42" d="M873.78,628.42h76.65a0,0,0,0,1,0,0v5.89a38.33,38.33,0,0,1-38.33,38.33h0a38.33,38.33,0,0,1-38.33-38.33v-5.89A0,0,0,0,1,873.78,628.42Z" transform="translate(1824.21 1301.06) rotate(-180)"/><path class="cls-43" d="M783.61,664.14h76.57a0,0,0,0,1,0,0V674a0,0,0,0,1,0,0H783.61a3.12,3.12,0,0,1-3.12-3.12v-3.61A3.12,3.12,0,0,1,783.61,664.14Z"/><path class="cls-43" d="M876.9,663.15h76.57a0,0,0,0,1,0,0V673a0,0,0,0,1,0,0H876.9a3.12,3.12,0,0,1-3.12-3.12v-3.61A3.12,3.12,0,0,1,876.9,663.15Z" transform="translate(1827.24 1336.15) rotate(-180)"/><rect class="cls-44" x="834" y="372.07" width="75" height="98.06"/><rect class="cls-2" x="832" y="370.05" width="75" height="98.06"/><path class="cls-36" d="M807.27,471l49.8-14.71a16.24,16.24,0,0,0,10.88-20.09h0a15.56,15.56,0,0,0-19.33-10.74l-50.19,14.82a16,16,0,0,0-10.74,19.84h0A15.76,15.76,0,0,0,807.27,471Z"/><path class="cls-36" d="M876,453.49,924.89,471a16,16,0,0,0,20.45-9.86h0A15.8,15.8,0,0,0,935.89,441l-49.28-17.67a15.79,15.79,0,0,0-20.19,9.73h0A16,16,0,0,0,876,453.49Z"/><rect class="cls-34" x="994.31" y="231.34" width="124.78" height="167.94"/><path class="cls-45" d="M1111.07,476v188.7h-46.35V540.14a7.26,7.26,0,0,0-2.09-5.11,7,7,0,0,0-5-2.12,7.18,7.18,0,0,0-7.12,7.23v123.7h-46.35V476Z"/><path class="cls-29" d="M1004.11,514.11v82.3h46.35V542.2c0-1.75,3.19-3.17,7.13-3.17h0c3.94,0,7.13,1.42,7.13,3.17v54.6h46.35V514.11Z"/><path class="cls-29" d="M1050.46,656.52v5.39h-46.35V618.55a38,38,0,0,1,35.13,10.51A39,39,0,0,1,1050.46,656.52Z"/><path class="cls-31" d="M1135.12,407.41h-18.85a5.23,5.23,0,0,0-5.2,5.27v65.16h-107V412.67a5.26,5.26,0,0,0-3.56-5,5.32,5.32,0,0,0-1.64-.27H981c.23-42.93,34.65-77.65,77.08-77.65S1134.87,364.48,1135.12,407.41Z"/><path class="cls-33" d="M1110.1,419.57v58.27h1V416.51A5.28,5.28,0,0,0,1110.1,419.57Z"/><path class="cls-33" d="M1057.06,336.65c40.14,0,73.08,31.07,76.73,70.76h1.33c-.24-42.93-34.65-77.65-77.09-77.65-40,0-72.93,30.93-76.7,70.49C988,364,1019.38,336.65,1057.06,336.65Z"/><rect class="cls-29" x="1042.47" y="308.24" width="29.41" height="54.02" rx="13.32" ry="13.32"/><ellipse class="cls-29" cx="1013.02" cy="277.39" rx="11.59" ry="11.74"/><ellipse class="cls-29" cx="1102.15" cy="277.39" rx="11.59" ry="11.74"/><path class="cls-45" d="M1101.88,240.37v40.49a45.44,45.44,0,0,1-13.09,32,44.28,44.28,0,0,1-31.61,13.26c-24.69,0-44.71-20.28-44.71-45.29V240.37Z"/><ellipse class="cls-46" cx="1035.75" cy="273.32" rx="5.79" ry="5.87"/><ellipse class="cls-46" cx="1076.75" cy="273.32" rx="5.79" ry="5.87"/><path class="cls-38" d="M1043.67,287.05h28a0,0,0,0,1,0,0v12.7a14,14,0,0,1-14,14h0a14,14,0,0,1-14-14v-12.7A0,0,0,0,1,1043.67,287.05Z"/><rect class="cls-2" x="1043.67" y="287.05" width="28.01" height="8.34"/><path class="cls-31" d="M1124.83,585.28h-130a14.92,14.92,0,0,1-14.35-18.44l24.29-103.45h106.11L1139,566.3A14.93,14.93,0,0,1,1124.83,585.28Z"/><rect class="cls-29" x="1012.47" y="242.17" width="89.41" height="18.06"/><path class="cls-37" d="M1056.81,170.84h0a62.51,62.51,0,0,1,62.51,62.51v19.49a0,0,0,0,1,0,0h-125a0,0,0,0,1,0,0V233.35A62.51,62.51,0,0,1,1056.81,170.84Z"/><path class="cls-40" d="M1059.73,170.92c-1,0-1.94-.07-2.92-.07h0c-34.52,0-62.51,28.35-62.51,63.32v18.67h5.83V234.17C1000.14,200.19,1026.56,172.46,1059.73,170.92Z"/><ellipse class="cls-41" cx="1009.78" cy="229.53" rx="3.57" ry="3.61"/><path class="cls-41" d="M1010.67,224.57h-.14a3.14,3.14,0,0,1-3-3.3c1-21.34,18.63-31.95,19.38-32.39a3.1,3.1,0,0,1,4.26,1.15,3.18,3.18,0,0,1-1.13,4.31h0c-.15.09-15.48,9.38-16.28,27.21A3.14,3.14,0,0,1,1010.67,224.57Z"/><path class="cls-32" d="M1004.53,373v39.73h-.43v0a5.26,5.26,0,0,0-3.56-5Z"/><path class="cls-32" d="M1110.36,373v39.73h.43v0a5.26,5.26,0,0,1,3.56-5Z"/><path class="cls-42" d="M1012.13,626.55h0a38.33,38.33,0,0,1,38.33,38.33v5.89a0,0,0,0,1,0,0H973.81a0,0,0,0,1,0,0v-5.89A38.33,38.33,0,0,1,1012.13,626.55Z"/><path class="cls-29" d="M1065.15,656.52v5.39h46.35V618.55a38,38,0,0,0-35.13,10.51A39,39,0,0,0,1065.15,656.52Z"/><path class="cls-42" d="M1065.15,626.55h76.65a0,0,0,0,1,0,0v5.89a38.33,38.33,0,0,1-38.33,38.33h0a38.33,38.33,0,0,1-38.33-38.33v-5.89A0,0,0,0,1,1065.15,626.55Z" transform="translate(2206.96 1297.32) rotate(-180)"/><path class="cls-43" d="M973.64,661.77h76.57a0,0,0,0,1,0,0v9.84a0,0,0,0,1,0,0H973.64a3.12,3.12,0,0,1-3.12-3.12v-3.61A3.12,3.12,0,0,1,973.64,661.77Z"/><path class="cls-43" d="M1066.93,660.79h76.57a0,0,0,0,1,0,0v9.84a0,0,0,0,1,0,0h-76.57a3.12,3.12,0,0,1-3.12-3.12v-3.61a3.12,3.12,0,0,1,3.12-3.12Z" transform="translate(2207.31 1331.42) rotate(-180)"/><rect class="cls-44" x="1021" y="353.87" width="75" height="98.06"/><rect class="cls-2" x="1019" y="351.85" width="75" height="98.06"/><path class="cls-45" d="M997.27,453.79l49.8-14.71A16.24,16.24,0,0,0,1057.95,419h0a15.56,15.56,0,0,0-19.33-10.74l-50.19,14.82a16,16,0,0,0-10.74,19.84h0A15.76,15.76,0,0,0,997.27,453.79Z"/><path class="cls-45" d="M1065.72,438,1113,459.68a15.91,15.91,0,0,0,21.18-8.06h0a15.88,15.88,0,0,0-7.75-20.91l-47.6-21.9a15.71,15.71,0,0,0-20.91,8h0A16.09,16.09,0,0,0,1065.72,438Z"/><path class="cls-47" d="M1339,286s12.14,50.19-41.74,37L1339,286"/><path class="cls-48" d="M1302.36,324.11c-1.64-.3-3.35-.67-5.13-1.11L1339,286a45.29,45.29,0,0,1,.81,4.93Z"/><path class="cls-47" d="M1260.48,284.24s-12.2,50.18,41.7,37l-41.7-37"/><path class="cls-48" d="M1297,322.34c1.64-.3,3.35-.66,5.13-1.1l-41.7-37a45.29,45.29,0,0,0-.82,4.93Z"/><path class="cls-49" d="M1580.23,257c-.15,1.38-.37,2.77-.64,4.18-.1.55-.22,1.12-.35,1.68s-.26,1.15-.4,1.73-.29,1.14-.45,1.72c-.25.89-.52,1.79-.82,2.68-.09.27-.17.54-.27.81s-.2.58-.3.88-.21.59-.32.88c-.33.89-.68,1.79-1.05,2.68-.25.59-.5,1.19-.77,1.79s-.56,1.21-.84,1.8l-.44.92-.46.91c-.22.43-.44.85-.67,1.29s-.32.61-.5.91l-.31.56c-.59,1.07-1.22,2.12-1.88,3.19-.18.3-.37.61-.57.91-.31.49-.64,1-1,1.5l-.63.94-.64.94-.67,1q-2,2.86-4.39,5.78c-.5.63-1,1.27-1.57,1.91l-.83,1q-2.5,2.92-5.38,5.9l-2,2-1,1v0c-10.91,10.71-25.31,21.86-44,33.37-9.25,5.69-19.56,11.47-31,17.33l1.58-5,47.91-153.24,6.3-20.18a124.87,124.87,0,0,1,25.51,20l.57.58,1.14,1.21c.38.4.76.81,1.14,1.22l1.12,1.26c.56.63,1.12,1.29,1.67,1.95q1.38,1.65,2.71,3.39l1.05,1.41c.35.48.69,1,1,1.44s.83,1.2,1.23,1.81c.19.27.37.55.55.83l.21.33a72.42,72.42,0,0,1,6.66,12.94A57.71,57.71,0,0,1,1580.23,257Z"/><path class="cls-42" d="M1580.23,257c-.16,1.38-.38,2.77-.64,4.18-.1.56-.23,1.12-.35,1.68s-.26,1.15-.4,1.73-.3,1.14-.45,1.72c-.25.89-.52,1.79-.82,2.68-.09.27-.17.54-.27.81s-.2.58-.3.88-.21.59-.32.88c-.33.89-.68,1.79-1.05,2.68-.25.59-.5,1.19-.77,1.79s-.56,1.21-.84,1.8l-.44.92-.46.91c-.22.43-.44.85-.67,1.29s-.32.61-.5.91l-.31.56c-.59,1.07-1.22,2.12-1.88,3.19-.18.3-.37.61-.57.91-.31.49-.64,1-1,1.5l-.63.94-.64.94-.67,1q-2,2.86-4.39,5.78c-.51.63-1,1.27-1.57,1.91l-.83,1q-2.52,2.93-5.38,5.9l-2,2-1,1c22.43-30.13,17.8-56,6-75.29-9.33-15.29-23.16-26.45-31.57-32.32l6.3-20.18a124.87,124.87,0,0,1,25.51,20l.57.58,1.14,1.21c.38.4.76.81,1.14,1.22l1.12,1.26c.56.63,1.11,1.29,1.67,1.95q1.38,1.65,2.71,3.39l1.05,1.41,1,1.44c.42.59.83,1.2,1.22,1.81.26.38.51.77.76,1.15a73.58,73.58,0,0,1,6.66,12.94A57.93,57.93,0,0,1,1580.23,257Z"/><path class="cls-41" d="M1580.23,257c-.16,1.38-.38,2.77-.64,4.18-.1.56-.23,1.12-.35,1.68s-.26,1.15-.4,1.73-.3,1.14-.45,1.72c-.25.89-.52,1.79-.82,2.68-.09.27-.17.54-.27.81s-.2.58-.3.88-.21.59-.32.88c-.33.89-.68,1.79-1.05,2.68-.25.59-.5,1.19-.77,1.79s-.56,1.21-.84,1.8l-.44.92-.46.91c-.22.43-.44.85-.67,1.29s-.32.61-.5.91l-.31.56c-.59,1.07-1.22,2.12-1.88,3.19-.18.3-.37.61-.57.91-.31.49-.64,1-1,1.5l-.63.94-.64.94-.67,1q-2,2.86-4.39,5.78c-.51.63-1,1.27-1.57,1.91l-.83,1q-2.52,2.93-5.38,5.9l-2,2-1,1c22.43-30.13,17.8-56,6-75.29-9.33-15.29-23.16-26.45-31.57-32.32l6.3-20.18a124.87,124.87,0,0,1,25.51,20l.57.58,1.14,1.21c.38.4.76.81,1.14,1.22l1.12,1.26c.56.63,1.11,1.29,1.67,1.95q1.38,1.65,2.71,3.39l1.05,1.41,1,1.44c.42.59.83,1.2,1.22,1.81.26.38.51.77.76,1.15a73.58,73.58,0,0,1,6.66,12.94A57.93,57.93,0,0,1,1580.23,257Z"/><path class="cls-50" d="M1580.23,257c-.15,1.38-.37,2.77-.64,4.18-.1.55-.22,1.12-.35,1.68s-.26,1.15-.4,1.73-.29,1.14-.45,1.72c-.25.89-.52,1.79-.82,2.68-.09.27-.17.54-.27.81s-.2.58-.3.88-.21.59-.32.88c-.33.89-.68,1.79-1.05,2.68-.25.59-.5,1.19-.77,1.79s-.56,1.21-.84,1.8l-.44.92-.46.91c-.22.43-.44.85-.67,1.29s-.32.61-.5.91l-.31.56c-.59,1.07-1.22,2.12-1.88,3.19-.18.3-.37.61-.57.91-.31.49-.64,1-1,1.5l-.63.94-.64.94-.67,1q-2,2.86-4.39,5.78c-.5.63-1,1.27-1.57,1.91l-.83,1q-2.5,2.92-5.38,5.9l-2,2-1,1v0c-10.91,10.71-25.31,21.86-44,33.37-9.25,5.69,12.62,22.17,1.16,28l-9.41-8.37,70.75-145.65.21.33a72.42,72.42,0,0,1,6.66,12.94A57.71,57.71,0,0,1,1580.23,257Z"/><path class="cls-2" d="M1500.15,351.48l102.93-168.72S1727.58,299.89,1500.15,351.48Z"/><path class="cls-41" d="M1603.08,182.76l-11.63,19.07c16.16,18.63,53.88,72.34-1.24,117.26C1687.55,262.24,1603.08,182.76,1603.08,182.76Z"/><path class="cls-47" d="M1396.83,455c0,54.11-41.77,65.68-90.39,65.65s-86.86-12.83-86.83-66.94,86.95-129,86.95-129S1396.86,400.93,1396.83,455Z"/><path class="cls-48" d="M1396,446c-.42,53.46-42,64.94-90.37,64.91-44.45,0-80.22-10.75-86-53.95,1.48,51.39,39.13,63.7,86.76,63.73,48.62,0,90.35-11.54,90.39-65.65A55.37,55.37,0,0,0,1396,446Z"/><polygon class="cls-51" points="1377.78 310.58 1253.77 324 1381.23 342.86 1377.78 310.58"/><ellipse class="cls-2" cx="1409.78" cy="329.82" rx="41.43" ry="40.06"/><path class="cls-50" d="M1450.51,322.55c0,.6,0,1.19,0,1.8,0,22.13-18.57,40.05-41.45,40-20.3,0-37.17-14.15-40.71-32.79,1,21.29,19.1,38.28,41.36,38.29,22.88,0,41.44-17.91,41.45-40A39,39,0,0,0,1450.51,322.55Z"/><path class="cls-2" d="M1481.31,325.36h149.06a0,0,0,0,1,0,0v29.4A60.41,60.41,0,0,1,1570,415.17h0a88.65,88.65,0,0,1-88.65-88.65v-1.16A0,0,0,0,1,1481.31,325.36Z"/><path class="cls-50" d="M1628.66,325.41v23.92c0,33.8-27.08,61.18-60.44,61.16h0c-37.15,0-68.95-23.2-82.11-56,11.92,35.32,44.95,60.72,83.85,60.75h0c33.36,0,60.42-27.36,60.44-61.16l0-28.62Z"/><path class="cls-46" d="M1397.81,321.69a6.22,6.22,0,0,1-8.88,0,6.42,6.42,0,0,1,0-9,6.22,6.22,0,0,1,8.88,0A6.42,6.42,0,0,1,1397.81,321.69Z"/><rect class="cls-48" x="1294.62" y="314.35" width="13.93" height="21.43" rx="6.96" ry="6.96"/><path class="cls-41" d="M1450.83,319.33l-73.71-21.79,3-10.59a38.32,38.32,0,0,1,47.61-26.44h0c20.35,6,32,27.61,26.1,48.23Z"/><path class="cls-7" d="M1450.61,321l-96.21-27.58a5.52,5.52,0,0,1-3.76-6.81h0a5.43,5.43,0,0,1,6.72-3.81l96.21,27.58Z"/><polygon class="cls-2" points="1522.59 374.65 1435.11 351.7 1435.13 325.29 1522.62 325.34 1522.59 374.65"/><path class="cls-52" d="M1303.4,418.84a55.29,55.29,0,0,1,2.23-6.22c2.59-5.32,6.56-9.12,12.41-10.54,5.56-1.35,10.47.12,14.77,3.82,3.63,3.12,5.52,7.28,6.61,11.87,1.42,6,.48,11.71-1.56,17.34a55,55,0,0,1-7.46,13.55c-2.89,4-6.69,7.05-10.12,10.49s-6.77,6.61-10.18,9.9c-2.2,2.12-4.42,4.23-6.71,6.41l-5.45-5.32q-4.58-4.48-9.14-9c-2-2-3.93-4.05-6-6a60.23,60.23,0,0,1-7.3-8,44.41,44.41,0,0,1-7.91-15.88,27.45,27.45,0,0,1,.35-15.23,22.49,22.49,0,0,1,4.88-9c5-5.17,12-7,18.79-4.08a19,19,0,0,1,10.08,10.67C1302.44,415.41,1302.91,417.32,1303.4,418.84Z"/><path class="cls-53" d="M1267.94,418.39a22.49,22.49,0,0,1,4.88-9c5-5.17,12-7,18.79-4.08A19,19,0,0,1,1301.69,416c.74,1.79,1.21,3.7,1.7,5.22a55.27,55.27,0,0,1,2.23-6.22c2.59-5.32,6.56-9.12,12.41-10.54,5.56-1.35,10.47.12,14.77,3.82,3.63,3.12,5.52,7.28,6.61,11.87a24.94,24.94,0,0,1,.64,4.63,25.26,25.26,0,0,0-.64-7c-1.09-4.59-3-8.74-6.61-11.87-4.3-3.69-9.21-5.16-14.77-3.82-5.85,1.41-9.82,5.22-12.41,10.54a55.27,55.27,0,0,0-2.23,6.22c-.49-1.52-1-3.43-1.7-5.22A19,19,0,0,0,1291.62,403c-6.8-3-13.82-1.09-18.79,4.08a22.49,22.49,0,0,0-4.88,9,26.48,26.48,0,0,0-1.22,9.35A26.37,26.37,0,0,1,1267.94,418.39Z"/><path class="cls-53" d="M1339.41,417.77c-1.09-4.59-3-8.74-6.61-11.87-.49-.42-1-.81-1.5-1.17a23.6,23.6,0,0,1,4.35,9.51c1.42,6,.48,11.71-1.56,17.34a55,55,0,0,1-7.46,13.55c-2.89,4-6.69,7.05-10.12,10.49s-6.77,6.61-10.18,9.9c-2.17,2.1-4.37,4.18-6.63,6.33l3.68,3.6c2.29-2.18,4.51-4.28,6.71-6.41,3.4-3.29,6.83-6.55,10.18-9.9s7.22-6.5,10.12-10.49a55,55,0,0,0,7.46-13.55C1339.89,429.47,1340.83,423.72,1339.41,417.77Z"/><path class="cls-2" d="M1736.29,325.47s-14.09,15.27-43.19,26.85c-20.64,8.23-48.82,14.61-84.88,12.4l5.24-39.33Z"/><path class="cls-41" d="M1736.43,325.47s-14.09,15.27-43.19,26.85c7.52-10.39,8.83-19.59,7.73-26.88Z"/></g></g></svg>