<svg xmlns="http://www.w3.org/2000/svg" viewBox="0 0 1932 936"><defs><style>.cls-1{fill:#fff;}.cls-2{font-size:40px;font-family:HelveticaRoundedLT-Black, Helvetica Rounded LT Black;}.cls-2,.cls-28{fill:#8ecbf8;}.cls-3{letter-spacing:-0.04em;}.cls-4{fill:#c3dcff;}.cls-5{fill:#568bc4;}.cls-6{fill:#b3d2ff;}.cls-7{fill:#6d8ab5;}.cls-8{fill:#d2e6ff;}.cls-9{fill:#8dc1ff;}.cls-10{fill:#82b5e8;}.cls-11{fill:#efceda;}.cls-12{fill:#f49db6;}.cls-13{fill:#f2f2f2;}.cls-14{fill:#e6e6e6;}.cls-15{fill:#95e6dc;}.cls-16{fill:#d6fff3;}.cls-17{fill:#e2a091;}.cls-18{fill:#333;}.cls-19{fill:#ffb5a1;}.cls-20{fill:#7dbcb3;}.cls-21,.cls-26{fill:#ff9a00;}.cls-22{fill:#ffec85;}.cls-23{fill:#ffd04d;}.cls-24{fill:#ffdf7b;}.cls-25{fill:#ffc950;}.cls-26{fill-rule:evenodd;}.cls-27{fill:#f0f1f1;}.cls-29{fill:#1a1a1a;}.cls-30{fill:#aae8f7;}.cls-31{fill:#e5a393;}.cls-32{fill:#2b1714;}.cls-33{fill:#4d4d4d;}.cls-34{fill:gray;}.cls-35{fill:none;stroke:#1a1a1a;stroke-linecap:round;stroke-miterlimit:10;stroke-width:7.16px;}.cls-36{fill:#37d9f4;}.cls-37{font-size:30px;fill:#205286;font-family:HelveticaRounded-Bold, Helvetica Rounded;font-weight:700;}.cls-38{letter-spacing:-0.07em;}.cls-39{letter-spacing:0.18em;}.cls-40{letter-spacing:0.18em;}.cls-41{letter-spacing:-0.01em;}.cls-42{letter-spacing:0.42em;}.cls-43{letter-spacing:0.42em;}.cls-44{letter-spacing:-0.09em;}.cls-45{letter-spacing:0.1em;}.cls-46{letter-spacing:0.1em;}.cls-47{letter-spacing:-0.06em;}.cls-48{letter-spacing:-0.01em;}.cls-49{letter-spacing:-0.02em;}.cls-50{letter-spacing:-0.01em;}.cls-51{letter-spacing:0em;}.cls-52{letter-spacing:-0.06em;}.cls-53{letter-spacing:0.05em;}.cls-54{letter-spacing:0.05em;}.cls-55{letter-spacing:0.16em;}.cls-56{letter-spacing:0.16em;}.cls-57{letter-spacing:0.01em;}.cls-58{letter-spacing:0.01em;}.cls-59{letter-spacing:-0.01em;}.cls-60{letter-spacing:0.32em;}.cls-61{letter-spacing:0.32em;}.cls-62{letter-spacing:0.04em;}.cls-63{letter-spacing:0.04em;}</style></defs><title>layout</title><g id="Layer_3" data-name="Layer 3"><rect class="cls-1" x="7" y="-5638" width="1925" height="8464"/></g><g id="Layer_1" data-name="Layer 1"><text class="cls-2" transform="translate(637.64 61.66)">CHOOSING<tspan class="cls-3" x="240.56" y="0"> </tspan><tspan x="252.44" y="0">THE RIGHT CLINIC</tspan></text><rect class="cls-4" x="633.69" y="599.45" width="156.69" height="187.08"/><rect class="cls-5" x="622.3" y="591.85" width="180.91" height="24.69" rx="12.35" ry="12.35"/><rect class="cls-6" x="693.52" y="638.38" width="38.94" height="90.69"/><polygon class="cls-7" points="724.86 638.38 693.04 638.38 693.04 645.98 724.86 645.98 724.86 729.55 732.46 729.55 732.46 645.98 732.46 638.38 724.86 638.38"/><polygon class="cls-8" points="707.14 729.07 703.6 729.07 693.52 701.35 693.52 691.63 707.14 729.07"/><polygon class="cls-8" points="717.96 729.07 711.32 729.07 693.52 681.58 693.52 664.4 693.7 664.33 717.96 729.07"/><rect class="cls-6" x="737.2" y="637.91" width="38.94" height="90.69"/><polygon class="cls-7" points="768.54 637.91 736.73 637.91 736.73 645.51 768.54 645.51 768.54 729.07 776.14 729.07 776.14 645.51 776.14 637.91 768.54 637.91"/><polygon class="cls-8" points="750.82 728.6 747.28 728.6 737.2 700.88 737.2 691.15 750.82 728.6"/><polygon class="cls-8" points="761.64 728.6 755 728.6 737.2 681.11 737.2 663.92 737.38 663.86 761.64 728.6"/><rect class="cls-6" x="652.21" y="638.38" width="38.94" height="90.69"/><polygon class="cls-7" points="683.55 638.38 651.74 638.38 651.74 645.98 683.55 645.98 683.55 729.55 691.14 729.55 691.14 645.98 691.14 638.38 683.55 638.38"/><polygon class="cls-8" points="665.83 729.07 662.29 729.07 652.21 701.35 652.21 691.63 665.83 729.07"/><polygon class="cls-8" points="676.65 729.07 670.01 729.07 652.21 681.58 652.21 664.4 652.39 664.33 676.65 729.07"/><rect class="cls-6" x="652.21" y="744.27" width="124.88" height="18.99"/><polygon class="cls-7" points="652.21 743.79 652.21 747.59 769.49 747.59 769.49 762.79 777.09 762.79 777.09 747.59 777.09 744.27 777.09 743.79 652.21 743.79"/><rect class="cls-4" x="308.92" y="599.45" width="156.69" height="187.08"/><rect class="cls-5" x="297.52" y="591.85" width="180.91" height="24.69" rx="12.35" ry="12.35"/><rect class="cls-9" x="464.66" y="527.28" width="171.88" height="259.25"/><rect class="cls-5" x="455.64" y="514.46" width="192.78" height="23.74" rx="11.87" ry="11.87"/><rect class="cls-10" x="464.18" y="538.2" width="171.88" height="7.6"/><rect class="cls-11" x="516.89" y="501.64" width="72.17" height="72.17" rx="8.55" ry="8.55"/><rect class="cls-12" x="516.89" y="505.91" width="72.17" height="72.17" rx="8.55" ry="8.55"/><path class="cls-1" d="M573.81,533.25h-8.5a3.58,3.58,0,0,1-3.58-3.58v-8.5a3.58,3.58,0,0,0-3.58-3.58H547.81a3.58,3.58,0,0,0-3.58,3.58v8.5a3.58,3.58,0,0,1-3.58,3.58h-8.5a3.58,3.58,0,0,0-3.58,3.58v10.36a3.58,3.58,0,0,0,3.58,3.58h8.5a3.58,3.58,0,0,1,3.58,3.58v8.5a3.58,3.58,0,0,0,3.58,3.58h10.36a3.58,3.58,0,0,0,3.58-3.58v-8.5a3.58,3.58,0,0,1,3.58-3.58h8.5a3.58,3.58,0,0,0,3.58-3.58V536.83A3.58,3.58,0,0,0,573.81,533.25Z"/><rect class="cls-6" x="368.74" y="638.38" width="38.94" height="90.69"/><polygon class="cls-7" points="400.08 638.38 368.27 638.38 368.27 645.98 400.08 645.98 400.08 729.55 407.68 729.55 407.68 645.98 407.68 638.38 400.08 638.38"/><polygon class="cls-8" points="382.36 729.07 378.82 729.07 368.74 701.35 368.74 691.63 382.36 729.07"/><polygon class="cls-8" points="393.18 729.07 386.55 729.07 368.74 681.58 368.74 664.4 368.92 664.33 393.18 729.07"/><rect class="cls-6" x="412.43" y="637.91" width="38.94" height="90.69"/><polygon class="cls-7" points="443.76 637.91 411.95 637.91 411.95 645.51 443.76 645.51 443.76 729.07 451.36 729.07 451.36 645.51 451.36 637.91 443.76 637.91"/><polygon class="cls-8" points="426.05 728.6 422.51 728.6 412.43 700.88 412.43 691.15 426.05 728.6"/><polygon class="cls-8" points="436.87 728.6 430.23 728.6 412.43 681.11 412.43 663.92 412.6 663.86 436.87 728.6"/><rect class="cls-6" x="327.44" y="638.38" width="38.94" height="90.69"/><polygon class="cls-7" points="358.77 638.38 326.96 638.38 326.96 645.98 358.77 645.98 358.77 729.55 366.37 729.55 366.37 645.98 366.37 638.38 358.77 638.38"/><polygon class="cls-8" points="341.05 729.07 337.52 729.07 327.44 701.35 327.44 691.63 341.05 729.07"/><polygon class="cls-8" points="351.87 729.07 345.24 729.07 327.44 681.58 327.44 664.4 327.61 664.33 351.87 729.07"/><rect class="cls-6" x="327.44" y="744.27" width="124.88" height="18.99"/><polygon class="cls-7" points="327.44 743.79 327.44 747.59 444.71 747.59 444.71 762.79 452.31 762.79 452.31 747.59 452.31 744.27 452.31 743.79 327.44 743.79"/><rect class="cls-6" x="473.68" y="615.45" width="47.04" height="39.26"/><polygon class="cls-7" points="515.94 615.12 473.68 615.12 473.68 619.39 515.94 619.39 515.94 654.53 520.69 654.53 520.69 619.39 520.69 615.12 515.94 615.12"/><polygon class="cls-8" points="488.75 654.72 483.8 654.72 473.68 642.89 473.68 637.11 488.75 654.72"/><polygon class="cls-8" points="499.46 654.72 494.51 654.72 473.68 630.38 473.68 624.61 499.46 654.72"/><rect class="cls-6" x="527.33" y="615.45" width="47.04" height="39.26"/><polygon class="cls-7" points="569.59 615.12 527.33 615.12 527.33 619.39 569.59 619.39 569.59 654.53 574.34 654.53 574.34 619.39 574.34 615.12 569.59 615.12"/><polygon class="cls-8" points="542.41 654.72 537.46 654.72 527.33 642.89 527.33 637.11 542.41 654.72"/><polygon class="cls-8" points="553.12 654.72 548.16 654.72 527.33 630.38 527.33 624.61 553.12 654.72"/><rect class="cls-6" x="580.04" y="615.45" width="47.04" height="39.26"/><polygon class="cls-7" points="622.3 615.12 580.04 615.12 580.04 619.39 622.3 619.39 622.3 654.53 627.04 654.53 627.04 619.39 627.04 615.12 622.3 615.12"/><polygon class="cls-8" points="595.11 654.72 590.16 654.72 580.04 642.89 580.04 637.11 595.11 654.72"/><polygon class="cls-8" points="605.82 654.72 600.87 654.72 580.04 630.38 580.04 624.61 605.82 654.72"/><rect class="cls-6" x="473.2" y="663.41" width="47.04" height="39.26"/><polygon class="cls-7" points="515.46 663.07 473.2 663.07 473.2 667.35 515.46 667.35 515.46 702.48 520.21 702.48 520.21 667.35 520.21 663.07 515.46 663.07"/><polygon class="cls-8" points="488.28 702.67 483.33 702.67 473.2 690.85 473.2 685.06 488.28 702.67"/><polygon class="cls-8" points="498.99 702.67 494.03 702.67 473.2 678.34 473.2 672.56 498.99 702.67"/><rect class="cls-6" x="526.86" y="663.41" width="47.04" height="39.26"/><polygon class="cls-7" points="569.12 663.07 526.86 663.07 526.86 667.35 569.12 667.35 569.12 702.48 573.87 702.48 573.87 667.35 573.87 663.07 569.12 663.07"/><polygon class="cls-8" points="541.93 702.67 536.98 702.67 526.86 690.85 526.86 685.06 541.93 702.67"/><polygon class="cls-8" points="552.64 702.67 547.69 702.67 526.86 678.34 526.86 672.56 552.64 702.67"/><rect class="cls-6" x="579.56" y="663.41" width="47.04" height="39.26"/><polygon class="cls-7" points="621.82 663.07 579.56 663.07 579.56 667.35 621.82 667.35 621.82 702.48 626.57 702.48 626.57 667.35 626.57 663.07 621.82 663.07"/><polygon class="cls-8" points="594.64 702.67 589.69 702.67 579.56 690.85 579.56 685.06 594.64 702.67"/><polygon class="cls-8" points="605.35 702.67 600.39 702.67 579.56 678.34 579.56 672.56 605.35 702.67"/><rect class="cls-6" x="472.73" y="707.57" width="47.04" height="39.26"/><polygon class="cls-7" points="514.99 707.23 472.73 707.23 472.73 711.51 514.99 711.51 514.99 746.64 519.74 746.64 519.74 711.51 519.74 707.23 514.99 707.23"/><polygon class="cls-8" points="487.81 746.83 482.85 746.83 472.73 735 472.73 729.22 487.81 746.83"/><polygon class="cls-8" points="498.51 746.83 493.56 746.83 472.73 722.5 472.73 716.72 498.51 746.83"/><rect class="cls-6" x="526.38" y="707.57" width="47.04" height="39.26"/><polygon class="cls-7" points="568.64 707.23 526.38 707.23 526.38 711.51 568.64 711.51 568.64 746.64 573.39 746.64 573.39 711.51 573.39 707.23 568.64 707.23"/><polygon class="cls-8" points="541.46 746.83 536.51 746.83 526.38 735 526.38 729.22 541.46 746.83"/><polygon class="cls-8" points="552.17 746.83 547.21 746.83 526.38 722.5 526.38 716.72 552.17 746.83"/><rect class="cls-6" x="579.09" y="707.57" width="47.04" height="39.26"/><polygon class="cls-7" points="621.35 707.23 579.09 707.23 579.09 711.51 621.35 711.51 621.35 746.64 626.1 746.64 626.1 711.51 626.1 707.23 621.35 707.23"/><polygon class="cls-8" points="594.16 746.83 589.21 746.83 579.09 735 579.09 729.22 594.16 746.83"/><polygon class="cls-8" points="604.87 746.83 599.92 746.83 579.09 722.5 579.09 716.72 604.87 746.83"/><circle class="cls-13" cx="557.18" cy="369" r="112.09"/><circle class="cls-14" cx="748.55" cy="242.55" r="96.55"/><circle class="cls-14" cx="943.45" cy="313.27" r="96.55"/><path class="cls-15" d="M556.19,362.4h0a72.24,72.24,0,0,1,72.24,72.24v12.45a0,0,0,0,1,0,0H486a0,0,0,0,1,0,0V432.64A70.24,70.24,0,0,1,556.19,362.4Z"/><path class="cls-16" d="M556.19,362.4h0A70.24,70.24,0,0,0,486,432.64v4.45a70.24,70.24,0,0,1,70.24-70.24h0a72.24,72.24,0,0,1,72.24,72.24v-4.45A72.24,72.24,0,0,0,556.19,362.4Z"/><path class="cls-17" d="M546,348.71h19.74a0,0,0,0,1,0,0v21.59a7.86,7.86,0,0,1-7.86,7.86h-4a7.86,7.86,0,0,1-7.86-7.86V348.71A0,0,0,0,1,546,348.71Z"/><path class="cls-18" d="M543.5,270.31h22.13a29.85,29.85,0,0,1,29.85,29.85V313.8a0,0,0,0,1,0,0H513.65a0,0,0,0,1,0,0V300.16A29.85,29.85,0,0,1,543.5,270.31Z"/><circle class="cls-19" cx="588.61" cy="318.95" r="9.73"/><circle class="cls-19" cx="520.52" cy="320.38" r="9.73"/><rect class="cls-19" x="519.66" y="266.31" width="69.52" height="96.99" rx="34.76" ry="34.76"/><path class="cls-17" d="M554.42,360.33h0a34.76,34.76,0,0,1-34.76-34.76v3a34.76,34.76,0,0,0,34.76,34.76h0a34.76,34.76,0,0,0,34.76-34.76v-3A34.76,34.76,0,0,1,554.42,360.33Z"/><path class="cls-15" d="M595.49,264.7v34.51H513.37V264.7a12.7,12.7,0,0,1,12.7-12.7h56.71A12.71,12.71,0,0,1,595.49,264.7Z"/><path class="cls-16" d="M582.78,252H526.07a12.7,12.7,0,0,0-12.7,12.7v3a12.7,12.7,0,0,1,12.7-12.7h56.71a12.71,12.71,0,0,1,12.7,12.7v-3A12.71,12.71,0,0,0,582.78,252Z"/><circle class="cls-18" cx="539.4" cy="317.81" r="4.01"/><circle class="cls-18" cx="567.73" cy="318.09" r="4.01"/><path class="cls-18" d="M561.24,332.11v8.49a7,7,0,1,1-13.93,0v-8.49Z"/><path class="cls-12" d="M561.24,339.91v.68a7,7,0,1,1-13.93,0v-.68a9.72,9.72,0,0,1,13.93,0Z"/><rect class="cls-20" x="513.37" y="296.53" width="82.12" height="2.69"/><path class="cls-1" d="M564.14,270.27h-4a1.67,1.67,0,0,1-1.67-1.68v-4a1.67,1.67,0,0,0-1.67-1.68H552a1.67,1.67,0,0,0-1.68,1.67v4a1.67,1.67,0,0,1-1.68,1.67h-4a1.67,1.67,0,0,0-1.68,1.67v4.85a1.67,1.67,0,0,0,1.67,1.68h4a1.67,1.67,0,0,1,1.67,1.68v4a1.67,1.67,0,0,0,1.67,1.68h4.85a1.67,1.67,0,0,0,1.68-1.67v-4a1.67,1.67,0,0,1,1.68-1.67h4a1.67,1.67,0,0,0,1.68-1.67v-4.85A1.67,1.67,0,0,0,564.14,270.27Z"/><circle class="cls-21" cx="950.32" cy="306.46" r="61.93" transform="translate(-38.78 169.68) rotate(-10)"/><circle class="cls-22" cx="943.64" cy="307.63" r="61.93" transform="translate(-39.08 168.53) rotate(-10)"/><circle class="cls-23" cx="942.79" cy="307.78" r="61.93" transform="translate(-39.12 168.39) rotate(-10)"/><circle class="cls-24" cx="942.79" cy="307.78" r="48.89" transform="translate(-39.12 168.39) rotate(-10)"/><path class="cls-25" d="M894.64,316.27a49.13,49.13,0,0,0,2.48,9l52.07,31c.69-.09,1.39-.2,2.08-.32a48.66,48.66,0,0,0,26.86-14.37L899,286.12A48.67,48.67,0,0,0,894.64,316.27ZM915.85,267l74.5,52.16a48.57,48.57,0,0,0,1.24-14.32l-62.7-43.9A48.55,48.55,0,0,0,915.85,267Zm-13.92,14L982,337a49.07,49.07,0,0,0,2.84-4.26L905,276.81A49.2,49.2,0,0,0,901.93,280.94Z"/><path class="cls-26" d="M896.33,316a48.88,48.88,0,0,1,38.81-56.47l-.85.14a48.89,48.89,0,0,0,17,96.29l.84-.16A48.88,48.88,0,0,1,896.33,316Z"/><path class="cls-21" d="M940.68,311.55c-13.12-3.78-20-7.32-20-17.08,0-11.57,10.53-17.16,20-17.16v-1c0-2.36,1.1-3.23,2.83-3.23s2.83.87,2.83,3.23v1c5.66,0,19.17,3.78,19.17,12,0,3.23-2.44,5.9-6.6,5.9-4,0-5.74-5.67-12.57-7.16v10.86c13.83,3.46,20.43,8.42,20.43,18.34,0,11.41-10.14,16.69-20.43,17.08v4.17c0,2.36-1.1,3.23-2.83,3.23s-2.83-.87-2.83-3.23V334.3c-13.12,0-20.59-7.87-20.59-13.78a6.18,6.18,0,0,1,6.44-6.38c5.19,0,6.21,7.79,14.14,9.6Zm0-23.85c-3.3.24-6.6,1.57-6.6,4.41,0,3.23,3.38,5,6.6,5.43Zm5.66,36.21c3.85-.32,6.6-1.65,6.6-5,0-3.86-3.14-5.2-6.6-5.83Z"/><rect class="cls-5" x="689.1" y="150.55" width="116.68" height="153.26" rx="8.06" ry="8.06"/><rect class="cls-27" x="696.65" y="158.95" width="101.58" height="135.67" rx="6.74" ry="6.74"/><rect class="cls-28" x="704.02" y="215" width="87.12" height="2.61"/><rect class="cls-28" x="704.02" y="220.67" width="87.12" height="2.61"/><rect class="cls-28" x="704.02" y="226.35" width="87.12" height="2.61"/><rect class="cls-28" x="704.02" y="232.03" width="87.12" height="2.61"/><rect class="cls-28" x="704.02" y="237.71" width="87.12" height="2.61"/><rect class="cls-28" x="704.02" y="243.38" width="87.12" height="2.6"/><rect class="cls-28" x="704.02" y="257.26" width="87.12" height="2.6"/><rect class="cls-28" x="704.02" y="262.93" width="87.12" height="2.61"/><rect class="cls-28" x="704.02" y="268.61" width="87.12" height="2.61"/><rect class="cls-28" x="704.02" y="274.29" width="87.12" height="2.6"/><path class="cls-5" d="M769.64,147H756.76v-6.22A3.78,3.78,0,0,0,753,137H741.9a3.78,3.78,0,0,0-3.78,3.78V147H725.24a3.78,3.78,0,0,0-3.78,3.78v8.43a3.78,3.78,0,0,0,3.78,3.78h44.4a3.78,3.78,0,0,0,3.78-3.78v-8.43A3.78,3.78,0,0,0,769.64,147Zm-22.2.9a3.68,3.68,0,1,1,3.68-3.67A3.67,3.67,0,0,1,747.44,147.89Z"/><path class="cls-12" d="M761.82,176.55h-6.28a2.65,2.65,0,0,1-2.64-2.65v-6.28a2.65,2.65,0,0,0-2.64-2.65h-7.66a2.65,2.65,0,0,0-2.65,2.64v6.28a2.65,2.65,0,0,1-2.65,2.64H731a2.65,2.65,0,0,0-2.65,2.64v7.66a2.65,2.65,0,0,0,2.64,2.65h6.28a2.65,2.65,0,0,1,2.64,2.65v6.28a2.65,2.65,0,0,0,2.64,2.65h7.66a2.65,2.65,0,0,0,2.65-2.64v-6.28a2.65,2.65,0,0,1,2.65-2.64h6.28a2.65,2.65,0,0,0,2.65-2.64V179.2A2.65,2.65,0,0,0,761.82,176.55Z"/><path class="cls-14" d="M956.27,841.59H726.36a6.14,6.14,0,1,1,0-12.27H956.27a6.14,6.14,0,0,1,0,12.27Z"/><path class="cls-14" d="M808.73,793.32H308.13c-7.38,0-13.36-2.75-13.36-6.14s6-6.14,13.36-6.14h500.6c7.38,0,13.36,2.75,13.36,6.14S816.11,793.32,808.73,793.32Z"/><rect class="cls-29" x="751.16" y="477.63" width="178.65" height="237.84"/><path class="cls-19" d="M765.18,661.9l-55.87,49a22.88,22.88,0,0,0-2.08,32.33h0a22.39,22.39,0,0,0,31.56,2.07l56.31-49.35A22.59,22.59,0,0,0,797.15,664h0A22.68,22.68,0,0,0,765.18,661.9Z"/><path class="cls-30" d="M786.78,628.92h0a0,0,0,0,1,0,0v83.87a0,0,0,0,1,0,0H737.11a0,0,0,0,1,0,0v-34.2A49.66,49.66,0,0,1,786.78,628.92Z" transform="translate(437.51 -291.1) rotate(30)"/><path class="cls-30" d="M840.2,622.95h0a79.46,79.46,0,0,1,79.46,79.46V842a0,0,0,0,1,0,0H760.74a0,0,0,0,1,0,0V702.41A79.46,79.46,0,0,1,840.2,622.95Z"/><path class="cls-19" d="M961.33,586l-55.87,49a22.88,22.88,0,0,0-2.08,32.33h0a22.39,22.39,0,0,0,31.56,2.07L991.24,620a22.59,22.59,0,0,0,2.05-31.92h0A22.68,22.68,0,0,0,961.33,586Z"/><path class="cls-19" d="M914.36,552.11l41.53,61.6a22.88,22.88,0,0,0,31.81,6.14h0a22.39,22.39,0,0,0,6-31l-41.85-62.08a22.59,22.59,0,0,0-31.41-6.06h0A22.68,22.68,0,0,0,914.36,552.11Z"/><rect class="cls-31" x="820.12" y="586.54" width="42.11" height="76.51" rx="18.97" ry="18.97"/><ellipse class="cls-31" cx="777.96" cy="542.85" rx="16.59" ry="16.62"/><ellipse class="cls-31" cx="905.56" cy="542.85" rx="16.59" ry="16.62"/><path class="cls-19" d="M905.18,490.42v57.34a64,64,0,1,1-128,0V490.42Z"/><ellipse class="cls-32" cx="810.5" cy="537.1" rx="8.29" ry="8.31"/><ellipse class="cls-32" cx="869.2" cy="537.1" rx="8.29" ry="8.31"/><rect class="cls-31" x="777.17" y="492.98" width="128.02" height="25.57"/><path class="cls-18" d="M840.54,392h.23a89.38,89.38,0,0,1,89.38,89.38v26.75a0,0,0,0,1,0,0h-179a0,0,0,0,1,0,0V481.34A89.38,89.38,0,0,1,840.54,392Z"/><path class="cls-33" d="M844.83,392.07c-1.38-.06-2.77-.11-4.17-.11h0a89.59,89.59,0,0,0-89.5,89.68v26.44h8.35V481.64A89.6,89.6,0,0,1,844.83,392.07Z"/><ellipse class="cls-34" cx="773.31" cy="475.08" rx="5.1" ry="5.11"/><path class="cls-34" d="M774.59,468h-.21a4.47,4.47,0,0,1-4.26-4.67c1.37-30.23,26.67-45.24,27.74-45.87a4.47,4.47,0,0,1,4.48,7.74h0c-.22.13-22.16,13.29-23.31,38.53A4.47,4.47,0,0,1,774.59,468Z"/><line class="cls-35" x1="830.18" y1="575.29" x2="853.09" y2="575.29"/><polyline class="cls-30" points="884.27 644.82 921.91 613.73 957.09 663.64 917.82 708.64"/><rect class="cls-5" x="793.53" y="679.73" width="57.34" height="118.44" rx="17.39" ry="17.39" transform="translate(162.09 -147.79) rotate(11.39)"/><rect class="cls-9" x="789.36" y="679.14" width="57.34" height="118.44" rx="17.39" ry="17.39" transform="translate(161.89 -146.98) rotate(11.39)"/><circle class="cls-5" cx="810" cy="688" r="3.29" transform="translate(-177.22 294.51) rotate(-18.61)"/><rect class="cls-5" x="815.37" y="687.87" width="11.28" height="3.76" rx="1.85" ry="1.85" transform="translate(152.35 -148.52) rotate(11.39)"/><path class="cls-19" d="M719.57,753.7,790.42,776a23,23,0,0,0,28.76-15h0a22.31,22.31,0,0,0-14.56-28l-71.41-22.46a22.67,22.67,0,0,0-28.39,14.82h0A22.6,22.6,0,0,0,719.57,753.7Z"/><polygon class="cls-36" points="782 677.54 758 716.82 762.36 719.27 782 677.54"/><text class="cls-37" transform="translate(1077 186)"><tspan class="cls-38">Y</tspan><tspan x="16.14" y="0">ou</tspan><tspan class="cls-39" x="52.83" y="0"> </tspan><tspan x="67.52" y="0">don’t</tspan><tspan class="cls-40" x="143.12" y="0"> </tspan><tspan x="157.81" y="0">need</tspan><tspan class="cls-39" x="231.19" y="0"> </tspan><tspan x="245.88" y="0">to</tspan><tspan class="cls-40" x="275.34" y="0"> </tspan><tspan x="290.03" y="0">be</tspan><tspan class="cls-39" x="326.72" y="0"> </tspan><tspan class="cls-41" x="341.41" y="0">r</tspan><tspan x="353.26" y="0">efer</tspan><tspan class="cls-41" x="413.29" y="0">r</tspan><tspan x="425.14" y="0">ed</tspan><tspan class="cls-39" x="461.83" y="0"> </tspan><tspan x="476.52" y="0">to</tspan><tspan class="cls-40" x="505.98" y="0"> </tspan><tspan x="520.67" y="0">a </tspan><tspan x="0" y="40">clinic</tspan><tspan class="cls-42" x="75.57" y="40"> </tspan><tspan x="97.29" y="40">by</tspan><tspan class="cls-42" x="130.62" y="40"> </tspan><tspan x="152.34" y="40">another</tspan><tspan class="cls-43" x="267.35" y="40"> </tspan><tspan x="289.07" y="40">docto</tspan><tspan class="cls-44" x="371.33" y="40">r</tspan><tspan x="380.78" y="40">.</tspan><tspan class="cls-42" x="389.96" y="40"> </tspan><tspan class="cls-38" x="411.68" y="40">Y</tspan><tspan x="427.82" y="40">ou</tspan><tspan class="cls-42" x="464.51" y="40"> </tspan><tspan x="486.23" y="40">can </tspan><tspan x="0" y="80">start</tspan><tspan class="cls-45" x="68.85" y="80"> </tspan><tspan x="80.97" y="80">the</tspan><tspan class="cls-46" x="128.76" y="80"> </tspan><tspan x="140.89" y="80">sea</tspan><tspan class="cls-41" x="193.69" y="80">r</tspan><tspan x="205.54" y="80">ch</tspan><tspan class="cls-45" x="239.97" y="80"> </tspan><tspan x="252.1" y="80">for</tspan><tspan class="cls-46" x="293.77" y="80"> </tspan><tspan x="305.89" y="80">an</tspan><tspan class="cls-45" x="342.55" y="80"> </tspan><tspan x="354.67" y="80">IVF</tspan><tspan class="cls-46" x="402.49" y="80"> </tspan><tspan x="414.62" y="80">clinic</tspan><tspan class="cls-45" x="490.19" y="80"> </tspan><tspan x="502.31" y="80">on </tspan><tspan class="cls-41" x="0" y="120">y</tspan><tspan x="14.64" y="120">our</tspan><tspan class="cls-47" x="63.54" y="120"> </tspan><tspan class="cls-48" x="71.06" y="120">o</tspan><tspan x="89.24" y="120">wn.</tspan><tspan class="cls-47" x="140.09" y="120"> </tspan><tspan class="cls-49" x="147.6" y="120">T</tspan><tspan x="167.1" y="120">he</tspan><tspan class="cls-50" x="203.79" y="120">r</tspan><tspan class="cls-51" x="215.64" y="120">e</tspan><tspan class="cls-52" x="234" y="120"> </tspan><tspan class="cls-51" x="241.52" y="120">a</tspan><tspan class="cls-50" x="259.85" y="120">r</tspan><tspan x="271.7" y="120">e</tspan><tspan class="cls-47" x="290.06" y="120"> </tspan><tspan x="297.57" y="120">a</tspan><tspan class="cls-47" x="315.9" y="120"> </tspan><tspan x="323.42" y="120">number</tspan><tspan class="cls-47" x="436.76" y="120"> </tspan><tspan x="444.27" y="120">of</tspan><tspan class="cls-47" x="473.73" y="120"> </tspan><tspan x="481.25" y="120">fac</tspan><tspan x="526.79" y="120">-</tspan><tspan x="0" y="160">tors to keep in mind. </tspan></text><text class="cls-37" transform="translate(1080 429)">1.<tspan class="cls-53" x="21.39" y="0"> </tspan><tspan class="cls-49" x="32.12" y="0">T</tspan><tspan x="51.62" y="0">he</tspan><tspan class="cls-53" x="88.31" y="0"> </tspan><tspan x="99.04" y="0">experience</tspan><tspan class="cls-53" x="260.23" y="0"> </tspan><tspan x="270.96" y="0">of</tspan><tspan class="cls-54" x="300.42" y="0"> </tspan><tspan x="311.14" y="0">the</tspan><tspan class="cls-53" x="358.93" y="0"> </tspan><tspan x="369.66" y="0">team.</tspan><tspan class="cls-53" x="454.41" y="0"> </tspan><tspan x="465.14" y="0">H</tspan><tspan class="cls-48" x="488.48" y="0">o</tspan><tspan x="506.66" y="0">w </tspan><tspan x="0" y="40">long</tspan><tspan class="cls-55" x="63.36" y="40"> </tspan><tspan x="77.46" y="40">have</tspan><tspan class="cls-55" x="147.48" y="40"> </tspan><tspan x="161.58" y="40">the</tspan><tspan class="cls-56" x="209.37" y="40"> </tspan><tspan x="223.47" y="40">doctors</tspan><tspan class="cls-55" x="334.04" y="40"> </tspan><tspan x="348.14" y="40">and</tspan><tspan class="cls-55" x="403.13" y="40"> </tspan><tspan x="417.23" y="40">support </tspan><tspan x="0" y="80">staff been a</tspan><tspan class="cls-50" x="177.81" y="80">r</tspan><tspan x="189.66" y="80">ound?</tspan><tspan x="0" y="120"> </tspan><tspan x="0" y="160">2.</tspan><tspan class="cls-57" x="26.97" y="160"> </tspan><tspan x="36.47" y="160">Which</tspan><tspan class="cls-58" x="125.36" y="160"> </tspan><tspan x="134.86" y="160">p</tspan><tspan class="cls-50" x="153.19" y="160">r</tspan><tspan x="165.04" y="160">ocedu</tspan><tspan class="cls-59" x="254.53" y="160">r</tspan><tspan x="266.38" y="160">es</tspan><tspan class="cls-57" x="300.85" y="160"> </tspan><tspan x="310.35" y="160">do</tspan><tspan class="cls-57" x="347.04" y="160"> </tspan><tspan x="356.54" y="160">they</tspan><tspan class="cls-58" x="419.33" y="160"> </tspan><tspan x="428.82" y="160">do</tspan><tspan class="cls-57" x="465.51" y="160"> </tspan><tspan x="475.01" y="160">and </tspan><tspan x="0" y="200">h</tspan><tspan class="cls-48" x="18.33" y="200">o</tspan><tspan x="36.51" y="200">w often? </tspan><tspan x="0" y="280">3.</tspan><tspan class="cls-60" x="26.97" y="280"> </tspan><tspan x="45.73" y="280">A</tspan><tspan class="cls-50" x="65.74" y="280">r</tspan><tspan x="77.59" y="280">e</tspan><tspan class="cls-61" x="95.95" y="280"> </tspan><tspan x="114.71" y="280">the</tspan><tspan class="cls-59" x="162.5" y="280">r</tspan><tspan x="174.35" y="280">e</tspan><tspan class="cls-60" x="192.71" y="280"> </tspan><tspan x="211.46" y="280">upper</tspan><tspan class="cls-61" x="297.03" y="280"> </tspan><tspan x="315.78" y="280">age</tspan><tspan class="cls-60" x="370.8" y="280"> </tspan><tspan x="389.56" y="280">limits</tspan><tspan class="cls-60" x="469.57" y="280"> </tspan><tspan x="488.33" y="280">for </tspan><tspan x="0" y="320">t</tspan><tspan class="cls-50" x="11.1" y="320">r</tspan><tspan x="22.95" y="320">eatment? </tspan><tspan x="0" y="400">4.H</tspan><tspan class="cls-48" x="50.85" y="400">o</tspan><tspan x="69.03" y="400">w</tspan><tspan class="cls-62" x="92.37" y="400"> </tspan><tspan x="102.82" y="400">much</tspan><tspan class="cls-62" x="183.37" y="400"> </tspan><tspan x="193.83" y="400">does</tspan><tspan class="cls-62" x="264.99" y="400"> </tspan><tspan x="275.44" y="400">t</tspan><tspan class="cls-59" x="286.54" y="400">r</tspan><tspan x="298.39" y="400">eatment</tspan><tspan class="cls-63" x="421.75" y="400"> </tspan><tspan x="432.2" y="400">gener</tspan><tspan x="517.79" y="400">-</tspan><tspan x="0" y="440">ally cost?</tspan></text></g></svg>