<svg xmlns="http://www.w3.org/2000/svg" viewBox="0 0 1932 594"><defs><style>.cls-1{fill:#fff;}.cls-2{font-size:40px;}.cls-2,.cls-5{fill:#8ecbf8;}.cls-2,.cls-8{font-family:HelveticaRoundedLT-Black, Helvetica Rounded LT Black;}.cls-3{fill:#568bc4;}.cls-4{fill:#f0f1f1;}.cls-6,.cls-8{fill:#f49db6;}.cls-7{fill:none;stroke:#333;stroke-linecap:round;stroke-linejoin:round;stroke-width:2px;}.cls-8{font-size:26.91px;}.cls-9{font-size:30px;fill:#205286;font-family:HelveticaRounded-Bold, Helvetica Rounded;font-weight:700;}.cls-10{letter-spacing:0.02em;}.cls-11{letter-spacing:0.02em;}.cls-12{letter-spacing:-0.01em;}.cls-13{letter-spacing:-0.07em;}.cls-14{letter-spacing:0em;}.cls-15{letter-spacing:0.02em;}.cls-16{letter-spacing:0.16em;}.cls-17{letter-spacing:0em;}.cls-18{letter-spacing:0.16em;}.cls-19{letter-spacing:0.16em;}.cls-20{letter-spacing:0.12em;}.cls-21{letter-spacing:0.12em;}.cls-22{letter-spacing:-0.02em;}.cls-23{letter-spacing:-0.01em;}</style></defs><title>layout</title><g id="Layer_3" data-name="Layer 3"><rect class="cls-1" x="7" y="-7549" width="1925" height="8464"/></g><g id="Layer_1" data-name="Layer 1"><text class="cls-2" transform="translate(660.22 169.22)">CONSENT </text><rect class="cls-3" x="308.35" y="81.42" width="313.65" height="411.98" rx="21.68" ry="21.68"/><rect class="cls-4" x="328.64" y="104.01" width="273.08" height="364.71" rx="18.13" ry="18.13"/><rect class="cls-5" x="348.44" y="236.67" width="234.19" height="7.01"/><rect class="cls-5" x="348.44" y="251.92" width="234.19" height="7.01"/><rect class="cls-5" x="348.44" y="267.19" width="234.19" height="7"/><rect class="cls-5" x="348.44" y="282.45" width="234.19" height="7.01"/><rect class="cls-5" x="348.44" y="297.71" width="234.19" height="7.01"/><rect class="cls-5" x="348.44" y="312.98" width="234.19" height="7"/><path class="cls-3" d="M524.85,71.86H490.22V55.15A10.15,10.15,0,0,0,480.07,45H450.28a10.15,10.15,0,0,0-10.15,10.15V71.86H405.49A10.16,10.16,0,0,0,395.34,82v22.67a10.16,10.16,0,0,0,10.15,10.15H524.85A10.15,10.15,0,0,0,535,104.68V82A10.15,10.15,0,0,0,524.85,71.86Zm-59.68,2.42a9.88,9.88,0,1,1,9.88-9.88A9.88,9.88,0,0,1,465.17,74.28Z"/><path class="cls-6" d="M404.7,159.14h-10.3a4.33,4.33,0,0,1-4.33-4.34v-10.3a4.33,4.33,0,0,0-4.33-4.34H373.2a4.33,4.33,0,0,0-4.34,4.33v10.3a4.33,4.33,0,0,1-4.34,4.33h-10.3a4.33,4.33,0,0,0-4.34,4.33V176a4.33,4.33,0,0,0,4.33,4.34h10.3a4.33,4.33,0,0,1,4.33,4.34V195a4.33,4.33,0,0,0,4.33,4.34h12.55a4.33,4.33,0,0,0,4.34-4.33v-10.3a4.33,4.33,0,0,1,4.34-4.33h10.3A4.33,4.33,0,0,0,409,176V163.48A4.33,4.33,0,0,0,404.7,159.14Z"/><path class="cls-7" d="M394,389.48c8.07-15,22.34-28.77,40.08-30.15,1.51-.12,3.19-.09,4.34.89A5.79,5.79,0,0,1,440,363.4c1.76,7.36.9,15.08-.26,22.56a290.24,290.24,0,0,1-19.53,68.54,283.81,283.81,0,0,1,19.4-66.44c3.86-8.92,8.62-18.29,16.21-24.62,2.9,14.64-8.92,28.79-7.62,43.65,1.68.13,2.81-1.62,3.54-3.13,7.89-16.51,17-37.64,17.72-56a124.27,124.27,0,0,0-7.27,32.36c1.44,1.59,3.89-.48,4.91-2.36a125.35,125.35,0,0,0,8.1-18.21,39.28,39.28,0,0,0-5,16.73,21.86,21.86,0,0,0,10.16-15.82l-1.5,9.61a12.77,12.77,0,0,0,7.65-10.2l-.24,9a17,17,0,0,0,9.95-7.72c-2.23,3.83-4.53,8.92-4.22,13.37,7.42.82,18-5.57,24.06-9.17A85.45,85.45,0,0,0,537.09,348"/><path class="cls-7" d="M439.75,431.59a377,377,0,0,1,119.12-61.71"/><text class="cls-8" transform="translate(425.55 165.81)"><tspan xml:space="preserve">CONSENT  </tspan><tspan x="22.67" y="32.97">FOR IVF</tspan></text><text class="cls-9" transform="translate(663 230)">IVF<tspan class="cls-10" x="47.82" y="0"> </tspan><tspan x="57.61" y="0">is</tspan><tspan class="cls-11" x="82.06" y="0"> </tspan><tspan x="91.86" y="0">an</tspan><tspan class="cls-10" x="128.52" y="0"> </tspan><tspan x="138.31" y="0">involved</tspan><tspan class="cls-10" x="258.37" y="0"> </tspan><tspan x="268.16" y="0">p</tspan><tspan class="cls-12" x="286.49" y="0">r</tspan><tspan x="298.34" y="0">ocess.</tspan><tspan class="cls-11" x="392.57" y="0"> </tspan><tspan class="cls-13" x="402.37" y="0">Y</tspan><tspan x="418.51" y="0">ou’ll</tspan><tspan class="cls-10" x="481.36" y="0"> </tspan><tspan x="491.15" y="0">need</tspan><tspan class="cls-10" x="564.53" y="0"> </tspan><tspan x="574.32" y="0">to</tspan><tspan class="cls-11" x="603.78" y="0"> </tspan><tspan x="613.58" y="0">sign</tspan><tspan class="cls-10" x="674.68" y="0"> </tspan><tspan x="684.48" y="0">a</tspan><tspan class="cls-11" x="702.81" y="0"> </tspan><tspan class="cls-14" x="712.6" y="0">bit</tspan><tspan class="cls-15" x="750.37" y="0"> </tspan><tspan x="760.17" y="0">of</tspan><tspan class="cls-11" x="789.63" y="0"> </tspan><tspan x="799.42" y="0">paperwork </tspan><tspan x="0" y="40">at</tspan><tspan class="cls-16" x="29.43" y="40"> </tspan><tspan x="43.41" y="40">this</tspan><tspan class="cls-16" x="97.29" y="40"> </tspan><tspan x="111.26" y="40">point.</tspan><tspan class="cls-16" x="194.9" y="40"> </tspan><tspan class="cls-13" x="208.88" y="40">Y</tspan><tspan x="225.02" y="40">ou</tspan><tspan class="cls-16" x="261.71" y="40"> </tspan><tspan x="275.68" y="40">(and</tspan><tspan class="cls-16" x="340.66" y="40"> </tspan><tspan class="cls-12" x="354.64" y="40">y</tspan><tspan x="369.28" y="40">our</tspan><tspan class="cls-16" x="418.18" y="40"> </tspan><tspan x="432.15" y="40">partner)</tspan><tspan class="cls-16" x="551.01" y="40"> </tspan><tspan x="564.99" y="40">will</tspan><tspan class="cls-16" x="613.35" y="40"> </tspan><tspan x="627.33" y="40">join</tspan><tspan class="cls-16" x="680.69" y="40"> </tspan><tspan class="cls-14" x="694.67" y="40">a</tspan><tspan class="cls-16" x="713" y="40"> </tspan><tspan class="cls-17" x="726.98" y="40">member</tspan><tspan class="cls-18" x="849.8" y="40"> </tspan><tspan x="863.77" y="40">of</tspan><tspan class="cls-19" x="893.23" y="40"> </tspan><tspan x="907.21" y="40">the </tspan><tspan x="0" y="80">nursing</tspan><tspan class="cls-20" x="109.98" y="80"> </tspan><tspan x="122.81" y="80">team</tspan><tspan class="cls-20" x="198.38" y="80"> </tspan><tspan x="211.22" y="80">to</tspan><tspan class="cls-21" x="240.68" y="80"> </tspan><tspan x="253.51" y="80">sign</tspan><tspan class="cls-20" x="314.62" y="80"> </tspan><tspan x="327.46" y="80">a</tspan><tspan class="cls-20" x="345.79" y="80"> </tspan><tspan x="358.62" y="80">series</tspan><tspan class="cls-20" x="448.11" y="80"> </tspan><tspan x="460.95" y="80">of</tspan><tspan class="cls-20" x="490.41" y="80"> </tspan><tspan x="503.24" y="80">consent</tspan><tspan class="cls-21" x="619.94" y="80"> </tspan><tspan x="632.78" y="80">forms.</tspan><tspan class="cls-20" x="727.52" y="80"> </tspan><tspan class="cls-22" x="740.35" y="80">T</tspan><tspan x="759.85" y="80">hey’ll</tspan><tspan class="cls-21" x="837.7" y="80"> </tspan><tspan x="850.54" y="80">explain </tspan><tspan x="0" y="120">what each form means as well as h</tspan><tspan class="cls-23" x="520.43" y="120">o</tspan><tspan x="538.61" y="120">w to take </tspan><tspan class="cls-12" x="682.85" y="120">y</tspan><tspan class="cls-17" x="697.49" y="120">our medication. </tspan><tspan x="0" y="200">Once everything is signed, </tspan><tspan class="cls-12" x="398.79" y="200">y</tspan><tspan x="413.43" y="200">our IVF cycle is </tspan><tspan class="cls-12" x="645.23" y="200">r</tspan><tspan x="657.08" y="200">eady to start. </tspan></text></g></svg>