<svg xmlns="http://www.w3.org/2000/svg" viewBox="0 0 1920 804"><defs><style>.cls-1{fill:#fff;}.cls-2{font-size:30px;fill:#205286;font-family:HelveticaRounded-Bold, Helvetica Rounded;font-weight:700;}.cls-3{letter-spacing:-0.01em;}.cls-4{letter-spacing:-0.01em;}.cls-5{letter-spacing:0.06em;}.cls-6{letter-spacing:0.06em;}.cls-7{letter-spacing:-0.02em;}.cls-8{letter-spacing:0.03em;}.cls-9{letter-spacing:0.03em;}.cls-10{letter-spacing:-0.04em;}.cls-11{letter-spacing:-0.09em;}.cls-12{letter-spacing:-0.02em;}.cls-13{letter-spacing:0.28em;}.cls-14{letter-spacing:0.28em;}.cls-15{letter-spacing:-0.01em;}.cls-16{letter-spacing:-0.03em;}.cls-17{letter-spacing:-0.06em;}.cls-18{letter-spacing:-0.06em;}.cls-19{letter-spacing:-0.01em;}.cls-20{letter-spacing:-0.03em;}.cls-21{letter-spacing:0em;}.cls-22{letter-spacing:-0.06em;}.cls-23{letter-spacing:-0.02em;}.cls-24{letter-spacing:0.15em;}.cls-25{letter-spacing:0.15em;}.cls-26{letter-spacing:-0.01em;}.cls-27{letter-spacing:-0.03em;}.cls-28{letter-spacing:-0.03em;}.cls-29{letter-spacing:0em;}.cls-30{font-size:54px;fill:#f49db6;}.cls-30,.cls-34{font-family:HelveticaRoundedLT-Black, Helvetica Rounded LT Black;}.cls-31{letter-spacing:-0.05em;}.cls-32{letter-spacing:-0.04em;}.cls-33{letter-spacing:-0.07em;}.cls-34{font-size:40px;fill:#8ecbf8;}.cls-35{letter-spacing:-0.02em;}.cls-36{letter-spacing:-0.04em;}.cls-37{letter-spacing:-0.07em;}</style></defs><title>layout</title><g id="Layer_3" data-name="Layer 3"><rect class="cls-1" x="2" y="-191" width="1918" height="9711"/></g><g id="Layer_1" data-name="Layer 1"><text class="cls-2" transform="translate(452.73 224.71)">Day one of <tspan class="cls-3" x="168.15" y="0">y</tspan><tspan x="182.79" y="0">our t</tspan><tspan class="cls-4" x="251.97" y="0">r</tspan><tspan x="263.82" y="0">eatment coincides with the first day of </tspan><tspan class="cls-3" x="838.7" y="0">y</tspan><tspan x="853.34" y="0">our period. </tspan><tspan x="-146.73" y="40">Call</tspan><tspan class="cls-5" x="-90.06" y="40"> </tspan><tspan class="cls-3" x="-79.05" y="40">y</tspan><tspan x="-64.41" y="40">our</tspan><tspan class="cls-5" x="-15.51" y="40"> </tspan><tspan x="-4.49" y="40">clinic</tspan><tspan class="cls-5" x="71.08" y="40"> </tspan><tspan x="82.09" y="40">to</tspan><tspan class="cls-6" x="111.55" y="40"> </tspan><tspan x="122.57" y="40">confirm</tspan><tspan class="cls-5" x="234.8" y="40"> </tspan><tspan x="245.81" y="40">the</tspan><tspan class="cls-5" x="293.6" y="40"> </tspan><tspan x="304.62" y="40">next</tspan><tspan class="cls-5" x="366.84" y="40"> </tspan><tspan x="377.85" y="40">steps.</tspan><tspan class="cls-5" x="467.04" y="40"> </tspan><tspan class="cls-7" x="478.06" y="40">T</tspan><tspan x="497.56" y="40">hey’ll</tspan><tspan class="cls-5" x="575.41" y="40"> </tspan><tspan x="586.42" y="40">have</tspan><tspan class="cls-5" x="656.44" y="40"> </tspan><tspan x="667.46" y="40">given</tspan><tspan class="cls-6" x="745.82" y="40"> </tspan><tspan class="cls-4" x="756.84" y="40">y</tspan><tspan x="771.48" y="40">ou</tspan><tspan class="cls-5" x="808.17" y="40"> </tspan><tspan x="819.18" y="40">an</tspan><tspan class="cls-5" x="855.84" y="40"> </tspan><tspan x="866.86" y="40">outline</tspan><tspan class="cls-5" x="968.02" y="40"> </tspan><tspan x="979.03" y="40">of</tspan><tspan class="cls-5" x="1008.49" y="40"> </tspan><tspan x="1019.51" y="40">the</tspan><tspan class="cls-5" x="1067.3" y="40"> </tspan><tspan x="1078.32" y="40">t</tspan><tspan class="cls-3" x="1089.42" y="40">r</tspan><tspan x="1101.27" y="40">eat</tspan><tspan x="1149.06" y="40">-</tspan><tspan x="-146.73" y="80">ment</tspan><tspan class="cls-8" x="-71.16" y="80"> </tspan><tspan class="cls-3" x="-61.1" y="80">y</tspan><tspan x="-46.46" y="80">ou’ll</tspan><tspan class="cls-9" x="16.39" y="80"> </tspan><tspan x="26.46" y="80">be</tspan><tspan class="cls-8" x="63.15" y="80"> </tspan><tspan x="73.21" y="80">taking.</tspan><tspan class="cls-9" x="172.93" y="80"> </tspan><tspan x="182.99" y="80">Gene</tspan><tspan class="cls-7" x="262.49" y="80">r</tspan><tspan x="274.16" y="80">all</tspan><tspan class="cls-10" x="309.17" y="80">y</tspan><tspan x="323.06" y="80">,</tspan><tspan class="cls-8" x="332.24" y="80"> </tspan><tspan class="cls-4" x="342.31" y="80">y</tspan><tspan x="356.95" y="80">ou’ll</tspan><tspan class="cls-9" x="419.79" y="80"> </tspan><tspan x="429.86" y="80">the</tspan><tspan class="cls-8" x="477.65" y="80"> </tspan><tspan x="487.71" y="80">medicine</tspan><tspan class="cls-9" x="621.66" y="80"> </tspan><tspan x="631.73" y="80">will</tspan><tspan class="cls-8" x="680.09" y="80"> </tspan><tspan class="cls-3" x="690.15" y="80">r</tspan><tspan x="702" y="80">egulate</tspan><tspan class="cls-9" x="813.15" y="80"> </tspan><tspan class="cls-4" x="823.22" y="80">y</tspan><tspan x="837.86" y="80">our</tspan><tspan class="cls-8" x="886.76" y="80"> </tspan><tspan x="896.82" y="80">cycle</tspan><tspan class="cls-9" x="970.74" y="80"> </tspan><tspan x="980.8" y="80">and</tspan><tspan class="cls-8" x="1035.79" y="80"> </tspan><tspan x="1045.86" y="80">p</tspan><tspan class="cls-3" x="1064.19" y="80">r</tspan><tspan x="1076.04" y="80">epa</tspan><tspan class="cls-4" x="1131.06" y="80">r</tspan><tspan x="1142.91" y="80">e </tspan><tspan class="cls-3" x="200.95" y="120">y</tspan><tspan x="215.59" y="120">our body for the changes about to occu</tspan><tspan class="cls-11" x="794.95" y="120">r</tspan><tspan x="804.4" y="120">. </tspan></text><text class="cls-2"><tspan class="cls-12" x="562" y="547.17">T</tspan><tspan x="581.5" y="547.17">he</tspan><tspan class="cls-13" x="618.19" y="547.17"> </tspan><tspan x="635.78" y="547.17">first</tspan><tspan class="cls-14" x="694.64" y="547.17"> </tspan><tspan x="712.24" y="547.17">stage</tspan><tspan class="cls-13" x="794.46" y="547.17"> </tspan><tspan x="812.06" y="547.17">of</tspan><tspan class="cls-14" x="841.52" y="547.17"> </tspan><tspan x="859.11" y="547.17">the</tspan><tspan class="cls-13" x="906.9" y="547.17"> </tspan><tspan x="924.49" y="547.17">cycle</tspan><tspan class="cls-13" x="998.41" y="547.17"> </tspan><tspan x="1016.01" y="547.17">is</tspan><tspan class="cls-14" x="1040.46" y="547.17"> </tspan><tspan class="cls-15" x="1058.05" y="547.17">o</tspan><tspan x="1076.23" y="547.17">varian</tspan><tspan class="cls-13" x="1166.77" y="547.17"> </tspan><tspan x="1184.36" y="547.17">stimulation. </tspan><tspan class="cls-16" x="562" y="587.17">W</tspan><tspan x="588.88" y="587.17">omen</tspan><tspan class="cls-17" x="671.71" y="587.17"> </tspan><tspan x="679.23" y="587.17">usually</tspan><tspan class="cls-18" x="782.01" y="587.17"> </tspan><tspan class="cls-19" x="789.54" y="587.17">r</tspan><tspan x="801.39" y="587.17">elease</tspan><tspan class="cls-17" x="899.24" y="587.17"> </tspan><tspan x="906.77" y="587.17">one</tspan><tspan class="cls-17" x="961.82" y="587.17"> </tspan><tspan x="969.34" y="587.17">egg</tspan><tspan class="cls-17" x="1024.36" y="587.17"> </tspan><tspan x="1031.89" y="587.17">during</tspan><tspan class="cls-18" x="1125.75" y="587.17"> </tspan><tspan x="1133.28" y="587.17">each</tspan><tspan class="cls-17" x="1204.41" y="587.17"> </tspan><tspan x="1211.93" y="587.17">cycl</tspan><tspan class="cls-20" x="1267.49" y="587.17">e</tspan><tspan class="cls-21" x="1285.1" y="587.17">.</tspan><tspan class="cls-22" x="1294.28" y="587.17"> </tspan><tspan class="cls-23" x="1301.81" y="587.17">T</tspan><tspan x="1321.31" y="587.17">he </tspan><tspan x="562" y="627.17">injections</tspan><tspan class="cls-24" x="703.72" y="627.17"> </tspan><tspan x="717.34" y="627.17">–</tspan><tspan class="cls-25" x="732.34" y="627.17"> </tspan><tspan x="745.95" y="627.17">which</tspan><tspan class="cls-24" x="830.4" y="627.17"> </tspan><tspan x="844.02" y="627.17">a</tspan><tspan class="cls-19" x="862.35" y="627.17">r</tspan><tspan x="874.2" y="627.17">e</tspan><tspan class="cls-25" x="892.56" y="627.17"> </tspan><tspan x="906.18" y="627.17">administe</tspan><tspan class="cls-19" x="1051.2" y="627.17">r</tspan><tspan x="1063.05" y="627.17">ed</tspan><tspan class="cls-24" x="1099.74" y="627.17"> </tspan><tspan x="1113.35" y="627.17">at</tspan><tspan class="cls-25" x="1142.78" y="627.17"> </tspan><tspan x="1156.4" y="627.17">home</tspan><tspan class="cls-24" x="1239.23" y="627.17"> </tspan><tspan x="1252.85" y="627.17">–</tspan><tspan class="cls-25" x="1267.85" y="627.17"> </tspan><tspan x="1281.47" y="627.17">all</tspan><tspan class="cls-26" x="1316.48" y="627.17">o</tspan><tspan x="1334.66" y="627.17">w </tspan><tspan x="562" y="667.17">the</tspan><tspan class="cls-27" x="609.79" y="667.17"> </tspan><tspan x="618.01" y="667.17">woman</tspan><tspan class="cls-28" x="724.15" y="667.17"> </tspan><tspan x="732.37" y="667.17">to</tspan><tspan class="cls-27" x="761.83" y="667.17"> </tspan><tspan class="cls-26" x="770.05" y="667.17">o</tspan><tspan x="788.23" y="667.17">vulate</tspan><tspan class="cls-28" x="877.69" y="667.17"> </tspan><tspan x="885.91" y="667.17">and</tspan><tspan class="cls-27" x="940.9" y="667.17"> </tspan><tspan class="cls-19" x="949.12" y="667.17">r</tspan><tspan x="960.97" y="667.17">elease</tspan><tspan class="cls-28" x="1058.83" y="667.17"> </tspan><tspan x="1067.06" y="667.17">multiple</tspan><tspan class="cls-27" x="1185.97" y="667.17"> </tspan><tspan x="1194.2" y="667.17">eggs</tspan><tspan class="cls-28" x="1265.32" y="667.17"> </tspan><tspan class="cls-29" x="1273.55" y="667.17">which </tspan><tspan x="697.16" y="707.17">a</tspan><tspan class="cls-19" x="715.49" y="707.17">r</tspan><tspan x="727.34" y="707.17">e then collected for insemination. </tspan></text><text class="cls-30" transform="translate(617.62 155.79)">S<tspan class="cls-31" x="38.99" y="0">T</tspan><tspan x="75" y="0">A</tspan><tspan class="cls-12" x="111.94" y="0">R</tspan><tspan x="152.98" y="0">TING</tspan><tspan class="cls-32" x="302.88" y="0"> </tspan><tspan x="318.92" y="0">TRE</tspan><tspan class="cls-33" x="438.91" y="0">A</tspan><tspan x="471.85" y="0">TMENT </tspan></text><text class="cls-34" transform="translate(702.96 494.06)"><tspan class="cls-35">O</tspan><tspan class="cls-36" x="32.56" y="0">V</tspan><tspan x="59.64" y="0">ARIAN STIMUL</tspan><tspan class="cls-37" x="378.67" y="0">A</tspan><tspan x="403.07" y="0">TION</tspan></text></g></svg>