<svg xmlns="http://www.w3.org/2000/svg" viewBox="0 0 1924 344"><defs><style>.cls-1{fill:#fff;}.cls-2{font-size:30px;fill:#205286;font-family:HelveticaRounded-Bold, Helvetica Rounded;font-weight:700;}.cls-3{letter-spacing:-0.04em;}.cls-4{letter-spacing:-0.01em;}.cls-5{letter-spacing:-0.04em;}.cls-6{letter-spacing:-0.01em;}.cls-7{letter-spacing:-0.04em;}.cls-8{letter-spacing:-0.01em;}.cls-9{letter-spacing:-0.04em;}.cls-10{letter-spacing:0.02em;}.cls-11{letter-spacing:0.02em;}.cls-12{letter-spacing:0.02em;}.cls-13{font-size:40px;fill:#8ecbf8;font-family:HelveticaRoundedLT-Black, Helvetica Rounded LT Black;}.cls-14{letter-spacing:-0.04em;}</style></defs><title>layout</title><g id="Layer_3" data-name="Layer 3"><rect class="cls-1" x="2" y="-1527" width="1918" height="9711"/></g><g id="Layer_1" data-name="Layer 1"><text class="cls-2" transform="translate(563.5 160)">Once<tspan class="cls-3" x="77.28" y="0"> </tspan><tspan class="cls-4" x="85.3" y="0">y</tspan><tspan x="99.94" y="0">our</tspan><tspan class="cls-3" x="148.84" y="0"> </tspan><tspan x="156.86" y="0">egg</tspan><tspan class="cls-3" x="211.88" y="0"> </tspan><tspan x="219.9" y="0">carrying</tspan><tspan class="cls-3" x="338.75" y="0"> </tspan><tspan x="346.77" y="0">follicles</tspan><tspan class="cls-5" x="460.17" y="0"> </tspan><tspan x="468.19" y="0">a</tspan><tspan class="cls-6" x="486.52" y="0">r</tspan><tspan x="498.37" y="0">e</tspan><tspan class="cls-7" x="516.73" y="0"> </tspan><tspan class="cls-8" x="524.75" y="0">r</tspan><tspan x="536.6" y="0">ead</tspan><tspan class="cls-9" x="591.62" y="0">y</tspan><tspan x="605.51" y="0">,</tspan><tspan class="cls-5" x="614.69" y="0"> </tspan><tspan x="622.71" y="0">an</tspan><tspan class="cls-7" x="659.37" y="0"> </tspan><tspan x="667.39" y="0">injection </tspan><tspan x="0" y="40">is</tspan><tspan class="cls-10" x="24.45" y="40"> </tspan><tspan x="34.1" y="40">given</tspan><tspan class="cls-11" x="112.46" y="40"> </tspan><tspan x="122.1" y="40">that</tspan><tspan class="cls-10" x="180.96" y="40"> </tspan><tspan x="190.61" y="40">ends</tspan><tspan class="cls-11" x="261.74" y="40"> </tspan><tspan x="271.38" y="40">the</tspan><tspan class="cls-10" x="319.17" y="40"> </tspan><tspan x="328.82" y="40">stimulation</tspan><tspan class="cls-12" x="493.28" y="40"> </tspan><tspan x="502.93" y="40">period</tspan><tspan class="cls-11" x="596.86" y="40"> </tspan><tspan x="606.5" y="40">and</tspan><tspan class="cls-11" x="661.5" y="40"> </tspan><tspan x="671.14" y="40">matu</tspan><tspan class="cls-8" x="746.68" y="40">r</tspan><tspan x="758.53" y="40">es </tspan><tspan x="327.86" y="80">the eggs. </tspan></text><text class="cls-13" transform="translate(807.44 96.06)">THE<tspan class="cls-14" x="91.08" y="0"> </tspan><tspan x="102.96" y="0">TRIGGER</tspan></text></g></svg>