<svg xmlns="http://www.w3.org/2000/svg" viewBox="0 0 1928 404"><defs><style>.cls-1{fill:#fff;}.cls-2{font-size:30px;fill:#205286;font-family:HelveticaRounded-Bold, Helvetica Rounded;font-weight:700;}.cls-3{letter-spacing:-0.06em;}.cls-4{letter-spacing:-0.06em;}.cls-5{letter-spacing:0.04em;}.cls-6{letter-spacing:0.04em;}.cls-7{letter-spacing:-0.07em;}.cls-8{letter-spacing:0.04em;}.cls-9{letter-spacing:0.2em;}.cls-10{letter-spacing:0.2em;}.cls-11{letter-spacing:-0.01em;}.cls-12{letter-spacing:0.2em;}.cls-13{letter-spacing:-0.01em;}.cls-14{letter-spacing:-0.02em;}.cls-15{letter-spacing:0.08em;}.cls-16{letter-spacing:0em;}.cls-17{letter-spacing:-0.01em;}.cls-18{letter-spacing:-0.04em;}.cls-19{font-size:40px;fill:#8ecbf8;font-family:HelveticaRoundedLT-Black, Helvetica Rounded LT Black;}</style></defs><title>layout</title><g id="Layer_3" data-name="Layer 3"><rect class="cls-1" x="6" y="-2435" width="1918" height="9711"/></g><g id="Layer_1" data-name="Layer 1"><text class="cls-2" transform="translate(569.5 131.79)">Within<tspan class="cls-3" x="92.22" y="0"> </tspan><tspan x="99.72" y="0">hours</tspan><tspan class="cls-3" x="183.06" y="0"> </tspan><tspan x="190.56" y="0">of</tspan><tspan class="cls-3" x="220.02" y="0"> </tspan><tspan x="227.52" y="0">administering</tspan><tspan class="cls-4" x="429.75" y="0"> </tspan><tspan x="437.25" y="0">the</tspan><tspan class="cls-3" x="485.04" y="0"> </tspan><tspan x="492.54" y="0">trigger</tspan><tspan class="cls-3" x="591.42" y="0"> </tspan><tspan x="598.92" y="0">injection,</tspan><tspan class="cls-4" x="733.71" y="0"> </tspan><tspan x="741.21" y="0">the </tspan><tspan x="0" y="40">eggs</tspan><tspan class="cls-5" x="71.13" y="40"> </tspan><tspan x="81.63" y="40">will</tspan><tspan class="cls-6" x="129.99" y="40"> </tspan><tspan x="140.5" y="40">be</tspan><tspan class="cls-5" x="177.19" y="40"> </tspan><tspan x="187.69" y="40">collected.</tspan><tspan class="cls-6" x="330.28" y="40"> </tspan><tspan class="cls-7" x="340.78" y="40">Y</tspan><tspan x="356.92" y="40">ou’ll</tspan><tspan class="cls-5" x="419.77" y="40"> </tspan><tspan x="430.28" y="40">be</tspan><tspan class="cls-6" x="466.96" y="40"> </tspan><tspan x="477.47" y="40">lightly</tspan><tspan class="cls-5" x="565.25" y="40"> </tspan><tspan x="575.75" y="40">sedated</tspan><tspan class="cls-6" x="694.67" y="40"> </tspan><tspan x="705.17" y="40">and</tspan><tspan class="cls-8" x="760.17" y="40"> </tspan><tspan x="770.67" y="40">a </tspan><tspan x="0" y="80">fine</tspan><tspan class="cls-9" x="56.13" y="80"> </tspan><tspan x="71.38" y="80">needle</tspan><tspan class="cls-10" x="171.46" y="80"> </tspan><tspan x="186.71" y="80">is</tspan><tspan class="cls-9" x="211.16" y="80"> </tspan><tspan x="226.41" y="80">passed</tspan><tspan class="cls-10" x="331.98" y="80"> </tspan><tspan x="347.23" y="80">th</tspan><tspan class="cls-11" x="376.66" y="80">r</tspan><tspan x="388.51" y="80">ough</tspan><tspan class="cls-9" x="461.86" y="80"> </tspan><tspan x="477.11" y="80">the</tspan><tspan class="cls-10" x="524.9" y="80"> </tspan><tspan x="540.16" y="80">vaginal</tspan><tspan class="cls-12" x="645.16" y="80"> </tspan><tspan x="660.41" y="80">wall</tspan><tspan class="cls-12" x="718.76" y="80"> </tspan><tspan x="734.01" y="80">and </tspan><tspan x="81.9" y="120">into the </tspan><tspan class="cls-13" x="204.18" y="120">o</tspan><tspan x="222.36" y="120">vary to gather the matu</tspan><tspan class="cls-11" x="569.07" y="120">r</tspan><tspan x="580.92" y="120">ed eggs. </tspan><tspan class="cls-14" x="0" y="160">T</tspan><tspan x="19.5" y="160">he</tspan><tspan class="cls-15" x="56.19" y="160"> </tspan><tspan x="67.84" y="160">p</tspan><tspan class="cls-11" x="86.17" y="160">r</tspan><tspan x="98.02" y="160">ocedu</tspan><tspan class="cls-11" x="187.51" y="160">r</tspan><tspan x="199.36" y="160">e</tspan><tspan class="cls-15" x="217.72" y="160"> </tspan><tspan x="229.37" y="160">takes</tspan><tspan class="cls-15" x="309.38" y="160"> </tspan><tspan x="321.03" y="160">less</tspan><tspan class="cls-15" x="379.95" y="160"> </tspan><tspan x="391.6" y="160">than</tspan><tspan class="cls-15" x="457.69" y="160"> </tspan><tspan x="469.34" y="160">an</tspan><tspan class="cls-15" x="506" y="160"> </tspan><tspan x="517.65" y="160">hour</tspan><tspan class="cls-15" x="584.88" y="160"> </tspan><tspan class="cls-16" x="596.53" y="160">and</tspan><tspan class="cls-15" x="651.52" y="160"> </tspan><tspan class="cls-17" x="663.17" y="160">y</tspan><tspan x="677.81" y="160">ou’ll</tspan><tspan class="cls-15" x="740.66" y="160"> </tspan><tspan x="752.31" y="160">go </tspan><tspan x="245.27" y="200">home the same da</tspan><tspan class="cls-18" x="520.66" y="200">y</tspan><tspan class="cls-16" x="534.55" y="200">. </tspan></text><text class="cls-19" transform="translate(766.66 77.06)">EGG COLLECTION</text></g></svg>