<svg xmlns="http://www.w3.org/2000/svg" viewBox="0 0 1932 420"><defs><style>.cls-1{fill:#fff;}.cls-2{font-size:30px;fill:#205286;font-family:HelveticaRounded-Bold, Helvetica Rounded;font-weight:700;}.cls-3{letter-spacing:-0.02em;}.cls-4{letter-spacing:0.13em;}.cls-5{letter-spacing:-0.01em;}.cls-6{letter-spacing:0.13em;}.cls-7{letter-spacing:-0.05em;}.cls-8{letter-spacing:0.25em;}.cls-9{letter-spacing:0.25em;}.cls-10{letter-spacing:0em;}.cls-11{letter-spacing:0.14em;}.cls-12{letter-spacing:-0.03em;}.cls-13{letter-spacing:0em;}.cls-14{letter-spacing:0.14em;}.cls-15{letter-spacing:0.14em;}.cls-16{letter-spacing:0.14em;}.cls-17{letter-spacing:-0.01em;}.cls-18{letter-spacing:-0.01em;}.cls-19{letter-spacing:0.14em;}.cls-20{letter-spacing:-0.05em;}.cls-21{letter-spacing:-0.04em;}.cls-22{font-size:40px;fill:#8ecbf8;font-family:HelveticaRoundedLT-Black, Helvetica Rounded LT Black;}</style></defs><title>layout</title><g id="Layer_3" data-name="Layer 3"><rect class="cls-1" x="6" y="-3435" width="1918" height="9711"/></g><g id="Layer_1" data-name="Layer 1"><text class="cls-2" transform="translate(566 156.79)"><tspan class="cls-3">T</tspan><tspan x="19.5" y="0">his</tspan><tspan class="cls-4" x="62.28" y="0"> </tspan><tspan x="75.29" y="0">p</tspan><tspan class="cls-5" x="93.62" y="0">r</tspan><tspan x="105.47" y="0">ocess</tspan><tspan class="cls-4" x="190.52" y="0"> </tspan><tspan x="203.53" y="0">depends</tspan><tspan class="cls-6" x="329.68" y="0"> </tspan><tspan x="342.68" y="0">on</tspan><tspan class="cls-4" x="379.37" y="0"> </tspan><tspan x="392.38" y="0">whether</tspan><tspan class="cls-4" x="512.41" y="0"> </tspan><tspan class="cls-5" x="525.42" y="0">y</tspan><tspan x="540.06" y="0">ou</tspan><tspan class="cls-7" x="576.75" y="0">’</tspan><tspan class="cls-5" x="584.58" y="0">r</tspan><tspan x="596.43" y="0">e</tspan><tspan class="cls-4" x="614.79" y="0"> </tspan><tspan x="627.8" y="0">using</tspan><tspan class="cls-4" x="707.24" y="0"> </tspan><tspan x="720.25" y="0">f</tspan><tspan class="cls-5" x="731.35" y="0">r</tspan><tspan x="743.2" y="0">esh </tspan><tspan x="0" y="40">sperm</tspan><tspan class="cls-8" x="92.79" y="40"> </tspan><tspan x="109.44" y="40">of</tspan><tspan class="cls-8" x="138.9" y="40"> </tspan><tspan x="155.55" y="40">f</tspan><tspan class="cls-5" x="166.65" y="40">r</tspan><tspan x="178.5" y="40">ozen</tspan><tspan class="cls-8" x="250.23" y="40"> </tspan><tspan x="266.89" y="40">sperm.</tspan><tspan class="cls-9" x="368.85" y="40"> </tspan><tspan x="385.51" y="40">If</tspan><tspan class="cls-8" x="406.09" y="40"> </tspan><tspan class="cls-5" x="422.74" y="40">y</tspan><tspan x="437.38" y="40">ou’ve</tspan><tspan class="cls-8" x="516.91" y="40"> </tspan><tspan x="533.56" y="40">chosen</tspan><tspan class="cls-8" x="639.16" y="40"> </tspan><tspan x="655.81" y="40">the</tspan><tspan class="cls-8" x="703.6" y="40"> </tspan><tspan x="720.25" y="40">f</tspan><tspan class="cls-5" x="731.35" y="40">r</tspan><tspan class="cls-10" x="743.2" y="40">esh </tspan><tspan x="0" y="80">sperm</tspan><tspan class="cls-11" x="92.79" y="80"> </tspan><tspan class="cls-5" x="106.06" y="80">r</tspan><tspan x="117.91" y="80">out</tspan><tspan class="cls-12" x="165.7" y="80">e</tspan><tspan class="cls-13" x="183.31" y="80">,</tspan><tspan class="cls-14" x="192.49" y="80"> </tspan><tspan x="205.76" y="80">it</tspan><tspan class="cls-14" x="225.2" y="80"> </tspan><tspan class="cls-13" x="238.46" y="80">should</tspan><tspan class="cls-15" x="336.26" y="80"> </tspan><tspan class="cls-13" x="349.53" y="80">be</tspan><tspan class="cls-16" x="386.22" y="80"> </tspan><tspan class="cls-10" x="399.49" y="80">p</tspan><tspan class="cls-17" x="417.82" y="80">r</tspan><tspan class="cls-18" x="429.67" y="80">o</tspan><tspan x="447.85" y="80">vided</tspan><tspan class="cls-11" x="526.21" y="80"> </tspan><tspan x="539.48" y="80">on</tspan><tspan class="cls-11" x="576.17" y="80"> </tspan><tspan x="589.43" y="80">the</tspan><tspan class="cls-11" x="637.22" y="80"> </tspan><tspan x="650.49" y="80">same</tspan><tspan class="cls-19" x="731.07" y="80"> </tspan><tspan class="cls-10" x="744.34" y="80">day </tspan><tspan x="0" y="120">the</tspan><tspan class="cls-20" x="47.79" y="120"> </tspan><tspan x="55.54" y="120">eggs</tspan><tspan class="cls-20" x="126.67" y="120"> </tspan><tspan x="134.42" y="120">a</tspan><tspan class="cls-5" x="152.75" y="120">r</tspan><tspan x="164.6" y="120">e</tspan><tspan class="cls-20" x="182.96" y="120"> </tspan><tspan x="190.71" y="120">collected.</tspan><tspan class="cls-20" x="333.3" y="120"> </tspan><tspan x="341.05" y="120">If</tspan><tspan class="cls-20" x="361.63" y="120"> </tspan><tspan x="369.38" y="120">it</tspan><tspan class="cls-21" x="388.82" y="120">’</tspan><tspan x="397.2" y="120">s</tspan><tspan class="cls-20" x="413.31" y="120"> </tspan><tspan x="421.06" y="120">f</tspan><tspan class="cls-5" x="432.16" y="120">r</tspan><tspan x="444.01" y="120">ozen</tspan><tspan class="cls-20" x="515.74" y="120"> </tspan><tspan x="523.49" y="120">sperm,</tspan><tspan class="cls-20" x="625.46" y="120"> </tspan><tspan x="633.21" y="120">the</tspan><tspan class="cls-20" x="681" y="120"> </tspan><tspan x="688.75" y="120">sample </tspan><tspan x="31.72" y="160">will be thawed on the same day as egg collection. </tspan></text><text class="cls-22" transform="translate(735.54 102.06)">SPERM COLLECTION</text></g></svg>