<svg xmlns="http://www.w3.org/2000/svg" viewBox="0 0 1924 484"><defs><style>.cls-1{fill:#fff;}.cls-2{font-size:30px;fill:#205286;font-family:HelveticaRounded-Bold, Helvetica Rounded;font-weight:700;}.cls-3{letter-spacing:-0.02em;}.cls-4{letter-spacing:0.03em;}.cls-5{letter-spacing:0.03em;}.cls-6{letter-spacing:0.03em;}.cls-7{letter-spacing:-0.13em;}.cls-8{letter-spacing:0.03em;}.cls-9{letter-spacing:-0.01em;}.cls-10{letter-spacing:0em;}.cls-11{letter-spacing:0.03em;}.cls-12{letter-spacing:0.03em;}.cls-13{letter-spacing:0em;}.cls-14{letter-spacing:-0.04em;}.cls-15{letter-spacing:-0.04em;}.cls-16{font-size:40px;fill:#8ecbf8;font-family:HelveticaRoundedLT-Black, Helvetica Rounded LT Black;}.cls-17{letter-spacing:-0.07em;}.cls-18{letter-spacing:0em;}</style></defs><title>layout</title><g id="Layer_3" data-name="Layer 3"><rect class="cls-1" x="2" y="-4339" width="1918" height="9711"/></g><g id="Layer_1" data-name="Layer 1"><text class="cls-2"><tspan x="960" y="129.46"> </tspan><tspan class="cls-3" x="563.5" y="169.46">T</tspan><tspan x="583" y="169.46">he</tspan><tspan class="cls-4" x="619.69" y="169.46"> </tspan><tspan x="629.69" y="169.46">very</tspan><tspan class="cls-5" x="690.26" y="169.46"> </tspan><tspan x="700.26" y="169.46">best</tspan><tspan class="cls-4" x="764.16" y="169.46"> </tspan><tspan x="774.16" y="169.46">sperm</tspan><tspan class="cls-5" x="866.95" y="169.46"> </tspan><tspan x="876.95" y="169.46">is</tspan><tspan class="cls-4" x="901.4" y="169.46"> </tspan><tspan x="911.4" y="169.46">selected</tspan><tspan class="cls-4" x="1036.47" y="169.46"> </tspan><tspan x="1046.47" y="169.46">to</tspan><tspan class="cls-5" x="1075.93" y="169.46"> </tspan><tspan x="1085.93" y="169.46">be</tspan><tspan class="cls-4" x="1122.62" y="169.46"> </tspan><tspan x="1132.62" y="169.46">used</tspan><tspan class="cls-5" x="1203.75" y="169.46"> </tspan><tspan x="1213.75" y="169.46">during</tspan><tspan class="cls-5" x="1307.62" y="169.46"> </tspan><tspan x="1317.62" y="169.46">in</tspan><tspan x="1344.29" y="169.46">-</tspan><tspan x="873.72" y="209.46">semination. </tspan><tspan x="563.5" y="249.46">With</tspan><tspan class="cls-6" x="629.05" y="249.46"> </tspan><tspan x="639.02" y="249.46">IV</tspan><tspan class="cls-7" x="667.94" y="249.46">F</tspan><tspan x="682.97" y="249.46">,</tspan><tspan class="cls-8" x="692.15" y="249.46"> </tspan><tspan class="cls-9" x="702.12" y="249.46">r</tspan><tspan class="cls-10" x="713.97" y="249.46">oughly</tspan><tspan class="cls-11" x="810.65" y="249.46"> </tspan><tspan x="820.62" y="249.46">100,000</tspan><tspan class="cls-12" x="933.81" y="249.46"> </tspan><tspan class="cls-10" x="943.78" y="249.46">sperms</tspan><tspan class="cls-8" x="1052.68" y="249.46"> </tspan><tspan x="1062.65" y="249.46">will</tspan><tspan class="cls-6" x="1111.01" y="249.46"> </tspan><tspan class="cls-13" x="1120.98" y="249.46">be</tspan><tspan class="cls-8" x="1157.67" y="249.46"> </tspan><tspan class="cls-10" x="1167.63" y="249.46">added</tspan><tspan class="cls-8" x="1259.31" y="249.46"> </tspan><tspan x="1269.28" y="249.46">to</tspan><tspan class="cls-8" x="1298.74" y="249.46"> </tspan><tspan x="1308.71" y="249.46">the </tspan><tspan x="797.22" y="289.46">eggs in a cultu</tspan><tspan class="cls-9" x="1013.1" y="289.46">r</tspan><tspan x="1024.95" y="289.46">e dish. </tspan><tspan x="563.5" y="369.46">With</tspan><tspan class="cls-14" x="629.05" y="369.46"> </tspan><tspan x="637.04" y="369.46">ICSI,</tspan><tspan class="cls-15" x="707.39" y="369.46"> </tspan><tspan x="715.38" y="369.46">a</tspan><tspan class="cls-14" x="733.71" y="369.46"> </tspan><tspan x="741.7" y="369.46">single</tspan><tspan class="cls-14" x="829.51" y="369.46"> </tspan><tspan x="837.51" y="369.46">sperm</tspan><tspan class="cls-15" x="930.29" y="369.46"> </tspan><tspan x="938.29" y="369.46">will</tspan><tspan class="cls-14" x="986.65" y="369.46"> </tspan><tspan x="994.64" y="369.46">be</tspan><tspan class="cls-15" x="1031.33" y="369.46"> </tspan><tspan x="1039.32" y="369.46">selected</tspan><tspan class="cls-14" x="1164.39" y="369.46"> </tspan><tspan x="1172.38" y="369.46">and</tspan><tspan class="cls-14" x="1227.37" y="369.46"> </tspan><tspan x="1235.36" y="369.46">inserted </tspan><tspan x="641.33" y="409.46">into each egg then placed in a cultu</tspan><tspan class="cls-9" x="1168.99" y="409.46">r</tspan><tspan x="1180.84" y="409.46">e dish. </tspan></text><text class="cls-16" transform="translate(795.7 99.06)">INSEMIN<tspan class="cls-17" x="193.2" y="0">A</tspan><tspan class="cls-18" x="217.6" y="0">TION</tspan></text></g></svg>