<svg xmlns="http://www.w3.org/2000/svg" viewBox="0 0 1920 904"><defs><style>.cls-1{fill:#fff;}.cls-2{font-size:40px;fill:#8ecbf8;font-family:HelveticaRoundedLT-Black, Helvetica Rounded LT Black;}.cls-3{letter-spacing:-0.01em;}.cls-4{fill:#ccc;}.cls-5{fill:#e6e6e6;}.cls-6{fill:#ffcadc;}.cls-7{fill:#f27ca3;}.cls-8{fill:#f49db6;}.cls-9{font-size:30px;fill:#205286;font-family:HelveticaRounded-Bold, Helvetica Rounded;font-weight:700;}.cls-10{letter-spacing:-0.07em;}.cls-11{letter-spacing:0.08em;}.cls-12{letter-spacing:0.08em;}.cls-13{letter-spacing:-0.01em;}.cls-14{letter-spacing:-0.01em;}.cls-15{letter-spacing:0.23em;}.cls-16{letter-spacing:0.23em;}.cls-17{letter-spacing:0.12em;}.cls-18{letter-spacing:0.12em;}.cls-19{letter-spacing:-0.02em;}.cls-20{letter-spacing:0.09em;}.cls-21{letter-spacing:0.09em;}.cls-22{letter-spacing:-0.01em;}</style></defs><title>layout</title><g id="Layer_3" data-name="Layer 3"><rect class="cls-1" x="2" y="-5371" width="1918" height="9711"/></g><g id="Layer_1" data-name="Layer 1"><text class="cls-2" transform="translate(690.28 160.06)">EMBR<tspan class="cls-3" x="128.88" y="0">Y</tspan><tspan x="155.12" y="0">O DEVELOPMENT</tspan></text><path class="cls-4" d="M848.45,272.25c14.67,0,26.56,12.92,26.56,28.85V558.5c0,15.94-11.88,28.85-26.56,28.85h-464c-14.67,0-26.56-12.92-26.56-28.85V301.1c0-15.94,11.9-28.85,26.56-28.85Z"/><path class="cls-5" d="M838.18,280.63c14.37,0,26,12.6,26,28.15V559.85c0,15.54-11.64,28.15-26,28.15H383.9c-14.36,0-26-12.6-26-28.15V308.77c0-15.54,11.65-28.15,26-28.15Z"/><circle class="cls-5" cx="459.03" cy="508.92" r="55.04"/><circle class="cls-5" cx="457.23" cy="369.96" r="55.04"/><circle class="cls-5" cx="599.8" cy="368.15" r="55.04"/><circle class="cls-5" cx="607.01" cy="510.72" r="55.04"/><circle class="cls-5" cx="747.78" cy="501.7" r="55.04"/><circle class="cls-5" cx="749.58" cy="368.15" r="55.04"/><path class="cls-6" d="M431.6,411a46.79,46.79,0,0,0,63.64-18.15l-81.8-45.48A46.79,46.79,0,0,0,431.6,411Z"/><path class="cls-7" d="M477.09,329.19a46.79,46.79,0,0,0-63.64,18.15l81.8,45.48A46.79,46.79,0,0,0,477.09,329.19Z"/><path class="cls-8" d="M434.3,406.13a41.24,41.24,0,0,0,56.09-16L418.3,350A41.24,41.24,0,0,0,434.3,406.13Z"/><path class="cls-8" d="M474.39,334a41.24,41.24,0,0,0-56.09,16l72.09,40.09A41.24,41.24,0,0,0,474.39,334Z"/><polygon class="cls-7" points="413.44 347.35 416.04 354.82 487.52 394.57 495.24 392.83 413.44 347.35"/><polygon class="cls-6" points="413.44 347.35 421.17 345.6 492.65 385.35 495.24 392.83 413.44 347.35"/><path class="cls-6" d="M437,549.94a46.79,46.79,0,0,0,63.64-18.15l-81.8-45.48A46.79,46.79,0,0,0,437,549.94Z"/><path class="cls-7" d="M482.5,468.15a46.79,46.79,0,0,0-63.64,18.15l81.8,45.48A46.79,46.79,0,0,0,482.5,468.15Z"/><path class="cls-8" d="M439.71,545.09a41.24,41.24,0,0,0,56.09-16L423.71,489A41.24,41.24,0,0,0,439.71,545.09Z"/><path class="cls-8" d="M479.8,473a41.24,41.24,0,0,0-56.09,16l72.09,40.09A41.24,41.24,0,0,0,479.8,473Z"/><polygon class="cls-7" points="418.86 486.31 421.45 493.78 492.93 533.53 500.65 531.79 418.86 486.31"/><polygon class="cls-6" points="418.86 486.31 426.58 484.56 498.06 524.31 500.65 531.79 418.86 486.31"/><path class="cls-6" d="M577.78,549.94a46.79,46.79,0,0,0,63.64-18.15l-81.8-45.48A46.79,46.79,0,0,0,577.78,549.94Z"/><path class="cls-7" d="M623.27,468.15a46.79,46.79,0,0,0-63.64,18.15l81.8,45.48A46.79,46.79,0,0,0,623.27,468.15Z"/><path class="cls-8" d="M580.48,545.09a41.24,41.24,0,0,0,56.09-16L564.48,489A41.24,41.24,0,0,0,580.48,545.09Z"/><path class="cls-8" d="M620.57,473a41.24,41.24,0,0,0-56.09,16l72.09,40.09A41.24,41.24,0,0,0,620.57,473Z"/><polygon class="cls-7" points="559.62 486.31 562.22 493.78 633.7 533.53 641.42 531.79 559.62 486.31"/><polygon class="cls-6" points="559.62 486.31 567.34 484.56 638.83 524.31 641.42 531.79 559.62 486.31"/><path class="cls-6" d="M581.39,411A46.79,46.79,0,0,0,645,392.83l-81.8-45.48A46.79,46.79,0,0,0,581.39,411Z"/><path class="cls-7" d="M626.88,329.19a46.79,46.79,0,0,0-63.64,18.15L645,392.83A46.79,46.79,0,0,0,626.88,329.19Z"/><path class="cls-8" d="M584.08,406.13a41.24,41.24,0,0,0,56.09-16L568.09,350A41.24,41.24,0,0,0,584.08,406.13Z"/><path class="cls-8" d="M624.18,334a41.24,41.24,0,0,0-56.09,16l72.09,40.09A41.24,41.24,0,0,0,624.18,334Z"/><polygon class="cls-7" points="563.23 347.35 565.83 354.82 637.31 394.57 645.03 392.83 563.23 347.35"/><polygon class="cls-6" points="563.23 347.35 570.95 345.6 642.43 385.35 645.03 392.83 563.23 347.35"/><path class="cls-6" d="M718.55,549.94a46.79,46.79,0,0,0,63.64-18.15l-81.8-45.48A46.79,46.79,0,0,0,718.55,549.94Z"/><path class="cls-7" d="M764,468.15a46.79,46.79,0,0,0-63.64,18.15l81.8,45.48A46.79,46.79,0,0,0,764,468.15Z"/><path class="cls-8" d="M721.24,545.09a41.24,41.24,0,0,0,56.09-16L705.24,489A41.24,41.24,0,0,0,721.24,545.09Z"/><path class="cls-8" d="M761.33,473a41.24,41.24,0,0,0-56.09,16l72.09,40.09A41.24,41.24,0,0,0,761.33,473Z"/><polygon class="cls-7" points="700.39 486.31 702.98 493.78 774.46 533.53 782.18 531.79 700.39 486.31"/><polygon class="cls-6" points="700.39 486.31 708.11 484.56 779.59 524.31 782.18 531.79 700.39 486.31"/><path class="cls-6" d="M720.35,411A46.79,46.79,0,0,0,784,392.83l-81.8-45.48A46.79,46.79,0,0,0,720.35,411Z"/><path class="cls-7" d="M765.84,329.19a46.79,46.79,0,0,0-63.64,18.15L784,392.83A46.79,46.79,0,0,0,765.84,329.19Z"/><path class="cls-8" d="M723,406.13a41.24,41.24,0,0,0,56.09-16L707,350A41.24,41.24,0,0,0,723,406.13Z"/><path class="cls-8" d="M763.14,334A41.24,41.24,0,0,0,707,350l72.09,40.09A41.24,41.24,0,0,0,763.14,334Z"/><polygon class="cls-7" points="702.19 347.35 704.79 354.82 776.27 394.57 783.99 392.83 702.19 347.35"/><polygon class="cls-6" points="702.19 347.35 709.91 345.6 781.4 385.35 783.99 392.83 702.19 347.35"/><text class="cls-9" transform="translate(934.51 348.25)"><tspan class="cls-10">Y</tspan><tspan x="16.14" y="0">ou</tspan><tspan class="cls-11" x="52.83" y="0"> </tspan><tspan x="64.35" y="0">–</tspan><tspan class="cls-12" x="79.35" y="0"> </tspan><tspan x="90.86" y="0">at</tspan><tspan class="cls-11" x="120.29" y="0"> </tspan><tspan x="131.81" y="0">this</tspan><tspan class="cls-12" x="185.69" y="0"> </tspan><tspan x="197.2" y="0">point,</tspan><tspan class="cls-11" x="280.84" y="0"> </tspan><tspan x="292.36" y="0">will</tspan><tspan class="cls-11" x="340.71" y="0"> </tspan><tspan x="352.23" y="0">take</tspan><tspan class="cls-12" x="416.13" y="0"> </tspan><tspan x="427.64" y="0">drugs</tspan><tspan class="cls-11" x="510.95" y="0"> </tspan><tspan x="522.47" y="0">that’ll </tspan><tspan x="0" y="40">p</tspan><tspan class="cls-13" x="18.33" y="40">r</tspan><tspan x="30.18" y="40">epa</tspan><tspan class="cls-14" x="85.2" y="40">r</tspan><tspan x="97.05" y="40">e</tspan><tspan class="cls-15" x="115.41" y="40"> </tspan><tspan x="131.63" y="40">the</tspan><tspan class="cls-15" x="179.42" y="40"> </tspan><tspan x="195.65" y="40">uterus</tspan><tspan class="cls-16" x="290.09" y="40"> </tspan><tspan x="306.31" y="40">lining</tspan><tspan class="cls-15" x="386.32" y="40"> </tspan><tspan x="402.54" y="40">to</tspan><tspan class="cls-15" x="432" y="40"> </tspan><tspan class="cls-13" x="448.23" y="40">r</tspan><tspan x="460.08" y="40">eceive</tspan><tspan class="cls-15" x="554.61" y="40"> </tspan><tspan x="570.83" y="40">an </tspan><tspan x="0" y="80">embr</tspan><tspan class="cls-13" x="76.68" y="80">y</tspan><tspan x="91.32" y="80">o </tspan><tspan x="0" y="120">(this is called Luteal Phase Support) </tspan></text><text class="cls-9" transform="translate(613 747)">Embr<tspan class="cls-13" x="78.87" y="0">y</tspan><tspan x="93.51" y="0">o</tspan><tspan class="cls-17" x="111.87" y="0"> </tspan><tspan x="124.54" y="0">–</tspan><tspan class="cls-18" x="139.54" y="0"> </tspan><tspan class="cls-19" x="152.2" y="0">T</tspan><tspan x="171.7" y="0">he</tspan><tspan class="cls-17" x="208.39" y="0"> </tspan><tspan x="221.06" y="0">embr</tspan><tspan class="cls-14" x="297.74" y="0">y</tspan><tspan x="312.38" y="0">os</tspan><tspan class="cls-17" x="346.85" y="0"> </tspan><tspan x="359.52" y="0">a</tspan><tspan class="cls-13" x="377.85" y="0">r</tspan><tspan x="389.7" y="0">e</tspan><tspan class="cls-18" x="408.06" y="0"> </tspan><tspan x="420.73" y="0">closely</tspan><tspan class="cls-17" x="521.34" y="0"> </tspan><tspan x="534.01" y="0">monito</tspan><tspan class="cls-13" x="636.28" y="0">r</tspan><tspan x="648.13" y="0">ed. </tspan><tspan x="0" y="40">First</tspan><tspan class="cls-20" x="66.66" y="40"> </tspan><tspan x="78.61" y="40">for</tspan><tspan class="cls-20" x="120.28" y="40"> </tspan><tspan x="132.23" y="40">signs</tspan><tspan class="cls-20" x="209.45" y="40"> </tspan><tspan x="221.39" y="40">of</tspan><tspan class="cls-21" x="250.85" y="40"> </tspan><tspan x="262.8" y="40">fertilization</tspan><tspan class="cls-20" x="431.73" y="40"> </tspan><tspan x="443.68" y="40">then</tspan><tspan class="cls-20" x="509.8" y="40"> </tspan><tspan x="521.75" y="40">for</tspan><tspan class="cls-20" x="563.42" y="40"> </tspan><tspan x="575.37" y="40">signs</tspan><tspan class="cls-20" x="652.59" y="40"> </tspan><tspan x="664.54" y="40">of </tspan><tspan x="159.85" y="80">development and g</tspan><tspan class="cls-13" x="442.18" y="80">r</tspan><tspan class="cls-22" x="454.03" y="80">o</tspan><tspan x="472.21" y="80">wth. </tspan></text></g></svg>