<svg xmlns="http://www.w3.org/2000/svg" viewBox="0 0 1935 543"><defs><style>.cls-1{fill:#fff;}.cls-2{font-size:80px;fill:#f49db6;font-family:HelveticaRounded-Black, Helvetica Rounded Black;}.cls-3{font-size:24px;fill:#205286;font-family:HelveticaRounded-Bold, Helvetica Rounded;font-weight:700;}.cls-4{letter-spacing:0.04em;}.cls-5{letter-spacing:-0.07em;}.cls-6{letter-spacing:0.04em;}.cls-7{letter-spacing:-0.02em;}.cls-8{letter-spacing:-0.09em;}.cls-9{letter-spacing:0.04em;}.cls-10{letter-spacing:-0.03em;}.cls-11{letter-spacing:-0.04em;}.cls-12{letter-spacing:-0.01em;}.cls-13{letter-spacing:-0.02em;}.cls-14{letter-spacing:-0.01em;}.cls-15{letter-spacing:-0.13em;}.cls-16{letter-spacing:-0.11em;}.cls-17{letter-spacing:0em;}.cls-18{letter-spacing:-0.06em;}.cls-19{letter-spacing:-0.01em;}.cls-20{letter-spacing:-0.05em;}.cls-21{letter-spacing:0.06em;}.cls-22{letter-spacing:0.06em;}.cls-23{letter-spacing:0.06em;}.cls-24{letter-spacing:0em;}.cls-25{letter-spacing:0.06em;}</style></defs><title>layout_2</title><g id="Layer_3" data-name="Layer 3"><rect class="cls-1" x="7" y="-759" width="1925" height="8464"/></g><g id="Layer_1" data-name="Layer 1"><text class="cls-2" transform="translate(474.9 83.85)">TYPICAL IVF JOURNEY</text><text class="cls-3" transform="translate(321.5 178.64)">WE<tspan class="cls-4" x="38.66" y="0"> </tspan><tspan x="47.03" y="0">H</tspan><tspan class="cls-5" x="65.7" y="0">A</tspan><tspan x="79.93" y="0">TE</tspan><tspan class="cls-6" x="112.4" y="0"> </tspan><tspan class="cls-7" x="120.76" y="0">T</tspan><tspan x="136.36" y="0">O</tspan><tspan class="cls-4" x="155.95" y="0"> </tspan><tspan x="164.31" y="0">CALL</tspan><tspan class="cls-6" x="226.97" y="0"> </tspan><tspan x="235.33" y="0">IT</tspan><tspan class="cls-4" x="258.95" y="0"> </tspan><tspan x="267.31" y="0">A</tspan><tspan class="cls-6" x="283.32" y="0"> </tspan><tspan x="291.68" y="0">TYPICAL</tspan><tspan class="cls-4" x="394.88" y="0"> </tspan><tspan x="403.24" y="0">IVF</tspan><tspan class="cls-4" x="441.49" y="0"> </tspan><tspan x="449.86" y="0">JOURNE</tspan><tspan class="cls-8" x="554.78" y="0">Y</tspan><tspan x="567.26" y="0">.</tspan><tspan class="cls-6" x="574.61" y="0"> </tspan><tspan x="582.97" y="0">THE</tspan><tspan class="cls-4" x="634.11" y="0"> </tspan><tspan x="642.47" y="0">ENTIRE</tspan><tspan class="cls-4" x="735.43" y="0"> </tspan><tspan x="743.79" y="0">PROCESS</tspan><tspan class="cls-9" x="864.7" y="0"> </tspan><tspan x="873.06" y="0">IS</tspan><tspan class="cls-4" x="897.08" y="0"> </tspan><tspan x="905.44" y="0">ANYTHING</tspan><tspan class="cls-4" x="1035.33" y="0"> </tspan><tspan x="1043.69" y="0">BUT</tspan><tspan class="cls-4" x="1095.72" y="0"> </tspan><tspan x="1104.08" y="0">TYPICAL.</tspan><tspan class="cls-4" x="1214.63" y="0"> </tspan><tspan x="1222.99" y="0">IT’S</tspan><tspan class="cls-9" x="1270.63" y="0"> </tspan><tspan x="1278.99" y="0">A </tspan><tspan x="248.72" y="40">JOURNEY OF L</tspan><tspan class="cls-7" x="432.39" y="40">O</tspan><tspan x="451.54" y="40">VE, HOPE, VULNERABILIT</tspan><tspan class="cls-8" x="765.48" y="40">Y</tspan><tspan x="777.96" y="40">, AND (WE HOPE) J</tspan><tspan class="cls-10" x="1007.59" y="40">O</tspan><tspan class="cls-8" x="1026.46" y="40">Y</tspan><tspan x="1038.94" y="40" xml:space="preserve">.  </tspan><tspan x="99.69" y="96">THERE COMES A TIME IN EVERYONE’S LIFE WHERE THEY CONSIDER H</tspan><tspan class="cls-11" x="974.78" y="96">A</tspan><tspan x="989.9" y="96" xml:space="preserve">VING CHILDREN.  </tspan><tspan x="0" y="152">SOME</tspan><tspan class="cls-12" x="73.78" y="152"> </tspan><tspan x="80.82" y="152">GO</tspan><tspan class="cls-12" x="119.96" y="152"> </tspan><tspan x="127" y="152">FOR</tspan><tspan class="cls-12" x="179.49" y="152"> </tspan><tspan x="186.53" y="152">IT</tspan><tspan class="cls-12" x="210.15" y="152"> </tspan><tspan x="217.19" y="152">AND</tspan><tspan class="cls-12" x="270.08" y="152"> </tspan><tspan class="cls-13" x="277.12" y="152">O</tspan><tspan x="296.11" y="152">THERS</tspan><tspan class="cls-14" x="381.47" y="152"> </tspan><tspan x="388.52" y="152">DON’</tspan><tspan class="cls-15" x="452.57" y="152">T</tspan><tspan x="465.51" y="152">.</tspan><tspan class="cls-14" x="472.85" y="152"> </tspan><tspan x="479.89" y="152">US</tspan><tspan class="cls-7" x="515.01" y="152">U</tspan><tspan x="533.25" y="152">AL</tspan><tspan class="cls-16" x="563.92" y="152">L</tspan><tspan class="cls-8" x="575.92" y="152">Y</tspan><tspan class="cls-17" x="588.4" y="152">,</tspan><tspan class="cls-12" x="595.74" y="152"> </tspan><tspan x="602.78" y="152">ALL</tspan><tspan class="cls-12" x="648.12" y="152"> </tspan><tspan x="655.16" y="152">IT</tspan><tspan class="cls-12" x="678.78" y="152"> </tspan><tspan class="cls-18" x="685.82" y="152">T</tspan><tspan x="700.53" y="152">AKES</tspan><tspan class="cls-12" x="765.85" y="152"> </tspan><tspan x="772.9" y="152">IS</tspan><tspan class="cls-19" x="796.92" y="152"> </tspan><tspan x="803.96" y="152">A</tspan><tspan class="cls-12" x="819.97" y="152"> </tspan><tspan x="827.01" y="152">FEW</tspan><tspan class="cls-12" x="880.79" y="152"> </tspan><tspan x="887.83" y="152">ENCOUNTERS</tspan><tspan class="cls-12" x="1063.9" y="152"> </tspan><tspan x="1070.94" y="152">WITH</tspan><tspan class="cls-12" x="1135.45" y="152"> </tspan><tspan x="1142.49" y="152">YOUR</tspan><tspan class="cls-12" x="1213.22" y="152"> </tspan><tspan class="cls-20" x="1220.26" y="152">P</tspan><tspan x="1235.84" y="152">A</tspan><tspan class="cls-7" x="1251.85" y="152">R</tspan><tspan x="1269.2" y="152">T</tspan><tspan x="1285.23" y="152">-</tspan><tspan x="100.52" y="192">NER, PROPER PREGNANCY CARE, AND IN NINE MONTHS YOU H</tspan><tspan class="cls-11" x="886.03" y="192">A</tspan><tspan x="901.15" y="192">VE A BE</tspan><tspan class="cls-7" x="997.61" y="192">A</tspan><tspan x="1013.18" y="192">UTIFUL CHIL</tspan><tspan class="cls-13" x="1169.52" y="192">D</tspan><tspan x="1187.13" y="192" xml:space="preserve">.  </tspan><tspan x="0" y="248">N</tspan><tspan class="cls-13" x="18.67" y="248">O</tspan><tspan x="37.66" y="248">T</tspan><tspan class="cls-21" x="53.69" y="248"> </tspan><tspan x="62.54" y="248">ALL</tspan><tspan class="cls-21" x="107.87" y="248"> </tspan><tspan x="116.72" y="248">OF</tspan><tspan class="cls-22" x="151.42" y="248"> </tspan><tspan x="160.27" y="248">US</tspan><tspan class="cls-23" x="195.38" y="248"> </tspan><tspan x="204.23" y="248">H</tspan><tspan class="cls-11" x="222.9" y="248">A</tspan><tspan x="238.02" y="248">VE</tspan><tspan class="cls-22" x="270.01" y="248"> </tspan><tspan x="278.86" y="248">IT</tspan><tspan class="cls-21" x="302.48" y="248"> </tspan><tspan class="cls-24" x="311.32" y="248">SO</tspan><tspan class="cls-23" x="347.35" y="248"> </tspan><tspan class="cls-24" x="356.2" y="248">EAS</tspan><tspan class="cls-8" x="405.08" y="248">Y</tspan><tspan x="417.56" y="248">.</tspan><tspan class="cls-21" x="424.91" y="248"> </tspan><tspan x="433.76" y="248">FOR</tspan><tspan class="cls-21" x="486.24" y="248"> </tspan><tspan x="495.09" y="248">THOSE</tspan><tspan class="cls-21" x="582.26" y="248"> </tspan><tspan x="591.11" y="248">WHO’VE</tspan><tspan class="cls-25" x="691.16" y="248"> </tspan><tspan x="700.01" y="248">TRIED</tspan><tspan class="cls-22" x="776.06" y="248"> </tspan><tspan x="784.91" y="248">AND</tspan><tspan class="cls-25" x="837.81" y="248"> </tspan><tspan x="846.65" y="248">H</tspan><tspan class="cls-11" x="865.32" y="248">A</tspan><tspan x="880.44" y="248">VE</tspan><tspan class="cls-22" x="912.44" y="248"> </tspan><tspan x="921.28" y="248">BEEN</tspan><tspan class="cls-25" x="990.16" y="248"> </tspan><tspan x="999.01" y="248">UNABLE</tspan><tspan class="cls-22" x="1100.79" y="248"> </tspan><tspan class="cls-7" x="1109.64" y="248">T</tspan><tspan x="1125.24" y="248">O</tspan><tspan class="cls-25" x="1144.83" y="248"> </tspan><tspan x="1153.67" y="248">GET</tspan><tspan class="cls-22" x="1205.7" y="248"> </tspan><tspan x="1214.55" y="248">PREG</tspan><tspan x="1285.23" y="248">-</tspan><tspan x="364.06" y="288">NANT ON THEIR OWN THERE MANY OPTIONS. </tspan></text></g></svg>