<svg xmlns="http://www.w3.org/2000/svg" viewBox="0 0 1920 524"><defs><style>.cls-1{fill:#fff;}.cls-2{font-size:30px;fill:#205286;font-family:HelveticaRounded-Bold, Helvetica Rounded;font-weight:700;}.cls-3{letter-spacing:-0.07em;}.cls-4{letter-spacing:-0.05em;}.cls-5{letter-spacing:-0.01em;}.cls-6{letter-spacing:-0.01em;}.cls-7{letter-spacing:-0.03em;}.cls-8{letter-spacing:-0.05em;}.cls-9{letter-spacing:0em;}.cls-10{letter-spacing:-0.02em;}.cls-11{font-size:40px;fill:#8ecbf8;font-family:HelveticaRoundedLT-Black, Helvetica Rounded LT Black;}.cls-12{letter-spacing:-0.04em;}</style></defs><title>layout</title><g id="Layer_3" data-name="Layer 3"><rect class="cls-1" x="2" y="-8003" width="1918" height="9711"/></g><g id="Layer_1" data-name="Layer 1"><text class="cls-2"><tspan x="822.58" y="227.46">It can go both ways. </tspan><tspan class="cls-3" x="703.33" y="267.46">Y</tspan><tspan x="719.47" y="267.46">ou</tspan><tspan class="cls-4" x="756.16" y="267.46">’</tspan><tspan class="cls-5" x="763.99" y="267.46">r</tspan><tspan x="775.84" y="267.46">e either p</tspan><tspan class="cls-6" x="917.59" y="267.46">r</tspan><tspan x="929.44" y="267.46">egnant or </tspan><tspan class="cls-5" x="1081.15" y="267.46">y</tspan><tspan x="1095.79" y="267.46">ou</tspan><tspan class="cls-4" x="1132.48" y="267.46">’</tspan><tspan class="cls-5" x="1140.31" y="267.46">r</tspan><tspan x="1152.16" y="267.46" xml:space="preserve">e not.  </tspan><tspan x="517.8" y="307.46">Don’t worry if it didn’t happen the first tim</tspan><tspan class="cls-7" x="1139.06" y="307.46">e</tspan><tspan x="1156.67" y="307.46">. </tspan><tspan class="cls-3" x="1175.03" y="307.46">Y</tspan><tspan x="1191.17" y="307.46">ou</tspan><tspan class="cls-8" x="1227.86" y="307.46">’</tspan><tspan class="cls-5" x="1235.69" y="307.46">r</tspan><tspan x="1247.54" y="307.46">e not alon</tspan><tspan class="cls-7" x="1395.41" y="307.46">e</tspan><tspan x="1413.02" y="307.46">. </tspan><tspan x="414.28" y="347.46">Many women don’t get p</tspan><tspan class="cls-5" x="777.19" y="347.46">r</tspan><tspan x="789.04" y="347.46">egnant on the first go a</tspan><tspan class="cls-5" x="1136.08" y="347.46">r</tspan><tspan x="1147.93" y="347.46">ound. Don’t give up hop</tspan><tspan class="cls-7" x="1498.92" y="347.46">e</tspan><tspan x="1516.53" y="347.46">. </tspan><tspan x="355.23" y="427.46">Every time </tspan><tspan class="cls-5" x="520.29" y="427.46">y</tspan><tspan x="534.93" y="427.46">ou go th</tspan><tspan class="cls-5" x="656.1" y="427.46">r</tspan><tspan x="667.95" y="427.46">ough an IVF cycle inc</tspan><tspan class="cls-5" x="979.2" y="427.46">r</tspan><tspan x="991.05" y="427.46">eases </tspan><tspan class="cls-6" x="1087.49" y="427.46">y</tspan><tspan class="cls-9" x="1102.14" y="427.46">our chances of being successful. </tspan><tspan x="466.5" y="467.46" xml:space="preserve"> If </tspan><tspan class="cls-5" x="505.44" y="467.46">y</tspan><tspan x="520.08" y="467.46">ou</tspan><tspan class="cls-4" x="556.77" y="467.46">’</tspan><tspan class="cls-6" x="564.6" y="467.46">r</tspan><tspan class="cls-9" x="576.45" y="467.46">e p</tspan><tspan class="cls-6" x="622.32" y="467.46">r</tspan><tspan x="634.17" y="467.46">egnant, cong</tspan><tspan class="cls-10" x="826.44" y="467.46">r</tspan><tspan x="838.1" y="467.46">atulations. </tspan><tspan class="cls-3" x="1003.13" y="467.46">Y</tspan><tspan x="1019.27" y="467.46">our life will never be the sam</tspan><tspan class="cls-7" x="1446.71" y="467.46">e</tspan><tspan x="1464.32" y="467.46">. </tspan></text><text class="cls-11" transform="translate(774.48 160.06)">AFTER<tspan class="cls-12" x="142.92" y="0"> </tspan><tspan x="154.8" y="0">TRANSFER</tspan></text></g></svg>