<svg xmlns="http://www.w3.org/2000/svg" viewBox="0 0 1924 890"><defs><style>.cls-1{fill:#fff;}.cls-2{fill:#c3dcff;}.cls-3{fill:#8db9fe;}.cls-4{fill:#e3f0ff;}.cls-5{fill:#73a4f7;}.cls-6{fill:#a9cbfc;}.cls-7{fill:#d4e8ff;}.cls-10,.cls-8{fill:#4c94fc;}.cls-9{fill:#e9f3ff;}.cls-10{opacity:0.16;}.cls-11{fill:#99c4ff;}.cls-12{fill:#ffb5a1;}.cls-13{fill:#e5a393;}.cls-14{fill:#a55f2b;}.cls-15{fill:#71e2f4;}.cls-16{fill:#62adb5;}.cls-17{fill:#9ce9f2;}.cls-18{fill:#1a1a1a;}.cls-19{fill:#a86b39;}.cls-20{fill:#aa7749;}.cls-21{fill:#333;}.cls-22{fill:#9e3e3e;}.cls-23{fill:#8e633f;}.cls-24{fill:#4d4d4d;}.cls-25{fill:gray;}.cls-26{fill:#00d7e2;}.cls-27{fill:#4ef4f4;}.cls-28{fill:#aae8f7;}.cls-29{fill:#d4eff4;}.cls-30{fill:#2b1714;}.cls-31{fill:#3fd1e0;}.cls-32{fill:#79d3e2;}.cls-33{fill:#f26896;}.cls-34{fill:#ffc215;}.cls-35{fill:#dd9864;}.cls-36{fill:#aacdff;}.cls-37{fill:#95befd;}.cls-38,.cls-40,.cls-41,.cls-42{fill:none;}.cls-38{stroke:#c3dcff;stroke-width:7px;}.cls-39{opacity:0.61;}.cls-40,.cls-41,.cls-42{stroke:#8db9fe;}.cls-40,.cls-41{stroke-linecap:round;}.cls-40{stroke-width:6px;}.cls-41{stroke-width:10px;}.cls-42{stroke-width:2.09px;}</style></defs><title>layout</title><g id="Layer_3" data-name="Layer 3"><rect class="cls-1" x="2" y="-8549" width="1918" height="9711"/></g><g id="Layer_1" data-name="Layer 1"><rect class="cls-2" x="850.38" y="63" width="189.62" height="189.62"/><rect class="cls-3" x="873.13" y="85.75" width="148.45" height="148.45"/><path class="cls-2" d="M948.4,125.26a54.3,54.3,0,0,1,2.23-6.15c2.59-5.26,6.56-9,12.41-10.42,5.56-1.33,10.47.12,14.77,3.78,3.63,3.09,5.52,7.2,6.61,11.74,1.42,5.89.48,11.58-1.56,17.15a54.18,54.18,0,0,1-7.46,13.41c-2.89,3.95-6.69,7-10.12,10.38s-6.77,6.54-10.18,9.79c-2.2,2.1-4.42,4.18-6.71,6.34L942.94,176q-4.58-4.43-9.14-8.87c-2-2-3.93-4-6-5.9a59.82,59.82,0,0,1-7.3-8,43.74,43.74,0,0,1-7.91-15.71,26.87,26.87,0,0,1,.35-15.07,22.17,22.17,0,0,1,4.88-8.91c5-5.12,12-7,18.79-4A18.92,18.92,0,0,1,946.7,120.1C947.44,121.87,947.91,123.76,948.4,125.26Z"/><rect class="cls-4" x="396" y="571" width="39" height="432"/><rect class="cls-5" x="355.89" y="491.77" width="82.73" height="32.4" rx="16.2" ry="16.2" transform="translate(-1.83 1.44) rotate(-0.21)"/><rect class="cls-6" x="344.39" y="526.31" width="448.83" height="81.36" transform="translate(-2.04 2.06) rotate(-0.21)"/><rect class="cls-7" x="345.64" y="522.87" width="446.08" height="17.93" transform="translate(-1.92 2.06) rotate(-0.21)"/><rect class="cls-3" x="336.26" y="593.22" width="450.21" height="29.65" transform="translate(-2.19 2.03) rotate(-0.21)"/><rect class="cls-3" x="331.37" y="384.32" width="455.73" height="29.65" transform="translate(-1.44 2.02) rotate(-0.21)"/><rect class="cls-3" x="331.03" y="335.46" width="24.82" height="323.35" transform="translate(-1.79 1.24) rotate(-0.21)"/><rect class="cls-3" x="784.68" y="332.44" width="24.82" height="319.22" transform="translate(-1.77 2.88) rotate(-0.21)"/><rect class="cls-3" x="389.67" y="390.4" width="24.82" height="230.97" transform="translate(-1.82 1.45) rotate(-0.21)"/><rect class="cls-3" x="456.54" y="390.16" width="24.82" height="230.97" transform="translate(-1.82 1.7) rotate(-0.21)"/><rect class="cls-3" x="523.42" y="389.92" width="24.82" height="230.97" transform="translate(-1.82 1.94) rotate(-0.21)"/><rect class="cls-3" x="590.3" y="389.68" width="24.82" height="230.97" transform="translate(-1.82 2.18) rotate(-0.21)"/><rect class="cls-3" x="657.17" y="389.44" width="24.82" height="230.97" transform="translate(-1.82 2.42) rotate(-0.21)"/><rect class="cls-3" x="724.05" y="389.2" width="24.82" height="230.97" transform="translate(-1.82 2.66) rotate(-0.21)"/><circle class="cls-3" cx="796.84" cy="329.34" r="25.62" transform="translate(-1.18 2.88) rotate(-0.21)"/><rect class="cls-8" x="325.07" y="333.86" width="8" height="325" transform="translate(-1.79 1.19) rotate(-0.21)"/><circle class="cls-3" cx="338.47" cy="322.86" r="25.03" transform="translate(-1.16 1.22) rotate(-0.21)"/><rect class="cls-8" x="413.79" y="413.17" width="6.21" height="179.26" transform="translate(-1.81 1.51) rotate(-0.21)"/><rect class="cls-8" x="355.87" y="413.38" width="6.21" height="179.26" transform="translate(-1.81 1.3) rotate(-0.21)"/><rect class="cls-8" x="482.04" y="412.92" width="6.21" height="179.26" transform="translate(-1.81 1.75) rotate(-0.21)"/><rect class="cls-8" x="548.23" y="412.69" width="6.21" height="179.26" transform="translate(-1.81 1.99) rotate(-0.21)"/><rect class="cls-8" x="615.11" y="412.44" width="6.21" height="179.26" transform="translate(-1.81 2.23) rotate(-0.21)"/><rect class="cls-8" x="681.98" y="412.2" width="6.21" height="179.26" transform="translate(-1.81 2.48) rotate(-0.21)"/><rect class="cls-8" x="748.86" y="411.96" width="6.21" height="179.26" transform="translate(-1.81 2.72) rotate(-0.21)"/><rect class="cls-3" x="1057" y="433" width="218" height="212"/><rect class="cls-2" x="1075" y="455" width="180" height="56"/><rect class="cls-2" x="1075" y="524" width="180" height="56"/><circle class="cls-3" cx="1163" cy="481" r="13"/><path class="cls-9" d="M1163,491a13,13,0,0,1-12.91-11.5,13,13,0,1,0,25.81,0A13,13,0,0,1,1163,491Z"/><circle class="cls-3" cx="1162" cy="551" r="13"/><path class="cls-9" d="M1162,561a13,13,0,0,1-12.91-11.5,13,13,0,1,0,25.81,0A13,13,0,0,1,1162,561Z"/><rect class="cls-9" x="1090" y="524" width="165" height="4"/><rect class="cls-9" x="1090" y="455" width="165" height="4"/><path class="cls-10" d="M1136.33,434S1097,632,1275,645H1057V433S1135.67,434.67,1136.33,434Z"/><rect class="cls-2" x="1076.38" y="61" width="189.62" height="189.62"/><rect class="cls-3" x="1099.13" y="83.75" width="148.45" height="148.45"/><rect class="cls-11" x="-8" y="644" width="1932" height="394"/><rect class="cls-12" x="1090.58" y="377.73" width="23.48" height="37.21" transform="translate(2204.63 792.67) rotate(-180)"/><rect class="cls-13" x="965.87" y="376.11" width="23.48" height="37.21"/><rect class="cls-14" x="850" y="393" width="24" height="41"/><rect class="cls-14" x="981" y="391" width="24" height="41"/><path class="cls-15" d="M980.67,456.65V643.32H934.32V520.07a7.13,7.13,0,1,0-14.26,0V642.43H873.71V456.65Z"/><rect class="cls-16" x="873.71" y="458.6" width="106.95" height="14.4"/><path class="cls-16" d="M920.06,633.24v5.29H873.71V595.69a38.35,38.35,0,0,1,46.35,37.56Z"/><path class="cls-15" d="M1004.72,389.25c-.24-42.72-34.66-77.28-77.08-77.28s-76.84,34.56-77.08,77.28h23.16v70.09h107V389.25Z"/><path class="cls-17" d="M927.64,317.81c40.48,0,73.63,31.45,76.81,71.44h.27c-.24-42.72-34.66-77.28-77.08-77.28s-76.84,34.56-77.08,77.28h.27C854,349.26,887.16,317.81,927.64,317.81Z"/><rect class="cls-14" x="912.07" y="290.68" width="29.41" height="40.25" rx="14.69" ry="14.69"/><ellipse class="cls-18" cx="888.42" cy="247.21" rx="31.64" ry="31.71"/><ellipse class="cls-18" cx="905.35" cy="276.69" rx="31.64" ry="31.71"/><ellipse class="cls-19" cx="882.63" cy="260.16" rx="11.59" ry="11.61"/><ellipse class="cls-18" cx="949.03" cy="276.69" rx="31.64" ry="31.71"/><ellipse class="cls-18" cx="978.44" cy="256.15" rx="19.16" ry="19.2"/><ellipse class="cls-19" cx="971.75" cy="260.16" rx="11.59" ry="11.61"/><path class="cls-20" d="M971.49,223.55v40a44.71,44.71,0,1,1-89.41,0v-40Z"/><path class="cls-19" d="M926.78,303h0a44.75,44.75,0,0,1-44.71-44.8v5.36a44.75,44.75,0,0,0,44.71,44.8h0a44.75,44.75,0,0,0,44.71-44.8v-5.36A44.75,44.75,0,0,1,926.78,303Z"/><ellipse class="cls-21" cx="904.46" cy="253.47" rx="5.79" ry="5.81"/><ellipse class="cls-21" cx="945.46" cy="253.47" rx="5.79" ry="5.81"/><path class="cls-22" d="M937.36,268.39V279c0,.24,0,.47,0,.71a12,12,0,0,1-24.06,0c0-.24,0-.47,0-.71V268.39Z"/><rect class="cls-1" x="913.27" y="268.39" width="24.09" height="7.1"/><path class="cls-23" d="M971.49,221.76v24.47a22.62,22.62,0,0,1-3.86-5.86,23.13,23.13,0,0,1-28.73-8.73,31.58,31.58,0,0,1-30.28,2.6,31.57,31.57,0,0,1-26.44,14.31h-.11V221.76Z"/><path class="cls-21" d="M1000.2,206.32A23.23,23.23,0,0,0,984,168.23,43.19,43.19,0,0,0,906.56,146a31.71,31.71,0,0,0-41.61,37.79,31.68,31.68,0,1,0,41.9,45.06,31.58,31.58,0,0,0,30.28-2.6A23.14,23.14,0,0,0,965.84,235a23.18,23.18,0,1,0,34.35-28.7Z"/><path class="cls-24" d="M854.1,213.27a31.7,31.7,0,0,1,16.19-27.67,31.66,31.66,0,0,1,41.61-37.79,43.16,43.16,0,0,1,43.17-16.27A43.16,43.16,0,0,0,905.66,146a31.71,31.71,0,0,0-41.61,37.79A31.72,31.72,0,0,0,874,242.7,31.71,31.71,0,0,1,854.1,213.27Z"/><path class="cls-24" d="M989.34,169.52c0,.17,0,.33.06.49.54,0,1.07.1,1.6.17Q990.18,169.83,989.34,169.52Z"/><path class="cls-24" d="M913.2,231.09l-1-.42-.14.2C912.43,231,912.82,231,913.2,231.09Z"/><path class="cls-25" d="M879,171.33l-.23-.06a2.4,2.4,0,0,1-1.56-3c6.1-19.26,22.07-14.71,22.23-14.67a2.4,2.4,0,0,1-1.36,4.6c-1.2-.34-11.74-2.91-16.31,11.52A2.39,2.39,0,0,1,879,171.33Z"/><ellipse class="cls-25" cx="876.39" cy="179.78" rx="3.57" ry="3.57"/><polygon class="cls-26" points="873.71 361.98 873.71 401.28 869.14 401.28 873.71 361.98"/><polygon class="cls-26" points="980.67 361.98 980.67 401.28 985.24 401.28 980.67 361.98"/><rect class="cls-26" x="980.67" y="384.31" width="28.52" height="16.97"/><rect class="cls-26" x="846.08" y="384.31" width="27.63" height="16.97"/><path class="cls-27" d="M881.68,605.55h.1a38.28,38.28,0,0,1,38.28,38.28v5.46a0,0,0,0,1,0,0H843.41a0,0,0,0,1,0,0v-5.46a38.28,38.28,0,0,1,38.28-38.28Z"/><path class="cls-16" d="M933.78,632.27v5.29h46.35V594.71a38.35,38.35,0,0,0-46.35,37.56Z"/><path class="cls-27" d="M933.78,604.57h76.65a0,0,0,0,1,0,0V610a38.28,38.28,0,0,1-38.28,38.28h-.1A38.28,38.28,0,0,1,933.78,610v-5.46A0,0,0,0,1,933.78,604.57Z" transform="translate(1944.21 1252.89) rotate(-180)"/><path class="cls-16" d="M843.59,639.9h76.58a0,0,0,0,1,0,0v9.74a0,0,0,0,1,0,0H843.59a3.1,3.1,0,0,1-3.1-3.1V643A3.1,3.1,0,0,1,843.59,639.9Z"/><path class="cls-16" d="M936.88,638.93h76.58a0,0,0,0,1,0,0v9.74a0,0,0,0,1,0,0H936.88a3.1,3.1,0,0,1-3.1-3.1V642A3.1,3.1,0,0,1,936.88,638.93Z" transform="translate(1947.24 1287.6) rotate(-180)"/><path class="cls-20" d="M867.27,448.83l49.8-14.55a16,16,0,0,0,10.88-19.87h0a15.59,15.59,0,0,0-19.33-10.63l-50.19,14.66a15.83,15.83,0,0,0-10.74,19.62h0A15.79,15.79,0,0,0,867.27,448.83Z"/><rect class="cls-18" x="975.31" y="211.79" width="124.78" height="166.12"/><path class="cls-12" d="M1092.07,453.84V640.5h-46.35V517.25a7.13,7.13,0,1,0-14.26,0V639.61H985.11V453.84Z"/><path class="cls-13" d="M985.11,491.5v81.4h46.35V519.29c0-1.73,3.19-3.13,7.13-3.13h0c3.94,0,7.13,1.4,7.13,3.13v54h46.35V491.5Z"/><path class="cls-13" d="M1031.46,632.37v5.34H985.11V594.81a38.35,38.35,0,0,1,46.35,37.56Z"/><path class="cls-28" d="M1116.12,386h-18.85a5.2,5.2,0,0,0-5.2,5.21v64.45h-107V391.16a5.21,5.21,0,0,0-3.56-4.95,5.37,5.37,0,0,0-1.64-.26H962a77.08,77.08,0,0,1,154.17,0Z"/><path class="cls-29" d="M1091.1,398v57.64h1V395A5.18,5.18,0,0,0,1091.1,398Z"/><path class="cls-29" d="M1038.06,316a77.14,77.14,0,0,1,76.73,70h1.33a77.07,77.07,0,0,0-153.79-7.08A77.13,77.13,0,0,1,1038.06,316Z"/><rect class="cls-13" x="1023.47" y="287.86" width="29.41" height="53.44" rx="13.25" ry="13.25"/><ellipse class="cls-13" cx="994.02" cy="257.34" rx="11.59" ry="11.61"/><ellipse class="cls-13" cx="1083.15" cy="257.34" rx="11.59" ry="11.61"/><path class="cls-12" d="M1082.88,220.72v40a44.71,44.71,0,1,1-89.41,0v-40Z"/><ellipse class="cls-30" cx="1016.75" cy="253.32" rx="5.79" ry="5.81"/><ellipse class="cls-30" cx="1057.75" cy="253.32" rx="5.79" ry="5.81"/><path class="cls-22" d="M1024.67,266.9h28a0,0,0,0,1,0,0v12.43a14,14,0,0,1-14,14h0a14,14,0,0,1-14-14V266.9A0,0,0,0,1,1024.67,266.9Z"/><rect class="cls-1" x="1024.67" y="266.9" width="28.01" height="8.25"/><path class="cls-28" d="M1105.83,561.9h-130a14.8,14.8,0,0,1-14.35-18.25l24.29-102.33h106.11L1120,543.12A14.8,14.8,0,0,1,1105.83,561.9Z"/><rect class="cls-13" x="993.47" y="222.51" width="89.41" height="17.86"/><path class="cls-21" d="M1037.73,152h.16a62.43,62.43,0,0,1,62.43,62.43v18.68a0,0,0,0,1,0,0h-125a0,0,0,0,1,0,0V214.38A62.43,62.43,0,0,1,1037.73,152Z"/><path class="cls-24" d="M1040.73,152c-1,0-1.94-.07-2.92-.07h0a62.57,62.57,0,0,0-62.51,62.64v18.47h5.83V214.59A62.58,62.58,0,0,1,1040.73,152Z"/><ellipse class="cls-25" cx="990.78" cy="210.01" rx="3.57" ry="3.57"/><path class="cls-25" d="M991.67,205.09h-.14a3.12,3.12,0,0,1-3-3.26c1-21.11,18.63-31.6,19.38-32a3.12,3.12,0,0,1,3.13,5.41h0c-.15.09-15.48,9.28-16.28,26.91A3.12,3.12,0,0,1,991.67,205.09Z"/><path class="cls-31" d="M985.53,351.9v39.3h-.43v0a5.21,5.21,0,0,0-3.56-4.95Z"/><path class="cls-31" d="M1091.36,351.9v39.3h.43v0a5.21,5.21,0,0,1,3.56-4.95Z"/><path class="cls-32" d="M993.08,602.72h.1A38.28,38.28,0,0,1,1031.46,641v5.46a0,0,0,0,1,0,0H954.81a0,0,0,0,1,0,0V641A38.28,38.28,0,0,1,993.08,602.72Z"/><path class="cls-13" d="M1046.15,632.37v5.34h46.35V594.81a38.35,38.35,0,0,0-46.35,37.56Z"/><path class="cls-32" d="M1046.15,602.72h76.65a0,0,0,0,1,0,0v5.46a38.28,38.28,0,0,1-38.28,38.28h-.1a38.28,38.28,0,0,1-38.28-38.28v-5.46A0,0,0,0,1,1046.15,602.72Z" transform="translate(2168.96 1249.19) rotate(-180)"/><path class="cls-16" d="M954.62,637.57h76.58a0,0,0,0,1,0,0v9.74a0,0,0,0,1,0,0H954.62a3.1,3.1,0,0,1-3.1-3.1v-3.54A3.1,3.1,0,0,1,954.62,637.57Z"/><path class="cls-16" d="M1047.91,636.59h76.58a0,0,0,0,1,0,0v9.74a0,0,0,0,1,0,0h-76.58a3.1,3.1,0,0,1-3.1-3.1v-3.54A3.1,3.1,0,0,1,1047.91,636.59Z" transform="translate(2169.31 1282.92) rotate(-180)"/><path class="cls-33" d="M1142.73,363,1103,446.39a49.27,49.27,0,0,1-59.57,25.68,50.54,50.54,0,0,1-6.08-2.43c-.79-.38-1.56-.77-2.33-1.19A49.26,49.26,0,0,1,1014,404l39.78-83.4a49.25,49.25,0,0,1,88.91,42.4Z"/><path class="cls-34" d="M1128.19,366.77l-9.69,20.31a37.13,37.13,0,1,1-67-32l9.69-20.31a36.57,36.57,0,0,1,2-3.58,37.13,37.13,0,0,1,65.07,35.55Z"/><path class="cls-35" d="M1124.85,362.88l-8.47,17.75a32.45,32.45,0,1,1-58.57-27.93l8.47-17.75a32,32,0,0,1,1.7-3.13,32.45,32.45,0,0,1,56.87,31.06Z"/><circle class="cls-30" cx="1078.26" cy="349.25" r="4.28" transform="translate(298.86 1172.14) rotate(-64.5)"/><circle class="cls-30" cx="1105.6" cy="362.29" r="4.28" transform="translate(302.66 1204.25) rotate(-64.5)"/><circle class="cls-34" cx="1082.34" cy="376.2" r="13.08" transform="translate(276.86 1191.17) rotate(-64.5)"/><circle class="cls-1" cx="1081.59" cy="377.77" r="6.1" transform="translate(275.01 1191.39) rotate(-64.5)"/><path class="cls-21" d="M1128,350.48a24.83,24.83,0,0,1-23.87-15.71,27.93,27.93,0,0,1-36.13-2.95,32.46,32.46,0,0,1,60,18.66Z"/><path class="cls-12" d="M984.27,427.83l49.8-14.55a16,16,0,0,0,10.88-19.87h0a15.59,15.59,0,0,0-19.33-10.63l-50.19,14.66a15.83,15.83,0,0,0-10.74,19.62h0A15.79,15.79,0,0,0,984.27,427.83Z"/><path class="cls-12" d="M1056.09,444.45l51.49-6.4a16,16,0,0,0,13.88-17.87h0A15.64,15.64,0,0,0,1104,406.61l-51.9,6.45a15.78,15.78,0,0,0-13.7,17.65h0A15.84,15.84,0,0,0,1056.09,444.45Z"/><path class="cls-13" d="M1039.42,434.51a15.77,15.77,0,0,1,13.72-17.45l51.9-6.45a15.62,15.62,0,0,1,16.44,9.79c0-.07,0-.14,0-.22h0A15.64,15.64,0,0,0,1104,406.61l-51.9,6.45a15.78,15.78,0,0,0-13.7,17.65h0A15.83,15.83,0,0,0,1039.42,434.51Z"/><rect class="cls-5" x="1332.93" y="82.63" width="379.17" height="343.37"/><rect class="cls-36" x="1332.93" y="81" width="53.7" height="345"/><rect class="cls-1" x="1330.49" y="228.28" width="381.62" height="34.72"/><path class="cls-37" d="M1332.93,426l55-29.08h324.64L1712.1,426S1332.93,425.79,1332.93,426Z"/><rect class="cls-1" x="1514" y="72" width="30" height="360"/><path class="cls-2" d="M1175.4,140.26a54.3,54.3,0,0,1,2.23-6.15c2.59-5.26,6.56-9,12.41-10.42,5.56-1.33,10.47.12,14.77,3.78,3.63,3.09,5.52,7.2,6.61,11.74,1.42,5.89.48,11.58-1.56,17.15a54.18,54.18,0,0,1-7.46,13.41c-2.89,3.95-6.69,7-10.12,10.38s-6.77,6.54-10.18,9.79c-2.2,2.1-4.42,4.18-6.71,6.34l-5.45-5.26q-4.58-4.43-9.14-8.87c-2-2-3.93-4-6-5.9a59.82,59.82,0,0,1-7.3-8,43.74,43.74,0,0,1-7.91-15.71,26.87,26.87,0,0,1,.35-15.07,22.17,22.17,0,0,1,4.88-8.91c5-5.12,12-7,18.79-4a18.92,18.92,0,0,1,10.08,10.55C1174.44,136.87,1174.91,138.76,1175.4,140.26Z"/><line class="cls-38" x1="361.47" y1="587" x2="361.47" y2="662.77"/><line class="cls-38" x1="429.28" y1="587" x2="429.28" y2="662.77"/><line class="cls-38" x1="497.09" y1="587" x2="497.09" y2="662.77"/><polygon class="cls-3" points="360.47 631.21 369.69 649.89 390.31 652.88 375.39 667.42 378.91 687.95 360.47 678.26 342.03 687.95 345.56 667.42 330.64 652.88 351.25 649.89 360.47 631.21"/><polygon class="cls-3" points="497.09 654.8 506.31 673.48 526.92 676.48 512 691.02 515.52 711.55 497.09 701.86 478.65 711.55 482.17 691.02 467.25 676.48 487.87 673.48 497.09 654.8"/><polygon class="cls-3" points="429.28 630.88 438.5 649.56 459.11 652.56 444.19 667.1 447.72 687.63 429.28 677.93 410.84 687.63 414.37 667.1 399.45 652.56 420.06 649.56 429.28 630.88"/><rect class="cls-2" x="333" y="564" width="180" height="27" rx="13.5" ry="13.5"/><g class="cls-39"><circle class="cls-1" cx="1470.91" cy="130.16" r="3.87"/><circle class="cls-1" cx="1432" cy="164" r="4"/><circle class="cls-1" cx="1498" cy="169.84" r="3.87"/><circle class="cls-1" cx="1458" cy="194" r="4"/><circle class="cls-1" cx="1622.84" cy="161.13" r="3.87"/><circle class="cls-1" cx="1578.32" cy="154.35" r="3.87"/><circle class="cls-1" cx="1613.16" cy="130.16" r="3.87"/><circle class="cls-1" cx="1674.13" cy="158.23" r="3.87" transform="translate(783.91 1584.85) rotate(-63.43)"/><circle class="cls-1" cx="1606.39" cy="191.13" r="3.87" transform="translate(717.04 1542.45) rotate(-63.43)"/><circle class="cls-1" cx="1669.29" cy="127.26" r="3.87" transform="translate(808.94 1563.41) rotate(-63.43)"/><circle class="cls-1" cx="1637.36" cy="108.87" r="3.87" transform="translate(74.44 608.94) rotate(-21.55)"/><circle class="cls-1" cx="1463" cy="95" r="4"/><circle class="cls-1" cx="1415" cy="126" r="4"/><circle class="cls-1" cx="1510.58" cy="124.35" r="3.87" transform="translate(663.07 1380.96) rotate(-60.71)"/><circle class="cls-1" cx="1419" cy="87" r="4"/></g><g class="cls-39"><circle class="cls-1" cx="1468.55" cy="280.24" r="3.87" transform="translate(754.44 1593.72) rotate(-72.27)"/><circle class="cls-1" cx="1421.19" cy="300.63" r="4" transform="translate(702.09 1562.79) rotate(-72.27)"/><circle class="cls-1" cx="1482.28" cy="326.29" r="3.87" transform="translate(720.13 1638.82) rotate(-72.27)"/><circle class="cls-1" cx="1436.82" cy="337.12" r="4" transform="translate(678.2 1603.05) rotate(-72.27)"/><circle class="cls-1" cx="1603.84" cy="356" r="3.87" transform="translate(776.37 1775.28) rotate(-72.27)"/><circle class="cls-1" cx="1563.5" cy="336" r="3.87" transform="translate(767.38 1722.94) rotate(-72.27)"/><circle class="cls-1" cx="1604.05" cy="323.56" r="3.87" transform="translate(807.42 1752.91) rotate(-72.27)"/><circle class="cls-1" cx="1653.58" cy="368.86" r="3.87" transform="translate(234.82 1294.87) rotate(-45.71)"/><circle class="cls-1" cx="1579.03" cy="379.57" r="3.87" transform="translate(204.66 1244.74) rotate(-45.71)"/><circle class="cls-1" cx="1658.4" cy="337.88" r="3.87" transform="translate(258.44 1288.97) rotate(-45.71)"/><circle class="cls-1" cx="1633.58" cy="310.65" r="3.87" transform="translate(-17.06 109.48) rotate(-3.82)"/><circle class="cls-1" cx="1471.72" cy="244.34" r="4" transform="translate(790.85 1571.78) rotate(-72.27)"/><circle class="cls-1" cx="1416.56" cy="259.26" r="4" transform="translate(738.28 1529.61) rotate(-72.27)"/><circle class="cls-1" cx="1508.11" cy="286.79" r="3.87" transform="translate(209.28 1105.14) rotate(-42.98)"/><circle class="cls-1" cx="1432.25" cy="223.33" r="4" transform="translate(783.41 1519.56) rotate(-72.27)"/></g><circle class="cls-3" cx="644" cy="118" r="103"/><circle class="cls-2" cx="644" cy="118" r="80"/><rect class="cls-3" x="639" y="39" width="10" height="27" rx="5" ry="5"/><rect class="cls-3" x="640" y="167" width="10" height="27" rx="5" ry="5"/><rect class="cls-3" x="574" y="102.5" width="10" height="27" rx="5" ry="5" transform="translate(463 695) rotate(-90)"/><rect class="cls-3" x="704.5" y="102.5" width="10" height="27" rx="5" ry="5" transform="translate(593.5 825.5) rotate(-90)"/><circle class="cls-3" cx="646.5" cy="119.5" r="9.5"/><line class="cls-40" x1="614" y1="64" x2="645" y2="118"/><line class="cls-41" x1="647" y1="119" x2="682" y2="101"/><line class="cls-42" x1="1194.86" y1="388.48" x2="1194.86" y2="310.77"/><path class="cls-8" d="M1177,352.3a14.16,14.16,0,0,0,17.35,17.35A14.16,14.16,0,0,0,1177,352.3Z"/><path class="cls-8" d="M1177,333.32a14.16,14.16,0,0,0,17.35,17.35A14.16,14.16,0,0,0,1177,333.32Z"/><path class="cls-8" d="M1177,311.25a14.16,14.16,0,0,0,17.35,17.35A14.16,14.16,0,0,0,1177,311.25Z"/><path class="cls-8" d="M1212.69,361.82a14.16,14.16,0,0,0-17.35,17.35,14.16,14.16,0,0,0,17.35-17.35Z"/><path class="cls-8" d="M1212.69,342.4a14.16,14.16,0,0,0-17.35,17.35,14.16,14.16,0,0,0,17.35-17.35Z"/><path class="cls-8" d="M1211.6,322a14.16,14.16,0,0,0-17.35,17.35A14.16,14.16,0,0,0,1211.6,322Z"/><path class="cls-8" d="M1194.86,290a14.16,14.16,0,0,0,0,24.54,14.16,14.16,0,0,0,0-24.54Z"/><polygon class="cls-3" points="1222.23 387.68 1221.48 393.77 1218.14 421 1216.67 433 1216.55 433.97 1173.18 433.97 1173.06 433 1171.59 421 1168.25 393.77 1167.5 387.68 1222.23 387.68"/><path class="cls-5" d="M1226.07,388.48c0,2.92-1.53,5.3-3.42,5.3h-55.55c-1.89,0-3.43-2.37-3.43-5.3h0c0-2.92,1.53-5.29,3.43-5.29h55.55c1.89,0,3.42,2.37,3.42,5.29Z"/><polygon class="cls-5" points="1218.14 423 1216.67 433 1173.06 433 1171.59 423 1218.14 423"/><polygon class="cls-12" points="966.67 386 985.67 386 986 410 968 410 966.67 386"/></g></svg>