<svg xmlns="http://www.w3.org/2000/svg" viewBox="0 0 1932 204"><defs><style>.cls-1{fill:#fff;}.cls-2{font-size:24px;fill:#205286;font-family:HelveticaRounded-Bold, Helvetica Rounded;font-weight:700;}.cls-3{letter-spacing:-0.04em;}.cls-4{letter-spacing:-0.04em;}.cls-5{letter-spacing:-0.02em;}.cls-6{letter-spacing:-0.07em;}.cls-7{letter-spacing:0em;}.cls-8{letter-spacing:0em;}.cls-9{letter-spacing:-0.04em;}.cls-10{letter-spacing:0em;}.cls-11{letter-spacing:-0.04em;}.cls-12{letter-spacing:-0.02em;}.cls-13{letter-spacing:-0.09em;}.cls-14{letter-spacing:0.02em;}.cls-15{letter-spacing:0.02em;}.cls-16{letter-spacing:0.02em;}.cls-17{letter-spacing:-0.11em;}.cls-18{letter-spacing:-0.13em;}.cls-19{letter-spacing:-0.07em;}</style></defs><title>layout</title><g id="Layer_3" data-name="Layer 3"><rect class="cls-1" x="4" y="-2103" width="1925" height="8464"/></g><g id="Layer_1" data-name="Layer 1"><text class="cls-2" transform="translate(307 50.27)">WE’RE<tspan class="cls-3" x="80.47" y="0"> </tspan><tspan x="86.87" y="0">GOING</tspan><tspan class="cls-4" x="171.83" y="0"> </tspan><tspan class="cls-5" x="178.23" y="0">T</tspan><tspan x="193.83" y="0">O</tspan><tspan class="cls-3" x="213.41" y="0"> </tspan><tspan x="219.81" y="0">LOOK</tspan><tspan class="cls-4" x="290.08" y="0"> </tspan><tspan class="cls-6" x="296.48" y="0">A</tspan><tspan x="310.71" y="0">T</tspan><tspan class="cls-3" x="326.74" y="0"> </tspan><tspan x="333.14" y="0">THE</tspan><tspan class="cls-3" x="384.29" y="0"> </tspan><tspan x="390.69" y="0">TYPICAL</tspan><tspan class="cls-4" x="493.88" y="0"> </tspan><tspan x="500.28" y="0">JOURNEY</tspan><tspan class="cls-3" x="619.9" y="0"> </tspan><tspan x="626.3" y="0">OF</tspan><tspan class="cls-4" x="661" y="0"> </tspan><tspan class="cls-7" x="667.4" y="0">SOMEONE</tspan><tspan class="cls-4" x="795.87" y="0"> </tspan><tspan class="cls-8" x="802.27" y="0">WHO’S</tspan><tspan class="cls-4" x="886.77" y="0"> </tspan><tspan x="893.17" y="0">CHOSEN</tspan><tspan class="cls-9" x="1000.31" y="0"> </tspan><tspan class="cls-8" x="1006.7" y="0">THE</tspan><tspan class="cls-4" x="1057.85" y="0"> </tspan><tspan class="cls-8" x="1064.25" y="0">MOST</tspan><tspan class="cls-4" x="1137.61" y="0"> </tspan><tspan class="cls-10" x="1144.01" y="0">EFFECT</tspan><tspan class="cls-4" x="1240.49" y="0"> </tspan><tspan class="cls-10" x="1246.89" y="0">FER</tspan><tspan x="1296.23" y="0">-</tspan><tspan x="418.87" y="40">TILITY TECHNIQUE </tspan><tspan class="cls-11" x="659.57" y="40">AV</tspan><tspan x="689.35" y="40">AILABLE </tspan><tspan class="cls-5" x="799.39" y="40">T</tspan><tspan x="814.99" y="40">O</tspan><tspan class="cls-12" x="834.57" y="40">D</tspan><tspan class="cls-11" x="852.19" y="40">A</tspan><tspan class="cls-13" x="867.31" y="40">Y</tspan><tspan x="879.79" y="40" xml:space="preserve">.  </tspan><tspan x="0" y="96">THERE</tspan><tspan class="cls-14" x="85.37" y="96"> </tspan><tspan x="93.14" y="96">ARE</tspan><tspan class="cls-14" x="143.37" y="96"> </tspan><tspan x="151.13" y="96">MANY</tspan><tspan class="cls-14" x="221.81" y="96"> </tspan><tspan x="229.58" y="96">TYPES</tspan><tspan class="cls-14" x="310.08" y="96"> </tspan><tspan x="317.84" y="96">OF</tspan><tspan class="cls-15" x="352.55" y="96"> </tspan><tspan x="360.32" y="96">PROCEDURES</tspan><tspan class="cls-14" x="535.9" y="96"> </tspan><tspan x="543.67" y="96">TH</tspan><tspan class="cls-6" x="578.37" y="96">A</tspan><tspan x="592.6" y="96">T</tspan><tspan class="cls-14" x="608.63" y="96"> </tspan><tspan x="616.4" y="96">WOULD</tspan><tspan class="cls-16" x="709.76" y="96"> </tspan><tspan x="717.53" y="96">TECHNICAL</tspan><tspan class="cls-17" x="860.26" y="96">L</tspan><tspan x="872.26" y="96">Y</tspan><tspan class="cls-15" x="886.94" y="96"> </tspan><tspan x="894.71" y="96">COUNT</tspan><tspan class="cls-16" x="985" y="96"> </tspan><tspan x="992.77" y="96">AS</tspan><tspan class="cls-15" x="1025.21" y="96"> </tspan><tspan x="1032.98" y="96">IV</tspan><tspan class="cls-18" x="1056.12" y="96">F</tspan><tspan x="1068.14" y="96">.</tspan><tspan class="cls-16" x="1075.49" y="96" xml:space="preserve">  </tspan><tspan x="1091.02" y="96">TH</tspan><tspan class="cls-19" x="1125.72" y="96">A</tspan><tspan x="1139.96" y="96">T’S</tspan><tspan class="cls-15" x="1180.01" y="96"> </tspan><tspan x="1187.78" y="96">BEC</tspan><tspan class="cls-5" x="1238.87" y="96">A</tspan><tspan x="1254.45" y="96">USE </tspan><tspan x="499.35" y="136">THE IV IN IVF CAN MEAN:</tspan></text></g></svg>