<svg xmlns="http://www.w3.org/2000/svg" viewBox="0 0 1932 501"><defs><style>.cls-1{fill:#fff;}.cls-2{font-size:72px;fill:#f49db6;font-family:HelveticaRoundedLT-Black, Helvetica Rounded LT Black;}.cls-3{letter-spacing:-0.04em;}.cls-4{font-size:30px;fill:#205286;font-family:HelveticaRounded-Bold, Helvetica Rounded;font-weight:700;}.cls-5{letter-spacing:-0.02em;}.cls-6{letter-spacing:0.06em;}.cls-7{letter-spacing:0.06em;}.cls-8{letter-spacing:-0.01em;}.cls-9{letter-spacing:-0.01em;}.cls-10{letter-spacing:-0.01em;}.cls-11{letter-spacing:0.06em;}.cls-12{letter-spacing:-0.04em;}.cls-13{letter-spacing:-0.01em;}.cls-14{letter-spacing:-0.09em;}.cls-15{letter-spacing:0.07em;}.cls-16{letter-spacing:0.07em;}.cls-17{letter-spacing:0em;}.cls-18{letter-spacing:0.07em;}</style></defs><title>9</title><g id="Layer_3" data-name="Layer 3"><rect class="cls-1" x="7" y="-5107" width="1925" height="8464"/></g><g id="Layer_1" data-name="Layer 1"><text class="cls-2" transform="translate(429.19 286.39)">THE<tspan class="cls-3" x="163.94" y="0"> </tspan><tspan x="185.33" y="0">TYPICAL IVF JOURNEY</tspan></text><text class="cls-4" transform="translate(314.75 82)"><tspan class="cls-5">T</tspan><tspan x="19.5" y="0">hat</tspan><tspan class="cls-6" x="67.26" y="0"> </tspan><tspan x="78.19" y="0">was</tspan><tspan class="cls-7" x="135.97" y="0"> </tspan><tspan x="146.9" y="0">just</tspan><tspan class="cls-6" x="200.78" y="0"> </tspan><tspan x="211.71" y="0">a</tspan><tspan class="cls-6" x="230.03" y="0"> </tspan><tspan class="cls-8" x="240.96" y="0">r</tspan><tspan x="252.81" y="0">ough</tspan><tspan class="cls-7" x="326.16" y="0"> </tspan><tspan class="cls-9" x="337.09" y="0">o</tspan><tspan x="355.27" y="0">ver</tspan><tspan class="cls-6" x="400.84" y="0"> </tspan><tspan x="411.77" y="0">view</tspan><tspan class="cls-6" x="476.81" y="0"> </tspan><tspan x="487.74" y="0">of</tspan><tspan class="cls-7" x="517.2" y="0"> </tspan><tspan x="528.13" y="0">the</tspan><tspan class="cls-6" x="575.92" y="0"> </tspan><tspan x="586.85" y="0">th</tspan><tspan class="cls-10" x="616.28" y="0">r</tspan><tspan x="628.13" y="0">ee</tspan><tspan class="cls-7" x="664.85" y="0"> </tspan><tspan x="675.78" y="0">most</tspan><tspan class="cls-7" x="749.13" y="0"> </tspan><tspan x="760.06" y="0">popular</tspan><tspan class="cls-11" x="872.29" y="0"> </tspan><tspan x="883.22" y="0">IVF</tspan><tspan class="cls-7" x="931.04" y="0"> </tspan><tspan x="941.96" y="0">techniques.</tspan><tspan class="cls-7" x="1112.84" y="0"> </tspan><tspan x="1123.77" y="0">Let</tspan><tspan class="cls-12" x="1171.56" y="0">’</tspan><tspan x="1179.93" y="0">s</tspan><tspan class="cls-7" x="1196.04" y="0"> </tspan><tspan x="1206.97" y="0">look</tspan><tspan class="cls-11" x="1268.14" y="0"> </tspan><tspan x="1279.07" y="0">at </tspan><tspan x="175.62" y="40">the enti</tspan><tspan class="cls-8" x="288.72" y="40">r</tspan><tspan x="300.57" y="40">e p</tspan><tspan class="cls-8" x="346.44" y="40">r</tspan><tspan x="358.29" y="40">ocess for number th</tspan><tspan class="cls-13" x="655.31" y="40">r</tspan><tspan x="667.16" y="40">ee – the one </tspan><tspan class="cls-10" x="858.44" y="40">y</tspan><tspan x="873.08" y="40">ou came he</tspan><tspan class="cls-13" x="1045.4" y="40">r</tspan><tspan x="1057.25" y="40">e fo</tspan><tspan class="cls-14" x="1114.25" y="40">r</tspan><tspan x="1123.71" y="40">. </tspan></text><text class="cls-4" transform="translate(312 397)">Once<tspan class="cls-15" x="77.28" y="0"> </tspan><tspan class="cls-8" x="88.54" y="0">y</tspan><tspan x="103.18" y="0">ou</tspan><tspan class="cls-15" x="139.87" y="0"> </tspan><tspan x="151.13" y="0">and</tspan><tspan class="cls-15" x="206.12" y="0"> </tspan><tspan class="cls-8" x="217.38" y="0">y</tspan><tspan x="232.02" y="0">our</tspan><tspan class="cls-15" x="280.92" y="0"> </tspan><tspan x="292.18" y="0">partner</tspan><tspan class="cls-15" x="401.05" y="0"> </tspan><tspan x="412.31" y="0">have</tspan><tspan class="cls-16" x="482.33" y="0"> </tspan><tspan x="493.58" y="0">finished</tspan><tspan class="cls-15" x="610.82" y="0"> </tspan><tspan class="cls-8" x="622.08" y="0">y</tspan><tspan x="636.72" y="0">our</tspan><tspan class="cls-15" x="685.62" y="0"> </tspan><tspan class="cls-13" x="696.88" y="0">r</tspan><tspan class="cls-17" x="708.73" y="0">esea</tspan><tspan class="cls-13" x="779.89" y="0">r</tspan><tspan x="791.74" y="0">ch</tspan><tspan class="cls-18" x="826.18" y="0"> </tspan><tspan x="837.44" y="0">and</tspan><tspan class="cls-15" x="892.43" y="0"> </tspan><tspan x="903.69" y="0">have</tspan><tspan class="cls-15" x="973.71" y="0"> </tspan><tspan x="984.97" y="0">decided</tspan><tspan class="cls-15" x="1101.13" y="0"> </tspan><tspan x="1112.39" y="0">IVF</tspan><tspan class="cls-15" x="1160.21" y="0"> </tspan><tspan x="1171.47" y="0">is</tspan><tspan class="cls-15" x="1195.92" y="0"> </tspan><tspan x="1207.18" y="0">some</tspan><tspan x="1287.79" y="0">-</tspan><tspan x="34.01" y="40">thing </tspan><tspan class="cls-8" x="117.62" y="40">y</tspan><tspan x="132.26" y="40">ou</tspan><tspan class="cls-12" x="168.95" y="40">’</tspan><tspan x="177.32" y="40">d like to m</tspan><tspan class="cls-9" x="331.58" y="40">o</tspan><tspan x="349.76" y="40">ve forwa</tspan><tspan class="cls-8" x="475.64" y="40">r</tspan><tspan x="487.49" y="40">d with, the</tspan><tspan class="cls-8" x="642.26" y="40">r</tspan><tspan x="654.11" y="40">e a</tspan><tspan class="cls-13" x="699.98" y="40">r</tspan><tspan x="711.83" y="40">e a number of steps to be completed. </tspan></text></g></svg>